<svg width="158" height="142" viewBox="0 0 158 142" fill="none" xmlns="http://www.w3.org/2000/svg">
<path d="M132.694 67.6361C131.094 68.0649 129.449 67.1151 129.02 65.5147L127.536 59.9754C127.107 58.375 128.057 56.73 129.657 56.3012L152.199 50.2612C153.799 49.8323 155.444 50.7821 155.873 52.3825L157.357 57.9218C157.786 59.5222 156.836 61.1672 155.236 61.596L132.694 67.6361ZM155.035 117.894C154.42 119.427 152.68 120.174 151.145 119.565L129.307 110.9C127.763 110.288 127.011 108.536 127.629 106.994L129.766 101.672C130.381 100.139 132.12 99.3919 133.656 100.001L155.494 108.666C157.038 109.279 157.79 111.03 157.171 112.572L155.035 117.894ZM114.82 27.4223C113.799 28.7308 111.909 28.9611 110.603 27.9361L106.092 24.3952C104.791 23.3742 104.562 21.493 105.58 20.1895L119.675 2.13263C120.696 0.82407 122.586 0.593774 123.892 1.61876L128.403 5.15965C129.703 6.18072 129.933 8.06187 128.915 9.36544L114.82 27.4223ZM47.1136 141.187C45.5132 141.616 43.8682 140.666 43.4393 139.066L36.8931 114.635C36.4643 113.034 34.8193 112.085 33.2189 112.513L14.4555 117.541C12.8551 117.97 11.2101 117.02 10.7813 115.42L0.185522 75.8758C-0.243303 74.2754 0.706445 72.6304 2.30684 72.2016L43.946 61.0444C44.4712 60.9037 44.9482 60.6228 45.3262 60.232L72.7741 31.8448C74.395 30.1684 77.225 30.9012 77.8286 33.1537L99.3832 113.597C99.9867 115.849 97.9023 117.899 95.6603 117.257L57.6962 106.397C57.1734 106.248 56.6199 106.243 56.0947 106.384L50.3493 107.923C48.7489 108.352 47.7992 109.997 48.228 111.598L54.7742 136.028C55.203 137.629 54.2533 139.274 52.6529 139.703L47.1136 141.187ZM106.056 90.7646C105.075 93.1601 101.886 92.7124 101.216 90.2121L91.1085 52.4887C90.4385 49.9884 92.9762 48.0063 95.0235 49.5904C97.0032 51.1221 98.8482 52.8871 100.558 54.8854C103.801 58.6736 106.114 63.1494 107.497 68.3132C108.881 73.477 109.116 78.5097 108.202 83.4115C107.72 85.9972 107.005 88.4483 106.056 90.7646Z" fill="url(#paint0_linear_358_2862)"/>
<defs>
<linearGradient id="paint0_linear_358_2862" x1="64.851" y1="14.9473" x2="97.2476" y2="135.853" gradientUnits="userSpaceOnUse">
<stop stop-color="#59AFFF"/>
<stop offset="0.495192" stop-color="#064482"/>
<stop offset="1" stop-color="#002D59"/>
</linearGradient>
</defs>
</svg>
