<svg width="128" height="76" viewBox="0 0 128 76" fill="none" xmlns="http://www.w3.org/2000/svg">
<rect x="12.3125" width="123" height="36" rx="18" transform="rotate(20 12.3125 0)" fill="url(#paint0_linear_287_5304)" fill-opacity="0.1"/>
<rect x="12.6113" y="0.640856" width="122" height="35" rx="17.5" transform="rotate(20 12.6113 0.640856)" stroke="url(#paint1_linear_287_5304)" stroke-opacity="0.1"/>
<g clip-path="url(#clip0_287_5304)">
<path d="M33.6358 22.0148C35.1405 20.7431 35.3422 18.4901 34.0864 16.9826C32.8306 15.475 30.5927 15.2839 29.088 16.5556L17.8357 26.0658C16.331 27.3375 16.1292 29.5905 17.385 31.098C18.6408 32.6056 20.8787 32.7967 22.3833 31.525L33.6358 22.0148Z" fill="#F8BB2D"/>
<path d="M23.438 30.0082C22.7626 31.8638 20.7231 32.825 18.8827 32.1552C17.0422 31.4853 16.0978 29.438 16.7732 27.5824C17.4486 25.7268 19.4881 24.7654 21.3285 25.4353C23.1689 26.1052 24.1134 28.1526 23.438 30.0082Z" fill="#3BA757"/>
<path d="M30.4312 22.2016C30.096 20.2603 31.3896 18.4047 33.3207 18.0571C35.2517 17.7095 37.0888 19.0015 37.424 20.9429L39.9308 35.461C40.266 37.4024 38.9724 39.258 37.0413 39.6056C35.1103 39.9532 33.2732 38.6611 32.938 36.7197L30.4312 22.2016Z" fill="#4689F2"/>
</g>
<path d="M54.2251 32.3161C54.2371 32.0224 54.2101 31.7456 54.1441 31.4858C54.0822 31.2241 53.9811 30.9843 53.8411 30.7663C53.702 30.5454 53.5224 30.3506 53.3021 30.182C53.0847 30.0145 52.8285 29.877 52.5335 29.7696C52.0332 29.5875 51.5352 29.552 51.0395 29.6631C50.5438 29.7742 50.0883 30.0358 49.673 30.448C49.2616 30.8583 48.9254 31.4221 48.6644 32.1393C48.4023 32.8594 48.2978 33.5108 48.351 34.0935C48.4042 34.6762 48.5879 35.1705 48.902 35.5763C49.2161 35.9821 49.6334 36.2797 50.154 36.4692C50.637 36.645 51.0935 36.6998 51.5237 36.6337C51.9568 36.5686 52.3369 36.3925 52.6641 36.1055C52.9953 35.8166 53.2498 35.4278 53.4277 34.9391L53.751 35.1304L51.2089 34.2052L51.6115 33.099L55.1037 34.37L54.7358 35.3808C54.4642 36.1269 54.0694 36.7169 53.5513 37.1506C53.0371 37.5824 52.4467 37.8457 51.7801 37.9404C51.1164 38.0362 50.426 37.9536 49.7087 37.6925C48.9047 37.3999 48.2664 36.958 47.7939 36.3667C47.3241 35.7766 47.0438 35.0801 46.9528 34.2773C46.8628 33.4716 46.9884 32.6003 47.3294 31.6632C47.5873 30.9547 47.9172 30.3542 48.3192 29.8619C48.7211 29.3695 49.1715 28.9914 49.6704 28.7275C50.1732 28.4618 50.704 28.3128 51.2627 28.2803C51.8254 28.2461 52.3945 28.3337 52.9701 28.5431C53.4501 28.7179 53.8712 28.9514 54.2332 29.2436C54.598 29.5369 54.8951 29.8726 55.1242 30.2508C55.3563 30.63 55.5141 31.0379 55.5976 31.4744C55.6821 31.908 55.683 32.3554 55.6003 32.8166L54.2251 32.3161ZM57.8043 40.6538C57.1796 40.4264 56.6865 40.0849 56.3251 39.6291C55.9637 39.1733 55.748 38.6412 55.678 38.0327C55.6079 37.4242 55.6982 36.7758 55.9487 36.0875C56.2003 35.3963 56.549 34.8387 56.9948 34.4148C57.4406 33.9908 57.9484 33.7203 58.5182 33.6035C59.0881 33.4867 59.6853 33.5419 60.31 33.7693C60.9347 33.9967 61.4277 34.3382 61.7891 34.794C62.1506 35.2498 62.3658 35.7834 62.4347 36.3947C62.5037 37.0061 62.4124 37.6574 62.1608 38.3486C61.9103 39.0369 61.5627 39.5916 61.1179 40.0127C60.6731 40.4338 60.1658 40.7027 59.596 40.8196C59.0262 40.9364 58.4289 40.8812 57.8043 40.6538ZM58.2049 39.5665C58.6098 39.7139 58.9842 39.729 59.3282 39.6118C59.6721 39.4946 59.9725 39.2814 60.2292 38.972C60.4888 38.6636 60.6965 38.2954 60.8523 37.8674C61.007 37.4423 61.0841 37.0281 61.0834 36.6251C61.0867 36.2201 60.9948 35.8608 60.8076 35.547C60.6205 35.2333 60.3245 35.0027 59.9196 34.8554C59.5118 34.707 59.134 34.6923 58.7861 34.8113C58.4411 34.9313 58.1382 35.147 57.8776 35.4582C57.6208 35.7676 57.4151 36.1349 57.2604 36.56C57.1046 36.9881 57.0256 37.4031 57.0234 37.8051C57.024 38.2082 57.1185 38.5652 57.3066 38.876C57.4977 39.1879 57.7971 39.4181 58.2049 39.5665ZM65.1649 43.3328C64.5402 43.1055 64.0471 42.7639 63.6857 42.3081C63.3243 41.8523 63.1086 41.3202 63.0386 40.7117C62.9686 40.1033 63.0588 39.4549 63.3093 38.7666C63.5609 38.0754 63.9096 37.5178 64.3554 37.0938C64.8012 36.6698 65.309 36.3994 65.8789 36.2825C66.4487 36.1657 67.0459 36.221 67.6706 36.4483C68.2953 36.6757 68.7884 37.0173 69.1498 37.4731C69.5112 37.9288 69.7264 38.4624 69.7953 39.0738C69.8643 39.6851 69.773 40.3364 69.5214 41.0276C69.2709 41.7159 68.9233 42.2706 68.4785 42.6917C68.0338 43.1128 67.5265 43.3818 66.9566 43.4986C66.3868 43.6155 65.7896 43.5602 65.1649 43.3328ZM65.5655 42.2456C65.9704 42.3929 66.3448 42.408 66.6888 42.2909C67.0328 42.1737 67.3331 41.9604 67.5898 41.651C67.8494 41.3426 68.0571 40.9745 68.2129 40.5464C68.3677 40.1213 68.4447 39.7072 68.444 39.3041C68.4473 38.8992 68.3554 38.5398 68.1682 38.2261C67.9811 37.9124 67.6851 37.6818 67.2802 37.5344C66.8725 37.386 66.4946 37.3713 66.1467 37.4903C65.8017 37.6104 65.4989 37.826 65.2382 38.1373C64.9815 38.4467 64.7757 38.814 64.621 39.2391C64.4652 39.6671 64.3862 40.0821 64.384 40.4842C64.3847 40.8873 64.4791 41.2442 64.6673 41.5551C64.8583 41.867 65.1577 42.0972 65.5655 42.2456ZM71.6014 48.5102C71.0722 48.3176 70.642 48.0824 70.3107 47.8046C69.9824 47.5279 69.7398 47.2316 69.5829 46.9158C69.426 46.6 69.3378 46.2845 69.3181 45.9695L70.6004 45.9155C70.6322 46.0712 70.6873 46.2435 70.7659 46.4326C70.8463 46.6256 70.9809 46.8138 71.1696 46.9971C71.3612 47.1815 71.6364 47.339 71.995 47.4695C72.4866 47.6484 72.9366 47.6763 73.345 47.5531C73.7524 47.4328 74.0508 47.1124 74.2402 46.5918L74.7171 45.2817L74.6346 45.2517C74.505 45.365 74.3348 45.4815 74.1242 45.6014C73.9164 45.7223 73.6621 45.8 73.3613 45.8347C73.0605 45.8693 72.7062 45.8124 72.2984 45.664C71.7721 45.4724 71.3425 45.1768 71.0097 44.7773C70.6809 44.376 70.4815 43.8891 70.4114 43.3166C70.3454 42.7424 70.4413 42.1009 70.6991 41.3924C70.957 40.6838 71.2981 40.1202 71.7224 39.7015C72.1495 39.2838 72.6231 39.0173 73.1433 38.902C73.6644 38.7838 74.1926 38.8221 74.7276 39.0169C75.1411 39.1674 75.4499 39.3584 75.6539 39.5898C75.8589 39.8184 75.9991 40.0495 76.0745 40.2833C76.1528 40.5181 76.2057 40.7192 76.2333 40.8864L76.3287 40.9212L76.7219 39.841L77.9929 40.3036L75.514 47.1144C75.3056 47.687 75.0015 48.1085 74.6018 48.379C74.202 48.6494 73.743 48.7902 73.2247 48.8014C72.7094 48.8136 72.1683 48.7165 71.6014 48.5102ZM72.9763 44.6923C73.3494 44.8281 73.6962 44.8561 74.0167 44.7762C74.3412 44.6946 74.6295 44.5145 74.8814 44.2362C75.1374 43.9559 75.349 43.5859 75.5164 43.1261C75.6795 42.6778 75.7567 42.2588 75.7479 41.8691C75.7391 41.4795 75.6407 41.1423 75.4528 40.8578C75.2659 40.5703 74.983 40.3577 74.6042 40.2198C74.2137 40.0777 73.8516 40.0605 73.5176 40.1682C73.1847 40.273 72.8891 40.4733 72.6308 40.769C72.3754 41.0658 72.1703 41.4267 72.0156 41.8519C71.8566 42.2886 71.7837 42.696 71.7967 43.0741C71.8097 43.4522 71.9127 43.7812 72.1056 44.061C72.3014 44.3419 72.5917 44.5523 72.9763 44.6923ZM81.838 39.1878L78.6044 48.0721L77.3073 47.6L80.5409 38.7157L81.838 39.1878ZM83.1722 49.887C82.5157 49.648 82.0014 49.302 81.6292 48.8488C81.2609 48.3938 81.0413 47.8635 80.9702 47.258C80.903 46.6506 80.9953 46.0012 81.2468 45.31C81.4953 44.6275 81.8415 44.0723 82.2854 43.6444C82.7323 43.2175 83.2388 42.9417 83.8049 42.8169C84.374 42.6933 84.968 42.744 85.5869 42.9693C85.9628 43.1061 86.3046 43.301 86.6122 43.5537C86.9197 43.8065 87.1654 44.117 87.349 44.4852C87.5327 44.8533 87.6282 45.2795 87.6354 45.7635C87.6437 46.2447 87.5378 46.7875 87.3178 47.392L87.1504 47.8518L81.8537 45.9239L82.2073 44.9522L86.2331 46.4174C86.3573 46.0762 86.3979 45.7487 86.3548 45.435C86.3129 45.1184 86.194 44.8377 85.9981 44.5928C85.8052 44.349 85.541 44.1661 85.2055 44.044C84.8411 43.9113 84.4904 43.8852 84.1533 43.9656C83.8201 44.0441 83.5277 44.1997 83.276 44.4323C83.0282 44.6631 82.8438 44.9448 82.7227 45.2774L82.4464 46.0365C82.2843 46.4819 82.2245 46.8892 82.267 47.2583C82.3124 47.6286 82.4468 47.9477 82.6702 48.2157C82.8947 48.4808 83.1963 48.6823 83.5752 48.8202C83.821 48.9097 84.0578 48.9566 84.2855 48.9608C84.5143 48.9622 84.7282 48.9189 84.9272 48.8309C85.1263 48.7428 85.3028 48.6089 85.4567 48.4291L86.6038 49.0972C86.3739 49.4229 86.0822 49.6754 85.7288 49.8546C85.3793 50.032 84.9863 50.1264 84.5498 50.1378C84.1173 50.1474 83.6581 50.0638 83.1722 49.887ZM91.6066 52.8046L90.1837 52.2867L96.6145 44.566L98.1632 45.1297L98.1268 55.1777L96.7039 54.6598L96.8384 46.475L96.769 46.4497L91.6066 52.8046ZM93.1115 49.4123L97.7272 51.0923L97.3167 52.2202L92.701 50.5402L93.1115 49.4123ZM101.645 56.6057C101.107 56.4099 100.677 56.0978 100.355 55.6694C100.037 55.2391 99.8507 54.7244 99.797 54.1251C99.7472 53.524 99.8534 52.8634 100.115 52.1433C100.378 51.4232 100.722 50.8508 101.148 50.4263C101.577 50.0028 102.053 49.732 102.574 49.6139C103.095 49.4957 103.623 49.534 104.158 49.7287C104.572 49.8792 104.879 50.0697 105.08 50.3001C105.285 50.5286 105.424 50.7593 105.496 50.992C105.572 51.2258 105.623 51.4263 105.651 51.5935L105.729 51.6219L106.93 48.3207L108.228 48.7928L104.994 57.6771L103.727 57.2161L104.105 56.1793L103.996 56.1398C103.866 56.2531 103.695 56.374 103.481 56.5025C103.27 56.6321 103.013 56.7185 102.709 56.7618C102.405 56.8051 102.05 56.7531 101.645 56.6057ZM102.334 55.6037C102.707 55.7395 103.058 55.7559 103.387 55.6529C103.72 55.5481 104.017 55.3435 104.279 55.0391C104.543 54.7357 104.761 54.3498 104.931 53.8813C105.1 53.4186 105.18 52.9895 105.174 52.594C105.167 52.1985 105.07 51.8571 104.883 51.5696C104.696 51.2822 104.414 51.0695 104.035 50.9316C103.644 50.7895 103.282 50.7723 102.948 50.88C102.614 50.9877 102.317 51.1923 102.057 51.4939C101.799 51.7964 101.59 52.1675 101.43 52.6071C101.268 53.0525 101.189 53.4772 101.193 53.8814C101.196 54.2855 101.29 54.6391 101.475 54.942C101.663 55.2432 101.95 55.4637 102.334 55.6037ZM113.671 55.1318L112.42 54.9121C112.426 54.7439 112.4 54.5723 112.342 54.3974C112.287 54.2236 112.186 54.0607 112.039 53.9086C111.891 53.7566 111.682 53.6317 111.414 53.5338C111.046 53.4001 110.71 53.3709 110.404 53.4463C110.099 53.5188 109.9 53.6837 109.806 53.9411C109.725 54.1638 109.742 54.3731 109.858 54.569C109.973 54.765 110.199 54.9731 110.534 55.1936L111.504 55.8218C112.066 56.1866 112.443 56.5713 112.637 56.9758C112.83 57.3802 112.841 57.8182 112.669 58.2896C112.524 58.6887 112.279 59.0023 111.934 59.2304C111.593 59.4567 111.185 59.5833 110.71 59.6103C110.238 59.6383 109.733 59.5544 109.195 59.3586C108.449 59.087 107.898 58.7064 107.543 58.2167C107.188 57.7241 107.065 57.1633 107.172 56.5344L108.495 56.7998C108.455 57.155 108.525 57.4607 108.707 57.7169C108.89 57.9702 109.177 58.1678 109.567 58.3099C109.992 58.4647 110.364 58.5002 110.683 58.4164C111.003 58.3297 111.209 58.1577 111.303 57.9003C111.379 57.692 111.364 57.4886 111.26 57.2901C111.158 57.0926 110.961 56.8998 110.669 56.7117L109.632 56.0539C109.061 55.6859 108.684 55.293 108.498 54.8751C108.316 54.4583 108.311 54.0127 108.484 53.5384C108.627 53.1451 108.862 52.8409 109.189 52.626C109.516 52.411 109.904 52.2916 110.351 52.2678C110.8 52.2411 111.274 52.3188 111.775 52.5009C112.495 52.763 113.005 53.1255 113.305 53.5884C113.606 54.0483 113.728 54.5628 113.671 55.1318Z" fill="#E5E5E7"/>
<defs>
<linearGradient id="paint0_linear_287_5304" x1="73.8125" y1="0" x2="73.8125" y2="36" gradientUnits="userSpaceOnUse">
<stop stop-color="white" stop-opacity="0.5"/>
<stop offset="1" stop-color="white" stop-opacity="0.1"/>
</linearGradient>
<linearGradient id="paint1_linear_287_5304" x1="73.8125" y1="0" x2="73.8125" y2="36" gradientUnits="userSpaceOnUse">
<stop stop-color="white"/>
<stop offset="1" stop-color="white" stop-opacity="0.4"/>
</linearGradient>
<clipPath id="clip0_287_5304">
<rect width="29" height="29" fill="white" transform="translate(20.5117 6.70923) rotate(20)"/>
</clipPath>
</defs>
</svg>
