<svg width="146" height="46" viewBox="0 0 146 46" fill="none" xmlns="http://www.w3.org/2000/svg">
<path fill-rule="evenodd" clip-rule="evenodd" d="M28.147 27.5871V30.3547L21.4824 23.7231L22.8737 22.3381L28.147 27.5871ZM30.9279 30.3547H28.147L34.8107 36.9863L36.2028 35.6013L30.9279 30.3547ZM46.7453 25.1081L48.1358 23.7231L34.8083 10.46L33.4203 11.8482L38.6927 17.0948H35.5068L31.8257 13.4398L30.4352 14.8248L32.7234 17.102H31.124V27.3966H41.4688V25.8051L43.7579 28.0831L45.1499 26.6981L41.4688 23.0359V19.8648L46.7453 25.1081ZM28.8406 16.4051L27.4461 17.7909L28.9395 19.2764L30.3307 17.8914L28.8414 16.4059L28.8406 16.4051ZM40.6764 28.1828L39.2859 29.5678L40.7776 31.0533L42.1697 29.6683L40.6764 28.1828ZM25.8563 19.3744L24.4643 20.7594L28.1454 24.4217V21.6525L25.8563 19.3744ZM36.8956 30.3604H34.1147L37.795 34.0226L39.1862 32.6376L36.8956 30.3604Z" fill="#F7F8F8"/>
<path d="M122.544 30.3388C121.647 30.3388 120.945 30.0968 120.444 29.6105C119.942 29.1242 119.692 28.4481 119.692 27.5929V22.2876H118.082V20.3013H119.701L119.989 17.6487H121.885V20.3013H124.361V22.2908H121.885V27.3043C121.88 27.5788 121.982 27.8445 122.171 28.0438C122.268 28.1459 122.385 28.2261 122.516 28.2788C122.646 28.3315 122.786 28.3555 122.927 28.3493H124.361V30.3388H122.544ZM112.86 30.526C111.663 30.526 110.701 30.2423 109.972 29.674C109.249 29.1121 108.753 28.3085 108.574 27.4104H110.953C111.057 27.7553 111.289 28.0478 111.6 28.2303C111.982 28.4503 112.419 28.5578 112.86 28.5406C114.129 28.5406 114.767 28.1869 114.767 27.5037C114.767 27.1636 114.567 26.9032 114.168 26.7239C113.704 26.5261 113.219 26.3821 112.722 26.2947C112.146 26.1835 111.576 26.044 111.014 25.8767C110.441 25.7089 109.933 25.3728 109.554 24.9121C109.158 24.4403 108.959 23.8197 108.957 23.0512C108.951 22.6469 109.039 22.2467 109.214 21.8819C109.388 21.5171 109.645 21.1977 109.963 20.9484C110.636 20.3898 111.569 20.1108 112.763 20.1124C113.955 20.1124 114.903 20.3777 115.605 20.9082C116.304 21.4323 116.784 22.1952 116.955 23.0512H114.571C114.317 22.4235 113.718 22.1027 112.769 22.1019C111.751 22.1019 111.243 22.4178 111.243 23.0504C111.245 23.1958 111.286 23.338 111.361 23.4624C111.436 23.5867 111.543 23.6887 111.671 23.7578C111.998 23.9542 112.361 24.0833 112.738 24.1372C113.21 24.2176 113.677 24.3245 114.136 24.4587C114.613 24.5946 115.08 24.761 115.535 24.9571C115.978 25.1563 116.353 25.4811 116.613 25.8912C116.915 26.3719 117.065 26.9318 117.045 27.4988C117.055 27.9209 116.963 28.3391 116.777 28.7182C116.592 29.0982 116.318 29.4283 115.979 29.6812C115.27 30.2439 114.231 30.5252 112.86 30.526ZM105.764 21.1164C105.031 20.4597 104.004 20.1317 102.682 20.1317C101.629 20.1317 100.746 20.4131 100.032 20.9782C99.3291 21.5277 98.8321 22.2987 98.6218 23.1662H100.871C100.986 22.8382 101.204 22.5553 101.494 22.3616C101.845 22.1271 102.262 22.0101 102.684 22.0272C103.303 22.0272 103.79 22.1863 104.147 22.5014C104.327 22.669 104.469 22.8744 104.561 23.103C104.653 23.3315 104.694 23.5777 104.68 23.8237V24.3028H102.103C100.918 24.3028 99.9874 24.6002 99.3106 25.1959C98.9881 25.4704 98.7304 25.8129 98.556 26.1989C98.3816 26.5848 98.2948 27.0046 98.3019 27.4281C98.2897 27.8468 98.3673 28.2634 98.5297 28.6495C98.6921 29.0357 98.9353 29.3826 99.2431 29.6668C99.8692 30.256 100.699 30.551 101.731 30.551C102.371 30.5656 103.004 30.4191 103.573 30.1249C104.029 29.9032 104.415 29.56 104.688 29.133H104.781L104.968 30.3709H106.871V23.8277C106.867 22.6791 106.498 21.7756 105.764 21.1164ZM104.682 26.478C104.695 26.776 104.641 27.0731 104.526 27.3482C104.411 27.6233 104.236 27.8696 104.015 28.0695C103.574 28.4602 102.97 28.6563 102.206 28.6563C101.649 28.6563 101.224 28.5293 100.93 28.2818C100.788 28.1666 100.674 28.0206 100.597 27.8549C100.52 27.6891 100.482 27.5079 100.486 27.3252C100.486 26.441 101.067 26.0021 102.206 26.0021H104.682V26.478ZM92.5914 30.5478C91.1479 30.5478 89.9938 30.0864 89.1297 29.1652C88.2665 28.2424 87.8341 26.9667 87.8325 25.3373C87.8325 23.712 88.2633 22.4371 89.1249 21.5143C89.9857 20.5915 91.1415 20.1301 92.5914 20.1317C93.7697 20.1317 94.7454 20.4436 95.5202 21.069C96.2796 21.6712 96.8215 22.505 97.0634 23.4435H94.8805C94.6651 23.0279 94.3354 22.6825 93.9303 22.4481C93.5252 22.2136 93.0614 22.1 92.5938 22.1204C92.2386 22.108 91.8854 22.1774 91.5612 22.3232C91.2371 22.4689 90.9508 22.6872 90.7243 22.9612C90.2501 23.5239 90.013 24.3157 90.013 25.3373C90.013 26.3598 90.2501 27.1524 90.7243 27.7143C90.9498 27.9895 91.2359 28.2089 91.5602 28.3553C91.8845 28.5018 92.2383 28.5712 92.5938 28.5583C93.0615 28.578 93.5251 28.4638 93.9301 28.2292C94.3352 27.9945 94.6649 27.6491 94.8805 27.2336H97.0634C96.8224 28.1732 96.2804 29.008 95.5202 29.6105C94.747 30.2351 93.7705 30.5478 92.5914 30.5478ZM79.7172 34.1537L81.2403 30.3621L77.1509 20.3247H79.53L82.29 27.4281H82.3824L85.1464 20.3247H87.5255L82.0022 34.1537H79.7172ZM75.095 21.1164C74.3612 20.4597 73.334 20.1317 72.0127 20.1317C70.9598 20.1317 70.074 20.4131 69.3635 20.9782C68.6596 21.5273 68.1622 22.2984 67.9522 23.1662H70.2026C70.3152 22.8374 70.5338 22.5553 70.8239 22.3616C71.1755 22.1266 71.5926 22.0095 72.0151 22.0272C72.6331 22.0272 73.121 22.1855 73.4779 22.5014C73.6589 22.6687 73.8006 22.8741 73.8927 23.1027C73.9849 23.3314 74.0252 23.5776 74.0107 23.8237V24.3028H71.4332C70.2485 24.3028 69.3177 24.6002 68.6418 25.1959C68.3188 25.47 68.0607 25.8124 67.8861 26.1985C67.7115 26.5845 67.6248 27.0045 67.6323 27.4281C67.6195 27.8466 67.6966 28.263 67.8584 28.6492C68.0202 29.0354 68.2629 29.3824 68.5703 29.6668C69.1964 30.256 70.025 30.551 71.0586 30.551C71.6981 30.5656 72.3311 30.4191 72.8992 30.1249C73.3557 29.9034 73.7423 29.5602 74.0164 29.133H74.108L74.2944 30.3709H76.1945V23.8277C76.1945 22.6791 75.828 21.7756 75.095 21.1164ZM74.0091 26.478C74.0225 26.7761 73.9697 27.0735 73.8543 27.3487C73.7389 27.6239 73.564 27.8701 73.342 28.0695C72.9016 28.461 72.2988 28.6563 71.5336 28.6563C70.9766 28.6563 70.5482 28.5309 70.2573 28.2818C70.1153 28.1667 70.0015 28.0207 69.9244 27.8549C69.8474 27.6891 69.8092 27.508 69.8128 27.3252C69.8185 26.4442 70.3915 26.0037 71.5328 26.0021H74.0083L74.0091 26.478ZM62.7488 25.3381C63.088 25.2481 63.4159 25.1195 63.7262 24.9563C64.088 24.759 64.4267 24.5217 64.7357 24.2489C65.1085 23.9075 65.3964 23.4836 65.5764 23.0111C65.7926 22.4564 65.8987 21.8656 65.8898 21.2708C65.8898 20.0087 65.4855 18.9959 64.6754 18.2363C63.8644 17.4759 62.8107 17.0965 61.5119 17.0989H55.9902V30.3621H58.3693V25.441H60.1753L63.6048 30.3621H66.2708L62.7488 25.3381ZM58.3693 23.343V19.1872H61.3182C61.9933 19.1872 62.5262 19.3697 62.9176 19.7338C63.3082 20.098 63.5043 20.6084 63.5076 21.2651C63.5076 21.9219 63.3098 22.4339 62.9136 22.8004C62.4777 23.1776 61.9131 23.3719 61.3375 23.343H58.3693Z" fill="#F7F8F8"/>
</svg>
