<svg width="92" height="22" viewBox="0 0 92 22" fill="none" xmlns="http://www.w3.org/2000/svg">
<path d="M46.099 5.36516C42.5443 5.36516 39.9811 7.71555 39.9811 11.2415C39.9811 14.7667 42.8657 17.1171 46.4203 17.1171C48.5681 17.1171 50.4619 16.2557 51.6334 14.8029L49.1699 13.3597C48.5191 14.0813 47.5308 14.5023 46.4203 14.5023C44.8784 14.5023 43.5679 13.6859 43.0818 12.381H52.1035C52.1742 12.0145 52.216 11.6361 52.216 11.2375C52.216 7.71555 49.6528 5.36516 46.099 5.36516ZM43.0529 10.0981C43.4547 8.79632 44.5562 7.9767 46.0957 7.9767C47.6376 7.9767 48.7392 8.79632 49.1378 10.0981H43.0529ZM80.7673 5.36516C77.2127 5.36516 74.6503 7.71555 74.6503 11.2415C74.6503 14.7667 77.5349 17.1171 81.0895 17.1171C83.2365 17.1171 85.1295 16.2557 86.3018 14.8029L83.8391 13.3597C83.1883 14.0813 82.2 14.5023 81.0895 14.5023C79.5468 14.5023 78.2363 13.6859 77.7502 12.381H86.7718C86.8426 12.0145 86.8843 11.6361 86.8843 11.2375C86.8843 7.71555 84.322 5.36516 80.7673 5.36516ZM77.7245 10.0981C78.1271 8.79632 79.2286 7.9767 80.7673 7.9767C82.3092 7.9767 83.4108 8.79632 83.8102 10.0981H77.7245ZM65.1586 11.2407C65.1586 13.1998 66.4209 14.5055 68.3783 14.5055C69.7048 14.5055 70.6995 13.8948 71.2114 12.8992L73.6845 14.3456C72.6601 16.0757 70.7413 17.1171 68.3783 17.1171C64.8204 17.1171 62.2612 14.7667 62.2612 11.2407C62.2612 7.71555 64.8236 5.36516 68.3783 5.36516C70.7413 5.36516 72.6569 6.40656 73.6845 8.13741L71.2114 9.583C70.6995 8.58659 69.7048 7.9767 68.3783 7.9767C66.4241 7.9767 65.1586 9.28166 65.1586 11.2407ZM91.7141 1.7749V16.7908H88.8159V1.7733H91.7141V1.7749ZM12.586 0.14209L24.4825 21.0344H0.689453L12.586 0.14209ZM42.3282 1.7741L33.407 17.4433L24.4858 1.7741H27.8307L33.407 11.5678L38.9832 1.7741H42.3282ZM61.2954 5.6914V8.85498C60.9614 8.75204 60.6141 8.69791 60.2646 8.69427C58.394 8.69427 57.045 10.0008 57.045 11.9591V16.7908H54.1476V5.6914H57.045V8.69507C57.045 7.03655 58.9484 5.6914 61.2954 5.6914Z" fill="#F7F8F8"/>
</svg>
