<svg width="91" height="22" viewBox="0 0 91 22" fill="none" xmlns="http://www.w3.org/2000/svg">
<path fill-rule="evenodd" clip-rule="evenodd" d="M38.7402 10.4404C38.9957 9.2424 39.8209 8.63256 40.9065 8.63256C41.9815 8.63256 42.7682 9.26972 43.0196 10.4404H38.7402ZM40.9651 6.55795C38.2027 6.55795 36.484 8.69041 36.484 11.2993C36.484 14.0014 38.32 16.0053 41.0495 16.0053C42.9313 16.0053 44.073 15.1641 44.7793 14.1051L43.0237 13.0212C42.5817 13.6045 41.8747 13.9131 41.1178 13.9131C39.878 13.9131 39.048 13.3522 38.7651 12.2306H43.4029L43.4013 12.2354L45.0919 12.245C45.1562 11.9493 45.1939 11.6448 45.1939 11.3001C45.1939 9.02787 43.7452 6.55876 40.9659 6.55876L40.9651 6.55795ZM30.3156 13.8737C28.7897 13.8737 27.8729 12.7801 27.8729 11.4311C27.8729 10.0812 28.8074 8.9877 30.3156 8.9877C31.8229 8.9877 32.7582 10.0812 32.7582 11.4303C32.7582 12.7802 31.8406 13.8737 30.3156 13.8737ZM32.7582 8.09984C32.1041 7.3285 31.1761 6.85605 30.0247 6.85605C27.4495 6.85605 25.5974 8.90494 25.5974 11.4311C25.5974 13.9573 27.4326 16.0053 30.0247 16.0053C31.1761 16.0053 32.1041 15.5329 32.7574 14.7615V15.7804H35.0329V3.65094H32.7574L32.7582 8.09984ZM52.0052 11.0928C52.6407 11.5267 53.0441 12.1799 53.0441 13.0405C53.0441 14.7808 51.8469 15.9877 49.6067 15.9877C47.4991 15.9877 46.3686 14.9303 45.9187 13.8624L47.8535 12.7569C47.8535 12.7569 48.1138 13.9107 49.5722 13.9107C50.4745 13.9107 50.7525 13.5202 50.7525 13.1755C50.7525 13.0148 50.7003 12.7215 50.0583 12.4724C48.7679 11.9735 46.2738 11.7493 46.2738 9.4722C46.2738 7.60811 47.7659 6.6142 49.6067 6.6142C51.3278 6.6142 52.4334 7.66275 52.8528 8.47829L50.9606 9.56138C50.9606 9.56138 50.5966 8.65586 49.6244 8.65586C48.6522 8.65586 48.5654 9.20624 48.5654 9.36614C48.5654 9.83216 49.0507 10.0234 50.0928 10.3247C50.7099 10.5031 51.3439 10.6654 52.0068 11.0904L52.0052 11.0928ZM90.189 9.06322H88.2268V12.756C88.2268 13.9099 89.3726 13.6616 90.189 13.6616V15.7386C90.189 15.7386 89.7591 15.8093 89.0086 15.8093C87.3422 15.8093 85.9875 15.3119 85.9875 12.756V9.06322H84.4769V6.86167H85.9875V4.37649H88.2268V6.86167H90.189V9.06322ZM58.6115 13.75C59.5412 13.75 60.2555 13.2968 60.617 12.5528L62.5583 13.6913C61.7974 15.0556 60.38 16.0045 58.6115 16.0045C55.9294 16.0045 54.0549 13.9066 54.0549 11.3178C54.0549 8.72978 55.9471 6.63107 58.6115 6.63107C60.3543 6.63107 61.766 7.56472 62.535 8.91056L60.5978 10.0756C60.2298 9.34123 59.5211 8.88646 58.6115 8.88646C57.2568 8.88646 56.2942 9.97438 56.2942 11.3178C56.2942 12.6612 57.248 13.75 58.6115 13.75ZM79.1087 14.1437C77.6383 14.1437 76.7537 13.0212 76.7537 11.636C76.7537 10.2508 77.6552 9.12911 79.1087 9.12911C80.5623 9.12911 81.4638 10.2508 81.4638 11.636C81.4638 13.0212 80.5799 14.1437 79.1087 14.1437ZM79.3892 6.94041C81.872 6.94041 83.6573 9.04314 83.6573 11.636C83.6573 14.2288 81.8888 16.3308 79.3892 16.3308C78.2787 16.3308 77.3844 15.8463 76.7537 15.0548V19.6387H74.5601V7.18949H76.7537V8.21715C77.3844 7.42572 78.2787 6.94041 79.3892 6.94041ZM70.3434 16.1002V7.20797H72.5369V16.1002H70.3434ZM66.256 8.72656C66.6794 7.64909 67.5416 7.03281 68.84 7.0296V9.59111C67.3174 9.44006 66.2174 10.2323 66.2576 12.1028L66.256 12.0988V16.1002H64.0624V7.20797H66.256V8.72656ZM70.3434 6.02122V3.65094H72.6092V6.02122H70.3434ZM0.197266 19.8645C0.197266 21.0504 0.954161 21.8194 2.12084 21.8194H7.7405C11.0927 21.8194 13.8358 20.6664 15.6999 18.648H0.197266V19.8645ZM7.7405 0.125244H2.12084C0.954161 0.125244 0.197266 0.894181 0.197266 2.08013V3.2966H15.6999C13.8358 1.27825 11.0927 0.125244 7.7405 0.125244ZM12.645 14.0633C12.645 15.0227 13.2597 15.6454 14.2078 15.6454H17.5745C17.957 14.682 18.2133 13.6238 18.3322 12.4821H14.2078C13.2597 12.4821 12.645 13.104 12.645 14.0633ZM7.97673 7.88933C7.97673 8.84869 8.5922 9.47059 9.54033 9.47059H18.3322C18.2257 8.38651 17.971 7.32215 17.5753 6.30727H9.54033C8.5922 6.30727 7.97673 6.92997 7.97673 7.88933ZM9.53872 14.0633C9.53872 13.104 8.92405 12.4821 7.97592 12.4821H0.197266V15.6454H7.97592C8.92405 15.6454 9.53872 15.0227 9.53872 14.0633ZM4.87121 7.88933C4.87121 6.92997 4.25654 6.30727 3.30841 6.30727H0.197266V9.47059H3.30841C4.25654 9.47059 4.87121 8.84869 4.87121 7.88933Z" fill="#F7F8F8"/>
</svg>
