<svg width="145" height="44" viewBox="0 0 145 44" fill="none" xmlns="http://www.w3.org/2000/svg">
<path d="M62.3226 19.1436C62.2323 19.1982 62.1249 19.2171 62.0213 19.1968C61.9178 19.1764 61.8255 19.1182 61.7626 19.0335C61.4539 18.5907 61.0398 18.2319 60.5576 17.9893C60.0754 17.7467 59.5404 17.6281 59.0009 17.6442C56.8965 17.6442 55.6053 19.3067 55.6053 21.6794C55.6053 24.053 56.9198 25.7468 59.0242 25.7468C59.5708 25.7596 60.1117 25.6331 60.5958 25.3791C61.08 25.125 61.4915 24.7519 61.7915 24.2948C61.8512 24.2088 61.9411 24.1483 62.0434 24.1253C62.1456 24.1024 62.2527 24.1188 62.3435 24.1711L63.3431 24.7496C63.3976 24.7771 63.4456 24.8161 63.4837 24.8638C63.5218 24.9115 63.5491 24.9669 63.5639 25.0262C63.5786 25.0855 63.5803 25.1472 63.569 25.2073C63.5576 25.2673 63.5335 25.3241 63.4981 25.3739C63.0093 26.1056 62.3426 26.7012 61.5606 27.1048C60.7787 27.5085 59.9071 27.7069 59.0274 27.6816C55.6632 27.6816 53.3828 25.2454 53.3828 21.6931C53.3828 18.1408 55.6632 15.7359 58.9768 15.7359C59.8418 15.7121 60.6995 15.9 61.4752 16.2835C62.2509 16.6669 62.9211 17.2342 63.4274 17.9359C63.4622 17.9832 63.4869 18.0371 63.5 18.0943C63.513 18.1515 63.5141 18.2107 63.5033 18.2684C63.4924 18.3261 63.4698 18.3809 63.4369 18.4294C63.4039 18.478 63.3613 18.5192 63.3117 18.5506L62.3226 19.1436ZM69.6771 27.0372V26.5551C69.1508 27.2317 68.4172 27.6519 67.236 27.6519C65.4892 27.6519 64.2767 26.6989 64.2767 25.0268C64.2767 22.945 66.1369 22.5874 67.2835 22.4275C68.5144 22.2491 69.5638 22.1647 69.5638 21.3612C69.5638 20.6501 68.7402 20.4581 68.0436 20.4581C67.2435 20.4713 66.4575 20.6699 65.7472 21.0382C65.6979 21.0649 65.6437 21.0815 65.5879 21.0868C65.5321 21.0921 65.4758 21.0862 65.4224 21.0693C65.3689 21.0525 65.3194 21.025 65.2768 20.9886C65.2341 20.9522 65.1993 20.9076 65.1743 20.8574L64.8135 20.1062C64.7656 20.0089 64.7569 19.897 64.7892 19.7935C64.8215 19.69 64.8923 19.6029 64.987 19.5501C65.9818 19.0214 67.0906 18.7436 68.2171 18.741C70.2211 18.741 71.636 19.563 71.636 21.5509V27.0372C71.6361 27.0924 71.6254 27.1471 71.6043 27.1981C71.5832 27.2492 71.5522 27.2955 71.5132 27.3346C71.4741 27.3736 71.4278 27.4046 71.3768 27.4257C71.3257 27.4467 71.271 27.4575 71.2158 27.4574H70.1158C70.0591 27.4598 70.0025 27.4507 69.9494 27.4307C69.8964 27.4106 69.8479 27.3801 69.8069 27.3408C69.7659 27.3016 69.7333 27.2544 69.711 27.2023C69.6887 27.1501 69.6772 27.0939 69.6771 27.0372ZM69.5638 23.2439C69.1773 23.5355 68.4646 23.6328 67.7045 23.7685C66.9436 23.9051 66.3128 24.1076 66.3128 24.932C66.3128 25.6905 66.8624 26.0449 67.6571 26.0449C68.643 26.0449 69.5638 25.4961 69.5638 24.2209V23.2439ZM73.4431 25.284C73.5142 25.2013 73.6145 25.1495 73.723 25.1393C73.8315 25.1291 73.9397 25.1614 74.0249 25.2293C74.7284 25.7593 75.5901 26.0368 76.4707 26.0168C77.3787 26.0168 78.0488 25.7259 78.0488 25.0172C78.0488 24.3712 77.4333 24.2426 75.9444 23.9823C74.3664 23.7195 72.8566 23.1948 72.8566 21.399C72.8566 19.5268 74.4748 18.737 76.3181 18.737C77.4739 18.7199 78.6023 19.0896 79.5241 19.7872C79.5692 19.8221 79.6067 19.866 79.6343 19.916C79.6619 19.966 79.6789 20.0211 79.6843 20.078C79.6897 20.1348 79.6834 20.1922 79.6658 20.2465C79.6482 20.3008 79.6197 20.351 79.5819 20.3938L79.0564 21.0101C78.9867 21.093 78.8879 21.146 78.7803 21.1583C78.6727 21.1705 78.5645 21.1411 78.4779 21.076C77.8293 20.6024 77.0447 20.3518 76.2417 20.3617C75.4663 20.3617 74.7874 20.5875 74.7874 21.1997C74.7874 21.8795 75.7395 22.0081 76.6941 22.1712C78.7326 22.5247 80.0271 23.1057 80.0271 24.7962C80.0271 26.5712 78.604 27.6688 76.3446 27.6688C75.1099 27.7064 73.9006 27.3126 72.9249 26.5551C72.8814 26.5193 72.8454 26.4752 72.8191 26.4253C72.7928 26.3755 72.7766 26.3209 72.7715 26.2648C72.7664 26.2087 72.7725 26.1521 72.7895 26.0983C72.8064 26.0446 72.8339 25.9947 72.8702 25.9517L73.4431 25.2848V25.284ZM81.2765 27.0388V16.353C81.2765 16.2977 81.2874 16.243 81.3086 16.192C81.3297 16.141 81.3608 16.0946 81.3999 16.0556C81.439 16.0165 81.4854 15.9856 81.5365 15.9645C81.5875 15.9434 81.6423 15.9327 81.6975 15.9328H82.91C82.9653 15.9327 83.02 15.9434 83.0711 15.9645C83.1222 15.9856 83.1686 16.0165 83.2077 16.0556C83.2468 16.0946 83.2778 16.141 83.299 16.192C83.3202 16.243 83.3311 16.2977 83.3311 16.353V20.0025C83.6336 19.6005 84.0277 19.2765 84.4806 19.0574C84.9336 18.8382 85.4322 18.7303 85.9352 18.7426C87.7286 18.7426 88.7804 20.0178 88.7804 21.8401V27.0388C88.7802 27.1501 88.7359 27.2568 88.6571 27.3354C88.5783 27.4141 88.4715 27.4582 88.3602 27.4582H87.1477C87.0363 27.4582 86.9295 27.4141 86.8506 27.3355C86.7716 27.2569 86.7271 27.1502 86.7267 27.0388V22.3126C86.7267 21.407 86.4342 20.5851 85.2715 20.5851C84.1699 20.5851 83.3311 21.3596 83.3311 22.6517V27.0412C83.3308 27.1527 83.2864 27.2596 83.2075 27.3384C83.1285 27.4172 83.0216 27.4615 82.91 27.4615H81.6975C81.642 27.4619 81.5869 27.4512 81.5355 27.4301C81.4841 27.409 81.4375 27.3779 81.3983 27.3385C81.3591 27.2992 81.3281 27.2524 81.3072 27.2009C81.2863 27.1495 81.2759 27.0944 81.2765 27.0388ZM102.123 27.1762L101.251 24.6034H96.8364L95.9614 27.1762C95.9327 27.2589 95.879 27.3306 95.8077 27.3815C95.7365 27.4323 95.6512 27.4597 95.5636 27.4598H94.1406C94.0386 27.4592 93.9403 27.4218 93.8637 27.3545C93.7871 27.2872 93.7373 27.1945 93.7236 27.0935C93.7152 27.0264 93.7232 26.9583 93.7469 26.895L97.7202 16.2076C97.7526 16.1295 97.8075 16.0628 97.8779 16.016C97.9483 15.9692 98.031 15.9444 98.1156 15.9448H100.059C100.146 15.9451 100.23 15.9716 100.301 16.0209C100.371 16.0701 100.426 16.1397 100.456 16.2204L104.415 26.9054C104.451 27.0015 104.45 27.1075 104.413 27.203C104.376 27.2985 104.304 27.3769 104.213 27.4229C104.152 27.4542 104.085 27.4704 104.017 27.4703H102.516C102.428 27.4682 102.343 27.4388 102.272 27.386C102.202 27.3333 102.15 27.26 102.123 27.1762ZM99.0669 17.8065L97.3675 22.81H100.7L99.0669 17.8065ZM107.463 19.3557V20.0178C107.762 19.6051 108.159 19.2727 108.618 19.0501C109.077 18.8275 109.584 18.7216 110.093 18.7418C112.421 18.7418 113.925 20.6638 113.925 23.1812C113.925 25.6994 112.421 27.6447 110.093 27.6447C109.582 27.664 109.074 27.556 108.615 27.3305C108.156 27.105 107.76 26.769 107.463 26.3526V29.8366C107.463 29.8918 107.452 29.9464 107.431 29.9974C107.41 30.0484 107.379 30.0947 107.34 30.1338C107.301 30.1728 107.254 30.2037 107.203 30.2249C107.152 30.246 107.098 30.2568 107.043 30.2568H105.83C105.775 30.257 105.72 30.2462 105.669 30.2251C105.618 30.204 105.571 30.1731 105.532 30.134C105.493 30.095 105.462 30.0487 105.441 29.9976C105.42 29.9466 105.409 29.8919 105.409 29.8366V19.3348C105.409 19.2795 105.42 19.2248 105.441 19.1738C105.462 19.1228 105.493 19.0764 105.532 19.0374C105.571 18.9983 105.618 18.9674 105.669 18.9463C105.72 18.9253 105.775 18.9145 105.83 18.9146H107.043C107.128 18.9141 107.212 18.9402 107.283 18.9892C107.354 19.0382 107.407 19.1079 107.437 19.1886C107.457 19.2421 107.466 19.2985 107.463 19.3557ZM109.662 25.8617C111.085 25.8617 111.766 24.6484 111.766 23.1812C111.766 21.714 111.072 20.532 109.662 20.532C108.253 20.532 107.463 21.7108 107.463 23.1812C107.463 24.6516 108.213 25.8617 109.662 25.8617ZM117.248 19.3557V20.0178C117.547 19.6046 117.944 19.2719 118.403 19.0493C118.862 18.8267 119.369 18.721 119.878 18.7418C122.209 18.7418 123.713 20.663 123.713 23.1812C123.713 25.6994 122.209 27.6447 119.878 27.6447C119.367 27.6636 118.86 27.5554 118.4 27.3299C117.941 27.1045 117.545 26.7687 117.248 26.3526V29.8366C117.248 29.8918 117.237 29.9465 117.216 29.9976C117.195 30.0486 117.164 30.095 117.125 30.134C117.086 30.173 117.04 30.204 116.989 30.2251C116.937 30.2462 116.883 30.257 116.828 30.2568H115.615C115.56 30.257 115.505 30.2462 115.454 30.2251C115.403 30.204 115.357 30.1731 115.317 30.134C115.278 30.095 115.247 30.0487 115.226 29.9976C115.205 29.9466 115.194 29.8919 115.194 29.8366V19.3348C115.194 19.2795 115.205 19.2248 115.226 19.1738C115.247 19.1228 115.278 19.0764 115.317 19.0374C115.357 18.9983 115.403 18.9674 115.454 18.9463C115.505 18.9253 115.56 18.9145 115.615 18.9146H116.828C116.885 18.9141 116.941 18.9255 116.994 18.9478C117.047 18.9701 117.094 19.003 117.133 19.0445C117.173 19.0859 117.203 19.1349 117.223 19.1886C117.243 19.2423 117.251 19.2986 117.248 19.3557ZM119.449 25.8617C120.872 25.8617 121.554 24.6484 121.554 23.1812C121.554 21.714 120.859 20.532 119.449 20.532C118.04 20.532 117.248 21.7108 117.248 23.1812C117.248 24.6516 118.008 25.8617 119.449 25.8617Z" fill="#F7F8F8"/>
<path fill-rule="evenodd" clip-rule="evenodd" d="M26.9141 10.4507C24.0449 10.4507 21.7188 12.7729 21.7188 15.6368V27.764C21.7188 30.6286 24.0449 32.9501 26.9141 32.9501H38.9425C41.8109 32.9501 44.1371 30.6278 44.1371 27.764V15.6368C44.1371 12.7721 41.8117 10.4507 38.9425 10.4507H26.9141ZM36.5705 18.8188C35.7142 18.0958 34.63 17.6985 33.5092 17.6971C32.5852 17.6971 31.662 18.0024 31.662 18.8502C31.662 19.624 32.4848 19.9269 33.4972 20.299L33.7969 20.4099C35.8 21.0849 37.4496 21.9117 37.4496 23.8716C37.4496 26.0002 35.7944 27.4538 33.0866 27.6201L32.8415 28.7612C32.8189 28.8645 32.7615 28.957 32.6788 29.0231C32.5962 29.0892 32.4934 29.125 32.3876 29.1244H30.6857C30.6171 29.1225 30.5498 29.1056 30.4884 29.0749C30.427 29.0442 30.373 29.0004 30.3303 28.9467C30.2876 28.8929 30.2571 28.8305 30.2411 28.7638C30.225 28.697 30.2238 28.6276 30.2374 28.5603L30.5009 27.3566C29.4791 27.0967 28.5394 26.5828 27.7691 25.8628C27.725 25.8203 27.69 25.7693 27.6661 25.713C27.6422 25.6567 27.6298 25.5961 27.6298 25.5349C27.6298 25.4737 27.6422 25.4132 27.6661 25.3568C27.69 25.3005 27.725 25.2496 27.7691 25.2071L28.714 24.2854C28.7999 24.2009 28.9156 24.1535 29.0362 24.1535C29.1567 24.1535 29.2724 24.2009 29.3584 24.2854C30.2243 25.1098 31.3793 25.5611 32.5748 25.5421C33.8073 25.5421 34.6438 25.0198 34.6438 24.193C34.6438 23.4457 33.9584 23.195 32.6567 22.7193C32.5185 22.6687 32.3731 22.6164 32.2212 22.5594C30.5484 21.9647 28.9647 21.113 28.9647 19.1354C28.9647 16.8453 30.881 15.7284 33.1396 15.6183L33.3775 14.4564C33.4005 14.3539 33.4578 14.2622 33.5399 14.1966C33.6219 14.1311 33.7239 14.0954 33.829 14.0956H35.5252C35.5933 14.0954 35.6607 14.1104 35.7223 14.1395C35.7839 14.1686 35.8383 14.211 35.8815 14.2637C35.9248 14.3164 35.9557 14.378 35.9722 14.4441C35.9887 14.5103 35.9902 14.5792 35.9768 14.646L35.7132 15.9446C36.5766 16.2267 37.3768 16.6743 38.0691 17.2624C38.1163 17.3028 38.1546 17.3526 38.1816 17.4086C38.2086 17.4646 38.2238 17.5256 38.226 17.5878C38.2283 17.6499 38.2177 17.7118 38.1948 17.7696C38.1719 17.8275 38.1373 17.8799 38.0932 17.9237L37.2117 18.806C37.1266 18.8895 37.0129 18.9373 36.8937 18.9397C36.7745 18.942 36.6589 18.8988 36.5705 18.8188Z" fill="#F7F8F8"/>
</svg>
