<svg width="40" height="33" viewBox="0 0 40 33" fill="none" xmlns="http://www.w3.org/2000/svg">
<path d="M21.168 14.0622H18.8557V15.7574H21.1672L21.168 14.0622ZM22.2852 21.627L21.168 20.5057V17.3273H18.8557V19.0226H19.6755V21.6399H13.7126V19.0226H14.8306V14.063H13.7134V11.4449H23.7022L25.3667 13.1402V15.2591L23.8758 16.3555L25.3667 17.4768V19.3835H26.3111V21.627H22.2852ZM25.3916 3.12044V8.44179L23.1556 10.6845H17.0682L14.8314 8.44179V3.12044H13.7142V0.503174H19.8507V3.12044H18.8814V8.08007H22.2981V3.12044H21.4662V0.503174H26.336V3.12044H25.3796M32.2748 3.12044V4.86475H35.7035V3.12044H32.2748ZM38.1139 6.64684H32.2748V8.05515H33.355V10.6724H27.118V8.05515H28.2368V3.11964H27.1188V0.503174H37.9274L39.7286 2.24748V5.03918L38.1139 6.63478M37.4428 21.627H29.7647L27.1188 19.0097V14.0501L29.7647 11.4328H35.8152L36.5603 12.3926L37.3062 11.4449H39.7286V15.7325H36.5603V14.0501H31.2436V19.0347H36.5603V17.3273H39.7286V19.3835L37.4428 21.627ZM25.218 32.6186H13.7134V30.0021H14.8314V25.0545H13.7142V22.4373H19.9753V25.0545H18.8557V30.0142H23.1798V26.7241H26.3352V31.4104L25.218 32.6186ZM38.6106 32.6186H27.106V30.0021H28.1999V25.0545H27.1068V22.4373H33.3429V25.0545H32.225V30.0142H36.5731V26.7241H39.7286V31.4104L38.6106 32.6186ZM10.9807 10.6853H3.94803L3.11617 9.7874L2.37111 10.6853H0.345703V7.56883H3.17806V8.44099H8.48269V6.98284H2.17179L0.345703 5.27631V2.78444L2.45791 0.503174H8.76882L9.60149 1.40025L10.3465 0.503174H12.372V3.61882H9.51468V2.74666H4.74373V4.21767H10.9059L12.9683 6.17338V8.54146L10.9807 10.6853ZM11.8246 21.627H0.345703V19.0097H1.46369V14.0879H0.345703V11.4706H11.8254L12.9426 12.7166V16.2068L9.78796 16.2309V14.0879H5.48879V15.583H7.35265V17.4776H5.48879V19.0234H9.78796V16.9045H12.9434V20.3939L11.8254 21.6399M11.8254 32.6073H0.345703V29.99H1.46369V25.0545H0.345703V22.4381H11.8254L12.9426 23.684V27.1734H9.78796V25.0553H5.48879V26.5882H7.35265V28.4571H5.48879V30.0407H9.78796V27.9218H12.9434V31.4104L11.8254 32.6563" fill="#F7F8F8"/>
</svg>
