<svg width="95" height="22" viewBox="0 0 95 22" fill="none" xmlns="http://www.w3.org/2000/svg">
<path d="M16.246 16.9845H16.5125V21.7714H15.7288C10.6352 21.7714 7.68875 18.8774 7.68875 14.1374V11.6971L9.35007 11.2747C9.83585 11.1495 10.2747 10.8993 10.6195 10.5394C10.9643 10.1796 11.1994 9.726 11.3091 9.24105C11.4188 8.7561 11.3718 8.23988 11.1994 7.77053C11.027 7.30125 10.7292 6.89452 10.3374 6.58167C9.94564 6.26882 9.47545 6.08104 8.97392 6.03418C8.4724 5.98723 7.97086 6.06545 7.53203 6.28441C7.07752 6.50345 6.70137 6.84757 6.43493 7.26998C6.1685 7.69232 6.02744 8.17727 6.02744 8.67789V19.112H0.871094V8.50579C0.871094 8.19294 0.886766 7.86442 0.933784 7.55157C1.41964 3.78153 4.71093 0.871826 8.69181 0.871826C12.3121 0.871826 15.3527 3.26523 16.246 6.51905C16.7162 8.22421 16.5595 10.0389 15.8229 11.6501C15.1959 13.0111 14.1772 14.1531 12.9077 14.9352C13.3465 16.6716 14.2399 16.9845 16.246 16.9845ZM29.0036 7.7862V10.7115H28.5177C27.5147 10.7115 26.7311 10.9931 26.1669 11.5406C25.6027 12.0881 25.3206 12.839 25.3206 13.7933V19.0651H22.4838V7.9583H25.3206V9.39748C26.1669 8.3181 27.2326 7.7862 28.5177 7.7862H29.0036ZM41.1813 14.5442H32.577C32.7494 15.2168 33.1569 15.8112 33.7211 16.218C34.3167 16.6404 35.0376 16.8593 35.7586 16.8281C36.3698 16.8281 36.981 16.7029 37.5296 16.437C38.0311 16.218 38.4699 15.8738 38.7991 15.4514L40.6955 17.1097C40.0999 17.8136 39.3476 18.3767 38.5013 18.7522C37.6079 19.1433 36.6362 19.3466 35.6488 19.331C34.5518 19.3466 33.4547 19.0807 32.4829 18.5645C31.5582 18.0796 30.806 17.3443 30.2731 16.4526C29.7559 15.5453 29.4738 14.5285 29.4738 13.496C29.4738 12.4636 29.7402 11.4311 30.2417 10.5238C30.7433 9.64779 31.4799 8.9282 32.3732 8.44325C33.2979 7.94263 34.3323 7.67672 35.3824 7.69232C37.0437 7.69232 38.4386 8.23988 39.5514 9.35053C40.6641 10.4612 41.2284 11.8535 41.2284 13.5273C41.2597 13.8715 41.2284 14.2 41.1813 14.5442ZM37.1848 10.8054C36.6676 10.3986 36.0407 10.1796 35.3824 10.1796C34.7241 10.1796 34.0972 10.3986 33.58 10.8054C33.0628 11.2277 32.7024 11.8222 32.5456 12.4636H38.2192C38.0781 11.8066 37.702 11.2277 37.1848 10.8054ZM59.4246 8.83432C60.1769 9.58517 60.5683 10.5863 60.5683 11.8535V19.0807H57.732V12.6982C57.732 12.0099 57.5278 11.478 57.1364 11.0713C56.7442 10.6646 56.2113 10.4612 55.553 10.4612C54.8636 10.4612 54.2994 10.6646 53.8605 11.087C53.4217 11.5093 53.218 12.0569 53.218 12.7452V19.0807H50.3812V12.6982C50.3812 12.0255 50.1774 11.478 49.7856 11.0713C49.3781 10.6646 48.8453 10.4612 48.187 10.4612C47.8735 10.4456 47.5758 10.4925 47.278 10.602C46.9959 10.7115 46.7294 10.8836 46.4943 11.087C46.2749 11.3059 46.1025 11.5562 45.9928 11.8535C45.8831 12.1351 45.8361 12.4479 45.8361 12.7452V19.0807H42.9994V7.9739H45.8517V9.1159C46.6824 8.17727 47.7795 7.70799 49.143 7.70799C49.864 7.69232 50.5693 7.84874 51.2118 8.17727C51.8074 8.49012 52.2933 8.9438 52.6381 9.50696C53.5628 8.30242 54.8166 7.69232 56.4155 7.69232C57.6693 7.70799 58.6723 8.08346 59.4246 8.83432ZM74.1257 13.5117C74.1257 15.1699 73.5615 16.5465 72.417 17.6571C71.2732 18.7679 69.8627 19.331 68.154 19.3154C66.4613 19.3154 65.0355 18.7522 63.891 17.6416C62.7473 16.5308 62.167 15.1543 62.167 13.496C62.167 11.8378 62.7473 10.4612 63.891 9.35053C65.0355 8.23988 66.4613 7.67672 68.154 7.67672C69.8466 7.67672 71.2732 8.23988 72.417 9.35053C73.5615 10.4769 74.141 11.8691 74.1257 13.5117ZM70.3482 15.7174C70.8971 15.1229 71.2106 14.3408 71.2106 13.5273C71.2106 12.7138 70.8971 11.9317 70.3482 11.3373C70.066 11.0557 69.7212 10.821 69.3451 10.6646C68.9689 10.5081 68.5775 10.4299 68.17 10.4299C67.7626 10.4299 67.3703 10.5081 66.9942 10.6646C66.618 10.821 66.2732 11.04 65.9911 11.3373C65.4269 11.9317 65.1134 12.7138 65.1134 13.5273C65.1134 14.3408 65.4269 15.1229 65.9911 15.7174C66.5714 16.2806 67.3551 16.5934 68.17 16.5934C68.985 16.5778 69.7687 16.2649 70.3482 15.7174ZM79.313 10.5551V15.1699C79.313 16.1242 79.8306 16.5934 80.8489 16.5934C81.3504 16.5778 81.852 16.4526 82.3069 16.218V18.8617C81.6639 19.1902 80.959 19.3623 80.2381 19.3466C78.9995 19.3466 78.0592 19.0182 77.4323 18.3611C76.8053 17.7041 76.4919 16.7968 76.4919 15.6392V10.5707H74.7213V7.98957H76.4919V6.14366L79.3291 5.17376V7.98957H82.3222V10.5707H79.313V10.5551ZM94.8443 14.5442H86.2404C86.4132 15.2168 86.8207 15.8112 87.3849 16.218C87.9804 16.6404 88.7014 16.8593 89.4223 16.8281C90.0332 16.8281 90.644 16.7029 91.193 16.437C91.6945 16.218 92.1333 15.8738 92.4781 15.4514L94.3741 17.1097C93.7786 17.8136 93.0263 18.3767 92.1799 18.7522C91.287 19.1433 90.3153 19.3466 89.3283 19.331C88.2312 19.3466 87.1341 19.0807 86.1624 18.5645C85.2373 18.0796 84.485 17.3443 83.9521 16.4526C83.4353 15.5453 83.1532 14.5285 83.1532 13.496C83.1532 12.4636 83.4193 11.4311 83.9208 10.5238C84.4223 9.64779 85.1593 8.9282 86.0523 8.44325C86.9774 7.94263 88.0118 7.67672 89.0615 7.69232C90.7228 7.69232 92.1172 8.23988 93.2304 9.35053C94.3428 10.4612 94.907 11.8535 94.907 13.5273C94.907 13.8715 94.8917 14.2156 94.8443 14.5442ZM90.8482 10.8054C90.3306 10.3986 89.7044 10.1796 89.0462 10.1796C88.3879 10.1796 87.761 10.3986 87.2434 10.8054C86.7266 11.2277 86.3657 11.8222 86.209 12.4636H91.8826C91.7411 11.8066 91.365 11.2277 90.8482 10.8054Z" fill="#F7F8F8"/>
</svg>
