<?xml version="1.0" encoding="utf-8"?>
<!-- Generator: Adobe Illustrator 28.3.0, SVG Export Plug-In . SVG Version: 6.00 Build 0)  -->
<svg version="1.1" id="Layer_1" xmlns="http://www.w3.org/2000/svg" xmlns:xlink="http://www.w3.org/1999/xlink" x="0px" y="0px"
	 viewBox="0 0 1455.53 818.74" style="enable-background:new 0 0 1455.53 818.74;" xml:space="preserve">
<style type="text/css">
	.st0{fill-rule:evenodd;clip-rule:evenodd;}
</style>
<g>
	<g>
		<g>
			<g>
				<g>
					<g>
						<path d="M443.86,473.53c-36.13,5.55-79.43-11.92-107.91-30.12c-40.09-26.07-54.14-51.38-58.86-68.03
							c-0.07-0.35-0.24-1.05-0.4-1.72c-0.15-0.61-0.29-1.21-0.34-1.48c-0.14-0.71-0.23-1.28-0.3-1.83
							c-0.06-0.44-0.12-0.88-0.22-1.38c-0.25-1.95-0.37-4.17-0.35-6.64c0.19-5.42,1.55-10.62,3.92-15.04
							c2.86-5.13,7.15-9.49,12.39-12.62c2.69-1.67,5.95-3.15,9.96-4.52c3.36-1.02,6.88-1.82,10.49-2.37
							c27.79-4.27,58.07,5.83,78.58,15.05c18.68,8.58,37.02,20.38,51.63,33.23c17.91,15.76,29.75,32.33,35.18,49.26l0.59,2.04
							c0.07,0.34,0.23,1.01,0.38,1.67c0.14,0.61,0.28,1.2,0.33,1.47c0.05,0.24,0.08,0.47,0.12,0.71l0.39,2.45
							c0.23,1.87,0.34,4.02,0.32,6.42c-0.2,5.22-1.52,10.21-3.81,14.46l-0.51-0.27l0.5,0.28c-2.35,4.25-5.84,8.06-10.08,11.02
							c-1.89,1.25-3.81,2.35-5.57,3.21c-0.41,0.16-0.93,0.4-1.46,0.64c-0.56,0.26-1.12,0.51-1.49,0.65
							c-0.27,0.11-0.94,0.34-1.59,0.58c-0.56,0.2-1.12,0.4-1.38,0.5l-2.07,0.62C449.6,472.5,446.75,473.09,443.86,473.53z
							 M312.32,331.75c-1.15,0.18-2.31,0.38-3.44,0.6c-8.59,1.83-20.07,6.25-25.93,16.89c-5.76,10.69-3.27,22.73-0.16,30.94
							c15.14,38.11,60.89,69.28,99.5,83.25c23.96,8.41,44.07,11.21,61.46,8.53c0,0,0,0,0,0c3.49-0.54,6.9-1.31,10.13-2.29
							c0.21-0.09,0.9-0.33,1.57-0.57c0.56-0.2,1.1-0.39,1.34-0.48c0.63-0.24,1.11-0.46,1.57-0.68c0.41-0.19,0.82-0.38,1.32-0.58
							c1.58-0.76,3.4-1.79,5.34-3.06c4.06-2.82,7.4-6.45,9.64-10.47c2.53-4.75,3.77-10.23,3.57-15.84
							c-0.05-2.99-0.54-6.33-1.51-10.22c-5.54-19.49-19.93-38.08-43.99-56.81c-16.72-12.76-36.93-23.73-56.9-30.89
							C352.74,331.79,330.78,328.91,312.32,331.75z"/>
						<path d="M475.33,454.19c2.64-4.95,3.85-10.63,3.66-16.22c-0.05-3.44-0.7-7.04-1.53-10.38c-6.68-23.49-25.42-42.55-44.25-57.22
							c-32.31-24.66-83.37-46.82-124.46-38.76c-10.62,2.26-21.02,7.42-26.43,17.25c-5.33,9.9-4.05,21.38-0.2,31.56
							c15.46,38.9,61.72,69.85,99.94,83.68c22.51,7.9,48.71,13.35,72.06,6.26c0.51-0.2,2.44-0.86,2.97-1.07
							c1.2-0.47,1.82-0.82,2.89-1.26c1.85-0.88,3.76-2.01,5.47-3.13C469.47,462.13,472.93,458.49,475.33,454.19L475.33,454.19z
							 M475.33,454.19c-2.38,4.3-5.83,7.96-9.86,10.77c-1.72,1.13-3.63,2.25-5.47,3.15c-0.74,0.29-2.18,0.99-2.89,1.27
							c-0.51,0.2-2.4,0.86-2.97,1.08c0,0-2.02,0.6-2.02,0.6c-37.08,9.92-84.51-8.29-115.77-28.26
							c-24.13-15.69-50.45-39.08-58.54-67.61c-0.11-0.55-0.61-2.58-0.73-3.15c-0.26-1.27-0.31-2.05-0.52-3.2
							c-0.27-2.09-0.35-4.38-0.34-6.5c0.18-5.1,1.41-10.18,3.84-14.69c2.84-5.1,7.12-9.36,12.12-12.34
							c3.01-1.87,6.47-3.31,9.82-4.46c28.34-8.63,62.3,0.86,88.53,12.65c33.71,15.48,74.68,45.48,86.42,82.05
							c0,0,0.59,2.02,0.59,2.02c0.11,0.53,0.59,2.52,0.7,3.08c0.07,0.34,0.11,0.69,0.17,1.04l0.33,2.08
							c0.25,2.03,0.33,4.25,0.31,6.3C478.86,444.98,477.66,449.86,475.33,454.19L475.33,454.19z"/>
						<path d="M443.81,473.92c-15.29,2.35-32.81,0.76-52.06-4.72c-18.76-5.34-38.65-14.39-55.99-25.47
							c-40.19-26.13-54.28-51.53-59.01-68.24c-0.08-0.38-0.24-1.07-0.4-1.73c-0.15-0.64-0.29-1.23-0.35-1.5
							c-0.15-0.72-0.23-1.28-0.3-1.83c-0.06-0.45-0.13-0.88-0.22-1.38c-0.25-1.98-0.37-4.22-0.36-6.71
							c0.2-5.49,1.57-10.74,3.97-15.21c2.9-5.2,7.23-9.61,12.53-12.76c2.71-1.69,5.99-3.18,10.03-4.55
							c3.34-1.02,6.87-1.81,10.51-2.37c7.43-1.14,15.31-1.35,23.61-0.63c-6.14,0.18-13.17,1.26-23.27,2.82
							c-3.54,0.54-6.96,1.32-10.17,2.29c-3.84,1.31-6.98,2.73-9.56,4.34c-4.99,2.97-9.04,7.09-11.74,11.93
							c-2.23,4.16-3.51,9.07-3.7,14.19c-0.01,2.36,0.1,4.49,0.33,6.32c0.09,0.47,0.16,0.93,0.22,1.4c0.08,0.54,0.15,1.07,0.28,1.72
							c0.05,0.26,0.19,0.82,0.33,1.41c0.17,0.72,0.35,1.45,0.4,1.75c2.93,10.31,9.56,24.08,24.11,39.34
							c-9.51-10.28-17.19-21.53-21.93-33.47c-3.25-8.59-5.84-21.19,0.26-32.5c6.2-11.26,18.2-15.9,27.18-17.81
							c1.14-0.22,2.31-0.43,3.47-0.61c20.3-3.12,43.06,0.82,64.7,8.59c-8.08-3.58-14.31-6.2-19.59-8.05
							c10.74,2.69,22.05,6.7,33.9,12.02c18.72,8.59,37.09,20.42,51.73,33.29c17.96,15.8,29.83,32.43,35.29,49.43l0.6,2.05
							c0.08,0.36,0.23,1.03,0.39,1.69l0.02,0.1c0.13,0.58,0.26,1.12,0.31,1.38c0.05,0.23,0.08,0.45,0.11,0.67l0.39,2.5
							c0.24,1.89,0.35,4.07,0.33,6.48c-0.2,5.26-1.52,10.29-3.83,14.59l-0.05,0.1c-2.38,4.29-5.9,8.13-10.18,11.11
							c-1.91,1.26-3.85,2.38-5.62,3.24c-0.42,0.17-0.91,0.39-1.41,0.62c-0.62,0.28-1.19,0.54-1.56,0.68
							c-0.27,0.11-0.94,0.35-1.6,0.58c-0.56,0.2-1.11,0.4-1.37,0.5l-2.1,0.63C449.64,472.86,446.75,473.47,443.81,473.92z
							 M312.33,332.12c-1.13,0.17-2.27,0.37-3.38,0.59c-8.51,1.81-19.88,6.19-25.67,16.7c-5.69,10.57-3.22,22.49-0.14,30.64
							c15.1,38,60.75,69.09,99.28,83.03c23.92,8.4,43.93,11.19,61.17,8.54c0,0,0,0,0,0c3.49-0.54,6.92-1.31,10.19-2.31
							c0.19-0.08,0.88-0.32,1.56-0.56c0.55-0.2,1.09-0.38,1.33-0.48c0.63-0.24,1.09-0.46,1.54-0.67c0.43-0.2,0.84-0.38,1.34-0.59
							c1.56-0.75,3.35-1.77,5.28-3.03c4-2.78,7.3-6.36,9.51-10.33l0.01-0.02c2.5-4.69,3.71-10.1,3.52-15.64
							c-0.05-2.96-0.53-6.28-1.5-10.15c-5.52-19.4-19.87-37.93-43.86-56.61C401.25,347.39,351.95,326.03,312.33,332.12z"/>
						<path d="M443.7,473.19c-15.2,2.34-32.56,0.76-51.75-4.7c-18.7-5.32-38.51-14.34-55.79-25.39c-40-26-54-51.23-58.7-67.82
							c-0.06-0.32-0.23-1.02-0.39-1.7c-0.14-0.61-0.29-1.2-0.34-1.47c-0.14-0.7-0.22-1.26-0.3-1.8c-0.06-0.44-0.13-0.89-0.22-1.4
							c-0.24-1.91-0.36-4.12-0.35-6.57c0.19-5.36,1.53-10.49,3.88-14.87c2.83-5.07,7.07-9.39,12.26-12.48
							c2.67-1.66,5.91-3.13,9.89-4.49c16.5-5.03,45.28-6.9,88.8,12.66c18.65,8.56,36.95,20.34,51.54,33.18
							c17.86,15.71,29.66,32.23,35.08,49.1l0.59,2.03c0.06,0.31,0.22,0.99,0.38,1.65c0.14,0.6,0.28,1.19,0.33,1.46
							c0.05,0.23,0.08,0.46,0.12,0.69l0.39,2.45c0.23,1.84,0.34,3.98,0.32,6.36c-0.2,5.15-1.5,10.09-3.76,14.29l0,0c0,0,0,0,0,0
							c-2.33,4.2-5.78,7.97-9.97,10.89c-1.87,1.23-3.78,2.33-5.52,3.18c-0.39,0.15-0.92,0.4-1.45,0.64
							c-0.55,0.25-1.11,0.5-1.47,0.64c-0.27,0.11-0.93,0.34-1.58,0.57c-0.57,0.2-1.12,0.4-1.39,0.5l-2.05,0.61
							C449.46,472.15,446.62,472.74,443.7,473.19z M312.22,331.39c-1.14,0.18-2.28,0.37-3.41,0.6c-8.67,1.85-20.25,6.31-26.18,17.07
							c-5.83,10.82-3.31,22.97-0.18,31.25c15.19,38.23,61.03,69.47,99.72,83.47c28.84,10.13,52.34,12.17,71.83,6.25
							c0.24-0.1,0.93-0.34,1.59-0.57c0.56-0.2,1.11-0.39,1.36-0.49c0.64-0.25,1.12-0.47,1.59-0.68c0.41-0.19,0.81-0.37,1.3-0.57
							c1.62-0.77,3.45-1.82,5.41-3.1c4.11-2.86,7.49-6.52,9.75-10.59c0,0,0-0.01,0.01-0.01c2.56-4.81,3.81-10.35,3.61-16.03
							c-0.05-3.01-0.54-6.37-1.52-10.3c-5.57-19.58-20-38.23-44.12-57.01C401.18,346.4,352.02,325.27,312.22,331.39z M312.38,328.89
							c-3.85,0.59-7.27,1.4-10.28,2.32c-3.92,1.33-7.1,2.78-9.73,4.42c-5.09,3.03-9.23,7.25-11.99,12.2
							c-2.29,4.27-3.6,9.29-3.79,14.53c-0.01,2.41,0.1,4.57,0.34,6.44c0.1,0.5,0.16,0.95,0.22,1.41c0.08,0.53,0.15,1.08,0.29,1.76
							c0.05,0.27,0.19,0.85,0.34,1.45c0.16,0.69,0.33,1.41,0.39,1.7c4.66,16.43,18.58,41.49,58.38,67.37
							c21.49,13.73,41.98,22.12,60.25,26.63c-4.8-1.29-9.75-2.84-14.87-4.63c-38.85-14.06-84.89-45.45-100.16-83.9
							c-3.19-8.44-5.74-20.81,0.22-31.87c6.06-11.01,17.85-15.56,26.68-17.44c40.58-7.96,91.91,13.76,124.76,38.82
							c4.17,3.25,8.06,6.49,11.65,9.74c-13.64-12.83-31.69-25.42-54.71-35.99C355.03,327.95,329.48,326.27,312.38,328.89z"/>
					</g>
					<g>
						<path d="M443.8,473.87c-15.28,2.35-32.79,0.76-52.04-4.72c-18.76-5.34-38.64-14.39-55.98-25.47
							c-40.18-26.12-54.26-51.51-58.99-68.21c-0.08-0.37-0.24-1.05-0.4-1.71c-0.15-0.63-0.29-1.24-0.35-1.52
							c-0.15-0.72-0.23-1.28-0.31-1.83c-0.06-0.45-0.13-0.88-0.22-1.38c-0.26-1.98-0.37-4.22-0.36-6.7
							c0.19-5.48,1.56-10.72,3.96-15.19c2.89-5.19,7.22-9.59,12.51-12.75c2.71-1.69,5.99-3.18,10.02-4.55
							c3.34-1.02,6.86-1.81,10.5-2.37c7.18-1.1,14.79-1.33,22.79-0.69c-5.95,0.25-12.8,1.3-22.46,2.79
							c-3.54,0.54-6.97,1.32-10.18,2.3c-3.85,1.31-6.98,2.73-9.57,4.34c-4.99,2.97-9.05,7.1-11.76,11.95
							c-2.24,4.17-3.52,9.09-3.7,14.22c-0.01,2.35,0.1,4.49,0.33,6.32c0.09,0.47,0.16,0.93,0.22,1.39c0.07,0.49,0.15,1.05,0.29,1.73
							c0.05,0.26,0.19,0.85,0.34,1.45c0.17,0.7,0.34,1.42,0.39,1.72c3.2,11.28,10.84,26.71,28.43,43.69
							c-11.45-11.42-20.73-24.19-26.16-37.85c-3.24-8.58-5.83-21.16,0.25-32.46c6.19-11.24,18.18-15.88,27.14-17.79
							c1.15-0.23,2.31-0.43,3.48-0.61c20.69-3.18,43.95,0.98,65.97,9.06c-8.2-3.64-14.52-6.34-19.87-8.26
							c10.43,2.68,21.4,6.61,32.87,11.76c18.72,8.59,37.08,20.41,51.71,33.29c17.95,15.79,29.82,32.42,35.28,49.4l0.6,2.05
							c0.07,0.33,0.21,0.92,0.35,1.52l0.05,0.19c0.14,0.6,0.28,1.19,0.33,1.45c0.05,0.25,0.09,0.49,0.12,0.73l0.39,2.44
							c0.24,1.89,0.35,4.07,0.33,6.48c-0.2,5.27-1.53,10.32-3.85,14.61c-2.38,4.31-5.9,8.15-10.19,11.14
							c-1.91,1.26-3.85,2.37-5.61,3.23c-0.43,0.17-0.94,0.41-1.46,0.64c-0.56,0.25-1.14,0.52-1.52,0.66
							c-0.26,0.1-0.9,0.33-1.54,0.56l-0.07,0.03c-0.59,0.21-1.11,0.4-1.36,0.49l-2.1,0.63C449.63,472.82,446.74,473.42,443.8,473.87
							z M312.33,332.07c-1.13,0.17-2.27,0.37-3.38,0.59c-8.52,1.82-19.91,6.19-25.71,16.72c-5.7,10.58-3.22,22.52-0.14,30.68
							c15.1,38.02,60.76,69.11,99.31,83.06c23.92,8.4,43.94,11.2,61.19,8.55c0,0,0,0,0,0c3.5-0.54,6.93-1.31,10.2-2.31
							c0.19-0.08,0.87-0.32,1.53-0.55c0.58-0.2,1.12-0.39,1.36-0.49c0.62-0.24,1.09-0.46,1.54-0.66c0.42-0.2,0.83-0.38,1.34-0.59
							c1.57-0.75,3.36-1.78,5.29-3.03c4.01-2.79,7.32-6.38,9.53-10.36c2.5-4.69,3.72-10.11,3.53-15.67
							c-0.05-2.97-0.54-6.29-1.5-10.16c-5.52-19.42-19.87-37.95-43.88-56.63C401.27,347.35,351.96,325.98,312.33,332.07z"/>
						<path d="M443.69,473.14c-15.19,2.33-32.54,0.76-51.73-4.7c-18.69-5.32-38.5-14.34-55.78-25.38
							c-39.98-26-53.98-51.21-58.68-67.79c-0.06-0.32-0.23-1.01-0.39-1.68c-0.15-0.62-0.29-1.22-0.34-1.49
							c-0.14-0.7-0.22-1.27-0.3-1.81c-0.06-0.44-0.13-0.88-0.22-1.39c-0.24-1.92-0.36-4.12-0.35-6.56
							c0.19-5.35,1.53-10.48,3.87-14.84c2.82-5.07,7.06-9.37,12.24-12.46c2.67-1.66,5.9-3.13,9.88-4.48
							c16.49-5.02,45.26-6.9,88.77,12.66c18.65,8.56,36.95,20.34,51.53,33.17c17.85,15.7,29.65,32.22,35.06,49.08l0.59,2.03
							c0.06,0.31,0.22,1,0.38,1.67c0.14,0.59,0.27,1.17,0.33,1.43c0.05,0.23,0.08,0.46,0.12,0.7l0.39,2.44
							c0.23,1.84,0.34,3.98,0.32,6.35c-0.2,5.14-1.5,10.07-3.76,14.27c0,0,0,0,0,0l0,0c-2.32,4.2-5.77,7.96-9.96,10.88
							c-1.87,1.23-3.77,2.33-5.51,3.17c-0.38,0.15-0.91,0.39-1.44,0.63c-0.54,0.25-1.11,0.5-1.48,0.65
							c-0.27,0.11-0.94,0.35-1.59,0.58c-0.57,0.2-1.12,0.4-1.38,0.5l-2.04,0.61C449.45,472.1,446.61,472.69,443.69,473.14z
							 M312.21,331.34c-1.15,0.18-2.28,0.37-3.41,0.6c-8.68,1.85-20.28,6.32-26.21,17.09c-5.84,10.83-3.32,23-0.18,31.29
							c15.19,38.24,61.05,69.49,99.75,83.5c28.85,10.13,52.36,12.18,71.86,6.25c0.25-0.1,0.92-0.34,1.58-0.57
							c0.57-0.2,1.12-0.39,1.36-0.49c0.64-0.25,1.13-0.47,1.59-0.69c0.4-0.19,0.8-0.37,1.3-0.57c1.63-0.78,3.45-1.82,5.42-3.1
							c4.12-2.86,7.5-6.54,9.78-10.62l0,0c2.57-4.82,3.82-10.37,3.62-16.06c-0.05-3.01-0.54-6.38-1.52-10.31
							c-5.57-19.59-20.01-38.25-44.14-57.04C401.2,346.36,352.02,325.22,312.21,331.34z M312.38,328.85
							c-3.85,0.59-7.27,1.4-10.28,2.32c-3.92,1.34-7.11,2.78-9.74,4.42c-5.09,3.03-9.24,7.26-12.01,12.22
							c-2.3,4.28-3.61,9.31-3.8,14.55c-0.01,2.4,0.1,4.57,0.34,6.44c0.1,0.5,0.16,0.95,0.22,1.4c0.08,0.53,0.15,1.09,0.29,1.77
							c0.05,0.27,0.2,0.86,0.34,1.47c0.16,0.68,0.33,1.39,0.39,1.68c4.66,16.44,18.59,41.51,58.4,67.4
							c17.23,11.01,36.98,20,55.61,25.3c2.22,0.63,4.42,1.21,6.6,1.74c-5.39-1.39-10.98-3.1-16.79-5.14
							c-38.84-14.05-84.87-45.44-100.13-83.87c-3.19-8.43-5.73-20.78,0.22-31.83c6.05-10.99,17.83-15.54,26.65-17.42
							c40.56-7.96,91.88,13.75,124.72,38.81c5.47,4.26,10.44,8.51,14.93,12.77c-13.97-13.89-33.06-27.68-57.93-39.09
							C355.04,327.9,329.48,326.22,312.38,328.85z"/>
						<path d="M443.86,474.24c-15.34,2.36-32.9,0.77-52.2-4.73c-18.79-5.35-38.71-14.41-56.08-25.51
							c-40.28-26.19-54.4-51.66-59.15-68.42c-0.08-0.38-0.23-1.02-0.38-1.65l-0.02-0.08c-0.15-0.63-0.3-1.25-0.35-1.53
							c-0.15-0.72-0.23-1.29-0.31-1.83c-0.07-0.48-0.13-0.9-0.22-1.38c-0.26-2.01-0.38-4.27-0.36-6.77
							c0.2-5.54,1.58-10.84,4.01-15.36c2.92-5.25,7.3-9.7,12.65-12.89c2.73-1.7,6.03-3.2,10.09-4.58c3.35-1.02,6.9-1.82,10.56-2.38
							c22.49-3.46,49.07,1.62,79.02,15.08c18.75,8.61,37.15,20.45,51.81,33.35c18,15.84,29.91,32.52,35.39,49.57l0.6,2.06
							c0.08,0.35,0.2,0.91,0.34,1.48l0.06,0.25c0.14,0.61,0.28,1.2,0.33,1.46c0.05,0.26,0.09,0.5,0.13,0.75l0.39,2.43
							c0.24,1.92,0.35,4.11,0.33,6.54c-0.2,5.33-1.55,10.44-3.89,14.78c-2.41,4.36-5.97,8.25-10.3,11.27
							c-1.93,1.27-3.88,2.39-5.66,3.26c-0.45,0.18-0.96,0.41-1.47,0.64c-0.57,0.26-1.15,0.52-1.53,0.67
							c-0.25,0.1-0.87,0.32-1.49,0.54L456,471.3c-0.59,0.21-1.1,0.39-1.35,0.49l-2.13,0.64
							C449.72,473.18,446.81,473.79,443.86,474.24z M312.38,332.44c-1.13,0.17-2.26,0.37-3.37,0.59
							c-8.44,1.8-19.72,6.13-25.45,16.54c-5.63,10.46-3.17,22.29-0.12,30.37c15.06,37.91,60.62,68.92,99.09,82.85
							c23.86,8.38,43.82,11.17,61.01,8.53c0,0,0,0,0,0c3.48-0.53,6.89-1.31,10.15-2.3c0.15-0.07,0.84-0.31,1.51-0.55
							c0.58-0.2,1.11-0.39,1.35-0.49c0.6-0.23,1.05-0.44,1.49-0.64c0.45-0.21,0.87-0.4,1.38-0.61c1.54-0.74,3.31-1.75,5.23-3
							c3.96-2.75,7.22-6.3,9.41-10.23c2.47-4.63,3.67-9.98,3.48-15.48c-0.05-2.94-0.53-6.24-1.49-10.08
							c-5.5-19.33-19.81-37.8-43.74-56.43C401.11,347.69,351.91,326.36,312.38,332.44z"/>
						<path d="M443.74,473.51c-15.23,2.34-32.69,0.76-51.88-4.71c-18.73-5.33-38.57-14.36-55.88-25.42
							c-40.08-26.06-54.12-51.36-58.84-68c-0.07-0.34-0.23-1.03-0.39-1.7c-0.15-0.62-0.29-1.23-0.35-1.5
							c-0.14-0.71-0.22-1.27-0.3-1.81c-0.07-0.46-0.13-0.89-0.22-1.4c-0.25-1.95-0.37-4.17-0.35-6.63
							c0.19-5.41,1.55-10.6,3.92-15.02c2.86-5.12,7.14-9.48,12.38-12.6c2.69-1.67,5.95-3.15,9.95-4.51
							c16.56-5.04,45.43-6.93,89.04,12.67c18.68,8.58,37.01,20.38,51.62,33.23c17.9,15.75,29.73,32.32,35.17,49.24l0.59,2.04
							c0.06,0.31,0.2,0.9,0.34,1.5l0.04,0.19c0.14,0.6,0.27,1.18,0.33,1.44c0.05,0.24,0.08,0.48,0.12,0.71l0.39,2.44
							c0.23,1.87,0.34,4.02,0.32,6.42c-0.2,5.2-1.51,10.19-3.8,14.44c-2.35,4.25-5.84,8.06-10.07,11.01
							c-1.89,1.24-3.81,2.35-5.56,3.2c-0.41,0.16-0.93,0.4-1.45,0.64c-0.55,0.25-1.12,0.51-1.5,0.65c-0.26,0.1-0.89,0.33-1.52,0.55
							l-0.08,0.03c-0.6,0.21-1.12,0.4-1.37,0.5l-2.07,0.62C449.55,472.46,446.67,473.06,443.74,473.51z M398.67,469.83
							c15.18,3.68,29.16,4.82,41.71,3.38c-12.35,1.37-26.12,0.07-41.57-3.91L398.67,469.83z M452.21,470.98
							c-0.22,0.06-0.44,0.12-0.66,0.18c0.19-0.05,0.37-0.1,0.56-0.15L452.21,470.98z M312.27,331.71c-1.13,0.17-2.28,0.37-3.4,0.59
							c-8.6,1.83-20.09,6.25-25.96,16.91c-5.77,10.71-3.27,22.76-0.16,30.99c15.15,38.13,60.91,69.3,99.53,83.28
							c28.77,10.1,52.21,12.15,71.62,6.24c0.21-0.09,0.89-0.33,1.54-0.56c0.59-0.21,1.13-0.4,1.37-0.49
							c0.63-0.24,1.1-0.46,1.56-0.67c0.42-0.19,0.82-0.38,1.32-0.58c1.6-0.77,3.41-1.8,5.35-3.07c4.07-2.83,7.41-6.46,9.66-10.49
							c2.53-4.75,3.77-10.24,3.57-15.86c-0.05-2.99-0.54-6.33-1.51-10.24c-5.55-19.51-19.94-38.1-44.01-56.84
							C401.43,347,352.01,325.6,312.27,331.71z M312.43,329.21c-3.56,0.55-7,1.32-10.23,2.31c-3.88,1.32-7.05,2.76-9.66,4.38
							c-5.04,3-9.15,7.18-11.88,12.09c-2.27,4.23-3.56,9.2-3.75,14.38c-0.01,2.38,0.1,4.53,0.34,6.38c0.09,0.49,0.16,0.94,0.22,1.39
							c0.07,0.5,0.15,1.06,0.29,1.75c0.05,0.27,0.2,0.86,0.34,1.46c0.16,0.69,0.33,1.4,0.39,1.7c4.64,16.37,18.53,41.33,58.24,67.16
							c3.66,2.34,7.44,4.59,11.3,6.73c-28.69-16.56-55.57-40.58-66.56-68.25c-3.22-8.5-5.78-20.97,0.24-32.15
							c6.12-11.12,18.01-15.71,26.9-17.6c30.5-5.99,67.03,4.74,97.27,21.06c-5.01-2.77-10.23-5.4-15.63-7.88
							C360.67,330.84,334.5,325.82,312.43,329.21z M476.88,425.51c0.01,0.02,0.01,0.04,0.02,0.06l0-0.01
							C476.89,425.54,476.89,425.52,476.88,425.51z M448.14,383.09c10.76,10.21,18.72,20.46,24.01,30.91
							c-5.33-10.65-13.24-21.11-23.66-31.28L448.14,383.09z"/>
					</g>
				</g>
				<g>
					<g>
						<path d="M461.59,501.69c-44.8,5.79-92.9-13.48-125.37-30.67c-32.42-17.73-75.15-47.46-94.65-88.38
							c-4.41-9.57-10.51-27.95-1.93-43.65c8.41-15.38,26.63-20.29,36.74-21.84c0.33-0.05,0.67-0.1,1-0.15
							c44.95-5.76,93.07,14.09,125.53,31.76c32.03,18.01,74.27,48.03,93.64,88.82c4.27,9.38,10.17,27.37,1.81,42.58
							c-8.17,15.07-26.17,19.89-36.18,21.43L461.59,501.69z M277.45,320.9c-16.66,2.56-28.19,9.31-34.26,20.05
							c-8.01,15.27-3.78,34.98,12.6,58.57c30.47,41.79,83.38,76.97,141.53,94.09c8.55,2.51,38.49,10.4,64.87,6.35c0,0,0.01,0,0.01,0
							c16.81-2.58,28.54-9.48,34.87-20.49c7.04-13.61,4.83-30.42-6.57-49.96c-11.55-19.8-28.69-35.67-35.52-41.58
							c-45.87-39.64-104.09-65.09-155.74-68.1C291.28,319.54,283.94,319.9,277.45,320.9z"/>
						<path d="M497.72,479.82c16.25-31.38-19.71-72.97-42.25-92.45c-41.94-36.24-100.35-65.03-156.18-68.28
							c-20.11-0.71-45.86,2.24-56.75,21.5c-10.3,19.62,1.15,42.81,12.63,59.35c32.93,45.17,88.77,78.72,141.93,94.38
							C425.74,502.73,480.11,510.46,497.72,479.82L497.72,479.82z M497.72,479.82c-7.11,13.1-22.15,19.09-36.23,21.14
							c-41.96,5.43-88.21-11.16-124.92-30.59c-36.58-20.01-76.02-49.63-94.33-88.04c-6.1-13.25-9.28-29.56-1.95-42.98
							c7.33-13.42,22.75-19.58,37.19-21.61c42.17-5.4,88.47,11.75,125.08,31.68c36.22,20.37,75.16,50.25,93.33,88.49
							C501.78,450.86,504.89,466.75,497.72,479.82L497.72,479.82z"/>
						<path d="M461.64,502.06c-44.9,5.81-93.08-13.49-125.6-30.7c-32.47-17.76-75.27-47.54-94.81-88.54
							c-4.44-9.63-10.58-28.14-1.92-43.98c8.48-15.52,26.88-20.47,37.09-22.04c0.31-0.05,0.62-0.09,0.92-0.14
							c45.05-5.77,93.25,14.11,125.76,31.8c32.08,18.04,74.38,48.11,93.8,88.99c4.3,9.44,10.24,27.56,1.8,42.92
							c-8.25,15.21-26.4,20.08-36.48,21.63L461.64,502.06z M277.38,321.26c-16.45,2.53-27.85,9.21-33.87,19.87
							c-7.94,15.13-3.71,34.71,12.58,58.18c30.42,41.72,83.26,76.85,141.33,93.95c23.1,6.79,46.58,9.12,64.4,6.38c0,0,0,0,0.01,0
							c16.9-2.6,28.65-9.45,34.92-20.36c3.04-5.87,4.35-12.45,3.89-19.54c-0.11-1.67-0.33-3.41-0.63-5.15
							c-5.51-31.24-41.22-62.88-45.27-66.39c-45.81-39.58-103.95-65.01-155.52-68.01C291.21,319.9,283.85,320.26,277.38,321.26z
							 M276.7,318.98c-9.79,1.5-27.41,6.22-35.44,20.91c-8.19,14.99-2.28,32.74,1.98,41.98c8.34,17.5,21,32.94,35.29,46.26
							c-9.14-8.76-17.29-17.98-24.26-27.53c-16.81-24.22-21.09-44.58-12.72-60.52c6.39-11.3,18.32-18.36,35.48-21
							c6.62-1.02,14.12-1.39,22.29-1.1c11.77,0.68,23.91,2.55,36.2,5.48c-18.9-4.79-38.71-7.07-57.9-4.61
							C277.33,318.88,277.02,318.93,276.7,318.98z"/>
						<path d="M462.09,501.24c-0.19,0.03-0.37,0.06-0.56,0.08c-44.69,5.78-92.72-13.46-125.14-30.63
							c-32.37-17.71-75.03-47.38-94.49-88.21c-4.38-9.5-10.44-27.75-1.94-43.31c8.51-15.57,27.14-20.34,37.47-21.8
							c44.84-5.75,92.89,14.08,125.31,31.72c31.98,17.98,74.15,47.96,93.48,88.65c4.24,9.31,10.1,27.17,1.82,42.24l0,0.01
							C489.99,494.84,472.3,499.67,462.09,501.24z M277.26,320.53c-16.71,2.57-28.24,9.34-34.4,20.24
							c-8.09,15.41-3.84,35.25,12.61,58.96c30.52,41.86,83.51,77.09,141.73,94.24c36.29,10.67,84.29,13.32,100.18-14.32
							c3.31-6.39,4.43-13.14,3.99-19.95c-0.12-1.78-0.34-3.52-0.64-5.23c-5.51-31.27-40.53-62.51-45.51-66.82
							c-45.93-39.69-104.23-65.18-155.96-68.19C291.15,319.16,283.81,319.52,277.26,320.53z M276.59,318.25
							c-10.35,1.59-27.87,6.45-35.97,21.28c-8.35,15.28-2.36,33.27,1.96,42.64c19.37,40.65,61.9,70.22,94.17,87.87
							c15.52,8.22,34.63,16.91,55.23,23.1c-56.39-17.7-107.36-52.21-137.1-92.99c-16.63-23.96-20.89-44.06-12.66-59.74
							c8.72-15.44,27.93-22.73,57.09-21.7c50.14,2.92,106.41,26.88,151.7,64.39c-16.15-13.71-33.53-24.87-48.62-33.36
							c-32.31-17.59-80.21-37.35-124.85-31.63C277.23,318.15,276.91,318.2,276.59,318.25z"/>
					</g>
					<g>
						<path d="M461.65,502.01c-44.9,5.81-93.07-13.49-125.58-30.7c-32.46-17.76-75.25-47.53-94.79-88.52
							c-4.43-9.62-10.57-28.11-1.92-43.94c8.47-15.5,26.83-20.45,37.01-22.01c0.33-0.05,0.65-0.1,0.96-0.14
							c45.04-5.77,93.23,14.1,125.73,31.79c32.07,18.03,74.37,48.1,93.78,88.96c4.29,9.44,10.23,27.54,1.8,42.87
							c-8.24,15.19-26.37,20.05-36.45,21.6L461.65,502.01z M277.37,321.21c-16.47,2.53-27.88,9.22-33.9,19.89
							c-7.95,15.15-3.72,34.74,12.58,58.23c15.49,21.25,37.31,41.3,63.08,57.97c24.03,15.55,51.1,27.99,78.28,36
							c8.65,2.54,31.25,8.35,54.09,7.35c3.78-0.16,7.41-0.51,10.79-1.03c16.61-2.55,28.22-9.39,34.51-20.33
							c6.98-13.48,4.77-30.19-6.57-49.63c-11.53-19.76-28.63-35.61-35.45-41.5c-45.82-39.59-103.97-65.02-155.54-68.02
							C291.21,319.86,283.85,320.22,277.37,321.21z M276.7,318.93c-9.8,1.51-27.44,6.23-35.48,20.93
							c-8.2,15.01-2.28,32.77,1.98,42.02c9.2,19.31,23.66,36.11,39.77,50.32c-11-10.03-20.66-20.68-28.65-31.65
							c-16.8-24.21-21.07-44.55-12.71-60.47c6.38-11.29,18.3-18.34,35.45-20.97c6.62-1.02,14.11-1.38,22.28-1.1
							c13.09,0.76,26.6,2.95,40.23,6.44c-20.11-5.5-41.37-8.31-61.93-5.67C277.33,318.84,277.01,318.88,276.7,318.93z"/>
						<path d="M462.09,501.19c-0.19,0.03-0.37,0.06-0.56,0.08c-44.68,5.78-92.7-13.46-125.11-30.62
							c-32.36-17.7-75.02-47.37-94.46-88.19c-4.37-9.49-10.44-27.73-1.94-43.27c8.5-15.55,27.12-20.32,37.43-21.78
							c44.83-5.74,92.87,14.07,125.28,31.71c31.97,17.98,74.14,47.94,93.46,88.63c4.23,9.3,10.09,27.15,1.82,42.2l0,0
							C489.96,494.8,472.29,499.63,462.09,501.19z M277.26,320.48c-16.72,2.57-28.27,9.35-34.44,20.26
							c-8.1,15.43-3.85,35.28,12.62,59.01c15.55,21.33,37.44,41.45,63.29,58.17c24.09,15.58,51.22,28.06,78.47,36.09
							c8.69,2.55,31.38,8.39,54.33,7.38c22.74-0.99,38.18-8.31,45.9-21.73c7.12-13.75,4.91-30.7-6.57-50.37
							c-11.59-19.85-28.76-35.77-35.6-41.69c-45.94-39.69-104.25-65.19-155.99-68.2C291.15,319.11,283.8,319.48,277.26,320.48z
							 M276.59,318.2c-10.36,1.59-27.9,6.46-36.01,21.31c-8.36,15.29-2.36,33.31,1.96,42.69c19.37,40.66,61.91,70.24,94.19,87.89
							c17.09,9.05,38.52,18.67,61.5,24.89c-0.4-0.12-0.81-0.23-1.21-0.35c-27.31-8.04-54.5-20.55-78.64-36.16
							c-25.92-16.77-47.86-36.94-63.46-58.34c-16.62-23.95-20.88-44.03-12.66-59.69c8.71-15.42,27.9-22.71,57.04-21.67
							c51.88,3.02,110.33,28.57,156.38,68.36c0.14,0.12,0.29,0.25,0.43,0.38c-17.54-15.75-37.01-28.41-53.71-37.8
							c-32.32-17.59-80.22-37.36-124.88-31.64C277.22,318.1,276.91,318.15,276.59,318.2z"/>
						<path d="M461.7,502.37c-44.99,5.82-93.24-13.51-125.8-30.74c-32.51-17.79-75.37-47.6-94.95-88.69
							c-4.46-9.69-10.64-28.31-1.91-44.28c8.55-15.64,27.01-20.62,37.25-22.19c0.34-0.05,0.67-0.1,1-0.15
							c45.14-5.78,93.41,14.12,125.96,31.84c32.12,18.06,74.48,48.18,93.93,89.13c4.32,9.5,10.3,27.73,1.79,43.21
							c-8.31,15.33-26.57,20.23-36.72,21.79L461.7,502.37z M277.42,321.58c-16.35,2.51-27.67,9.14-33.64,19.71
							c-7.88,15.01-3.65,34.47,12.56,57.84c15.46,21.2,37.24,41.22,62.98,57.87c24,15.53,51.04,27.96,78.18,35.95
							c8.64,2.54,31.19,8.34,53.97,7.34c3.77-0.16,7.39-0.51,10.75-1.03c16.49-2.53,28.01-9.31,34.24-20.15
							c6.91-13.35,4.71-29.94-6.57-49.26c-11.5-19.71-28.57-35.52-35.37-41.41c-45.76-39.54-103.83-64.94-155.32-67.93
							C291.22,320.23,283.89,320.58,277.42,321.58z"/>
						<path d="M462.14,501.56l-0.56,0.08c-44.78,5.79-92.88-13.48-125.34-30.66c-32.41-17.73-75.13-47.45-94.63-88.36
							c-4.4-9.56-10.5-27.92-1.93-43.6c8.58-15.7,27.3-20.5,37.7-21.96c44.93-5.76,93.05,14.09,125.5,31.75
							c32.02,18,74.25,48.02,93.62,88.8c4.26,9.37,10.16,27.34,1.81,42.54C490.16,495.19,472.15,500.02,462.14,501.56z
							 M398.15,495.24c20.53,5.55,42.3,8.39,63.33,5.67l0.55-0.08c1.48-0.23,3.14-0.53,4.91-0.92c-4.7,1-9.83,1.62-15.4,1.86
							c-22.01,0.96-43.78-4.35-53.25-7.05L398.15,495.24z M277.31,320.85c-16.59,2.55-28.08,9.3-34.17,20.08
							c-8.02,15.29-3.79,35.01,12.6,58.62c15.52,21.29,37.37,41.37,63.19,58.07c24.06,15.56,51.16,28.03,78.38,36.04
							c8.67,2.55,31.32,8.37,54.21,7.37c22.6-0.98,37.94-8.23,45.6-21.55c7.05-13.62,4.84-30.44-6.57-50
							c-11.56-19.81-28.7-35.69-35.53-41.59c-45.88-39.64-104.11-65.11-155.76-68.11C291.2,319.49,283.82,319.85,277.31,320.85z
							 M455.93,387.7c7.13,6.21,23.87,21.91,35.25,41.4c2.89,4.95,5.19,9.73,6.91,14.34c-0.75-2.06-1.52-3.92-2.25-5.52
							c-9.19-19.35-23.56-36.27-39.55-50.63L455.93,387.7z M276.64,318.57c-9.87,1.52-27.63,6.28-35.74,21.12
							c-8.28,15.15-2.32,33.04,1.97,42.36c15.71,32.97,46.71,58.65,75.07,76.58c-25.85-16.76-47.74-36.91-63.32-58.28
							c-16.71-24.08-20.98-44.29-12.69-60.08c8.79-15.55,28.1-22.91,57.39-21.87c25.54,1.49,52.67,8.42,79.12,19.82
							c-29.72-13.32-66.28-24.22-100.86-19.79C277.27,318.47,276.96,318.52,276.64,318.57z"/>
					</g>
				</g>
				<g>
					<g>
						<path d="M406.01,464.69c-25.59,3.93-52.71-10.76-63.18-17.26c-18.29-11.86-29.83-24.85-34.33-38.63
							c-2.1-6.66-1.73-13.12,1.04-18.2c2.79-5.08,8.02-8.89,14.74-10.72c1.57-0.41,3.19-0.75,4.83-1c13.05-2,28.6,1.01,46.22,8.96
							c12.28,5.83,41.76,22.21,50.53,48.43c1.97,6.35,1.61,12.47-1.01,17.25c-2.61,4.79-7.56,8.4-13.94,10.18
							C409.31,464.1,407.67,464.43,406.01,464.69z M329.24,382.84c-0.56,0.09-1.11,0.18-1.66,0.28c-3.94,0.83-11.09,3.16-14.49,9.41
							c-3.42,6.26-1.51,13.52-0.06,17.3c5.13,12.58,16.3,25.07,31.46,35.14c13.89,9.23,30.11,15.79,44.51,17.98
							c4.34,0.62,10.86,1.16,17.19,0.18c8.3-1.28,14.14-4.75,17.37-10.33c2.75-5.35,5.07-16.95-10.17-34.56
							C389.88,391.6,352.14,379.32,329.24,382.84z"/>
						<path d="M424.2,453.16c6.21-12.05-2.36-26.27-10.26-35.4c-19.17-21.73-57.23-40.84-86.49-35.37c-5.96,1.25-12,4.26-15.01,9.79
							c-3.01,5.52-2.28,12.23-0.1,17.91c11.24,27.56,47.88,49.22,76.54,53.59C400.85,465.39,417.42,464.91,424.2,453.16
							L424.2,453.16z M424.2,453.16c-2.77,5.09-8.03,8.3-13.49,9.82c-22.33,5.68-48.56-4.43-67.5-16.18
							c-14.08-9.13-28.66-21.82-34.01-38.23c-1.8-5.72-1.95-12.24,0.98-17.62c2.95-5.37,8.5-8.78,14.29-10.36
							c16.69-4.38,35.26,1.02,50.55,7.92c20.13,9.56,42.82,26.13,50.14,47.99C426.84,441.92,426.99,448.08,424.2,453.16
							L424.2,453.16z"/>
						<path d="M406.03,465.06c-25.67,3.95-52.89-10.8-63.4-17.32c-18.36-11.91-29.96-24.97-34.48-38.83
							c-2.13-6.76-1.75-13.32,1.06-18.49c2.84-5.17,8.15-9.04,14.97-10.9c1.57-0.41,3.2-0.75,4.84-1c13.14-2.02,28.78,1,46.46,8.98
							c12.32,5.85,41.91,22.3,50.73,48.65c2,6.45,1.63,12.67-1.04,17.54c-2.66,4.88-7.69,8.56-14.17,10.36
							C409.38,464.47,407.71,464.8,406.03,465.06z M329.25,383.21c-0.54,0.08-1.07,0.17-1.6,0.27c-3.88,0.81-10.91,3.1-14.24,9.22
							c-3.34,6.13-1.46,13.28-0.04,16.99c5.1,12.51,16.23,24.93,31.32,34.97c13.85,9.21,30.01,15.74,44.36,17.93
							c4.34,0.62,10.83,1.16,17.12,0.19c8.16-1.25,13.9-4.67,17.08-10.17c6.29-12.23-3.65-26.64-10.14-34.13
							c-9.59-10.87-23.83-20.93-39.07-27.6C358.15,383.94,342.25,381.21,329.25,383.21z M329.36,380.71
							c-1.57,0.24-3.12,0.56-4.61,0.95c-6.22,1.7-11.05,5.18-13.59,9.82c-2.52,4.63-2.84,10.58-0.9,16.75
							c2.28,6.98,6.44,13.77,12.46,20.32c-5.04-5.81-8.92-11.91-11.42-18.04c-1.56-4.09-3.61-11.95,0.16-18.86
							c3.75-6.91,11.48-9.44,15.75-10.34c0.57-0.11,1.13-0.2,1.7-0.29c5.96-0.92,12.51-0.87,19.37,0.08
							C341.48,379.95,335.16,379.82,329.36,380.71z"/>
						<path d="M405.91,464.33c-25.31,3.89-52.09-10.52-62.89-17.22c-18.21-11.81-29.7-24.74-34.17-38.43
							c-2.07-6.56-1.71-12.92,1.01-17.91c2.74-4.99,7.89-8.73,14.51-10.54c13.94-3.65,31.03-0.98,50.8,7.94
							c12.23,5.81,41.6,22.13,50.34,48.21c1.93,6.25,1.58,12.26-0.98,16.95l0,0.01c-2.56,4.7-7.43,8.25-13.71,10
							C409.19,463.75,407.55,464.08,405.91,464.33z M329.14,382.48c-0.55,0.08-1.09,0.18-1.63,0.28c-4.01,0.84-11.28,3.21-14.75,9.6
							c-3.49,6.39-1.55,13.77-0.08,17.61c5.16,12.66,16.38,25.2,31.6,35.32c13.93,9.26,30.21,15.84,44.66,18.04
							c9.99,1.43,27.83,1.98,34.95-10.34c6.51-12.65-3.61-27.35-10.22-34.98c-9.66-10.96-24-21.09-39.33-27.79
							C358.25,383.18,342.29,380.46,329.14,382.48z M329.25,379.98c-1.6,0.25-3.16,0.57-4.69,0.97
							c-6.42,1.75-11.41,5.37-14.05,10.18c-2.62,4.81-2.96,10.97-0.95,17.33c4.41,13.53,15.8,26.32,33.86,38.03
							c6.55,4.06,19.01,10.98,33.44,14.88c-11.17-3.26-22.71-8.64-32.99-15.47c-15.33-10.2-26.65-22.86-31.87-35.66
							c-1.51-3.96-3.51-11.58,0.12-18.23c3.61-6.65,11.11-9.1,15.25-9.97c13.6-2.55,30.38,0.12,47.26,7.5
							c11.15,4.88,21.79,11.56,30.5,19.06c-10.99-9.84-23.37-16.48-30.26-19.75C357.42,380.98,342.11,378,329.25,379.98z"/>
					</g>
					<g>
						<path d="M406.02,465.02c-25.66,3.94-52.86-10.8-63.36-17.32c-18.35-11.9-29.94-24.95-34.46-38.8
							c-2.13-6.74-1.75-13.29,1.06-18.45c2.83-5.16,8.14-9.02,14.94-10.87c1.57-0.41,3.2-0.75,4.84-1c13.13-2.02,28.75,1,46.43,8.97
							c11.02,5.24,37.79,19.92,48.57,43.26c0.57,1.2,1.08,2.43,1.52,3.62c0.21,0.57,0.42,1.15,0.62,1.74
							c1.99,6.44,1.62,12.65-1.03,17.5c-2.65,4.87-7.67,8.54-14.14,10.34C409.37,464.42,407.7,464.76,406.02,465.02z M329.25,383.16
							c-0.54,0.08-1.08,0.17-1.61,0.27c-3.89,0.82-10.93,3.11-14.27,9.25c-3.35,6.15-1.47,13.31-0.05,17.03
							c5.11,12.52,16.24,24.95,31.33,34.99c13.85,9.21,30.02,15.75,44.38,17.93c4.34,0.62,10.84,1.16,17.13,0.19c0,0,0,0,0,0
							c8.17-1.25,13.93-4.68,17.11-10.19c1.75-3.4,3.23-9.21,0.3-17.43c-0.44-1.18-0.94-2.38-1.48-3.54
							c-2.02-4.23-5.04-8.68-8.96-13.22c-9.6-10.88-23.84-20.94-39.08-27.61C358.16,383.89,342.25,381.16,329.25,383.16z
							 M329.36,380.66c-1.57,0.24-3.12,0.56-4.62,0.95c-6.23,1.7-11.07,5.2-13.62,9.84c-2.53,4.65-2.85,10.61-0.9,16.79
							c2.55,7.81,7.46,15.38,14.67,22.64c-6.07-6.51-10.7-13.43-13.54-20.39c-1.56-4.08-3.61-11.93,0.16-18.82
							c3.75-6.89,11.46-9.42,15.72-10.31c0.58-0.11,1.15-0.21,1.73-0.3c6.83-1.05,14.42-0.84,22.39,0.57
							C343.37,379.97,336.02,379.64,329.36,380.66z"/>
						<path d="M405.91,464.28c-25.29,3.89-52.06-10.51-62.86-17.21c-18.2-11.8-29.69-24.72-34.15-38.4
							c-2.06-6.55-1.7-12.89,1.01-17.87c2.73-4.98,7.88-8.71,14.48-10.52c13.92-3.65,31-0.98,50.77,7.93
							c11.38,5.4,37.59,19.91,48.21,42.9c0.59,1.23,1.08,2.42,1.49,3.56c0.21,0.57,0.42,1.14,0.61,1.72
							c1.93,6.23,1.58,12.24-0.98,16.91l0,0.01c-2.55,4.69-7.41,8.23-13.68,9.97C409.18,463.7,407.54,464.03,405.91,464.28z
							 M329.13,382.43c-0.55,0.08-1.09,0.18-1.63,0.28c-4.02,0.84-11.3,3.22-14.78,9.62c-3.49,6.41-1.55,13.81-0.09,17.65
							c5.17,12.67,16.39,25.22,31.61,35.34c13.94,9.27,30.22,15.85,44.68,18.05c10.01,1.43,27.86,1.98,35-10.36
							c1.78-3.47,3.4-9.51,0.35-18.05c-0.46-1.22-0.96-2.42-1.51-3.6c-1.91-4-4.81-8.46-9.07-13.39
							c-9.67-10.96-24.01-21.09-39.35-27.8C358.27,383.13,342.29,380.41,329.13,382.43z M329.24,379.93
							c-1.6,0.25-3.17,0.57-4.69,0.97c-6.43,1.75-11.44,5.38-14.09,10.2c-2.62,4.82-2.97,10.99-0.96,17.37
							c4.42,13.54,15.81,26.34,33.88,38.06c7.19,4.46,21.51,12.36,37.73,15.93c-12.45-3.05-25.64-8.91-37.23-16.61
							c-15.33-10.19-26.64-22.85-31.86-35.64c-1.51-3.95-3.5-11.55,0.12-18.19c3.61-6.63,11.09-9.08,15.22-9.94
							c13.59-2.56,30.36,0.12,47.23,7.5c12.62,5.52,24.57,13.35,33.83,22.06c-11.73-11.56-25.96-19.24-33.55-22.84
							C357.44,380.93,342.11,377.96,329.24,379.93z"/>
						<path d="M406.07,465.38c-25.78,3.96-53.07-10.83-63.61-17.37c-18.43-11.95-30.07-25.07-34.62-39
							c-2.16-6.84-1.77-13.5,1.09-18.74c2.88-5.25,8.27-9.17,15.16-11.05c1.58-0.41,3.22-0.75,4.87-1.01c13.21-2.03,28.91,1,46.65,9
							c11.06,5.25,37.92,19.99,48.76,43.44c0.58,1.21,1.09,2.45,1.53,3.65c0.21,0.57,0.42,1.15,0.62,1.74
							c2.03,6.54,1.65,12.86-1.06,17.8c-2.7,4.96-7.8,8.69-14.36,10.52C409.45,464.78,407.76,465.12,406.07,465.38z M329.3,383.53
							c-0.54,0.08-1.07,0.17-1.59,0.27c-3.82,0.8-10.75,3.05-14.02,9.06c-3.28,6.02-1.42,13.06-0.03,16.72
							c5.08,12.45,16.16,24.82,31.19,34.82c13.81,9.18,29.93,15.7,44.23,17.88c4.32,0.62,10.78,1.15,17.02,0.19c0,0,0,0,0,0
							c8.05-1.24,13.72-4.61,16.85-10.01c1.71-3.32,3.16-9.02,0.27-17.12c-0.44-1.17-0.93-2.35-1.47-3.51c-2-4.2-5-8.62-8.91-13.13
							c-9.56-10.84-23.76-20.87-38.95-27.51C358.07,384.26,342.23,381.54,329.3,383.53z"/>
						<path d="M405.96,464.65c-25.53,3.92-52.64-10.77-63.11-17.26c-18.28-11.85-29.81-24.83-34.3-38.6
							c-2.09-6.64-1.73-13.09,1.03-18.16c2.78-5.07,8.01-8.87,14.71-10.7c14.01-3.67,31.17-1,51.02,7.95
							c10.98,5.21,37.66,19.84,48.39,43.08c0.57,1.2,1.08,2.41,1.5,3.59c0.21,0.57,0.42,1.15,0.61,1.73
							c1.96,6.33,1.6,12.44-1.01,17.21c-2.6,4.78-7.54,8.39-13.91,10.16C409.29,464.06,407.63,464.39,405.96,464.65z M381.06,462.72
							c6.75,1.49,13.83,2.23,20.85,1.66c-4.79,0.27-9.43-0.13-13.04-0.64c-2.51-0.38-5.08-0.9-7.69-1.54L381.06,462.72z
							 M329.19,382.8c-0.55,0.08-1.09,0.18-1.62,0.28c-3.96,0.83-11.12,3.16-14.53,9.44c-3.42,6.28-1.51,13.56-0.07,17.34
							c5.14,12.6,16.32,25.09,31.47,35.17c13.89,9.24,30.12,15.79,44.53,17.99c9.91,1.41,27.6,1.97,34.62-10.18
							c1.79-3.48,3.31-9.39,0.33-17.74c-0.45-1.2-0.95-2.4-1.49-3.57c-2.03-4.26-5.07-8.74-9.02-13.3
							c-9.63-10.92-23.93-21.02-39.22-27.71C358.24,383.53,342.26,380.79,329.19,382.8z M329.3,380.3
							c-1.58,0.24-3.15,0.57-4.65,0.96c-6.33,1.73-11.25,5.29-13.85,10.02c-2.58,4.74-2.91,10.8-0.93,17.08
							c4.39,13.45,15.74,26.19,33.73,37.86c0.85,0.53,1.8,1.1,2.85,1.72c-0.93-0.58-1.84-1.17-2.75-1.78
							c-15.39-10.23-26.75-22.95-31.99-35.81c-1.53-4.01-3.55-11.74,0.14-18.51c3.68-6.76,11.27-9.25,15.47-10.13
							c13.64-2.57,30.49,0.1,47.45,7.52c0.85,0.37,1.69,0.75,2.53,1.14c-0.92-0.46-1.77-0.88-2.56-1.25
							C357.37,381.31,342.09,378.33,329.3,380.3z M408.25,411.84c2.05,1.92,3.96,3.89,5.72,5.89c2.74,3.17,5.05,6.3,6.9,9.35
							c-3.3-5.81-7.58-11.02-12.25-15.62L408.25,411.84z"/>
					</g>
				</g>
			</g>
		</g>
	</g>
	<g>
		<g>
			<path d="M568.28,474.24c1.67,1.62,2.6,3.46,2.79,5.51h-3.2c-0.36-1.56-1.07-2.8-2.13-3.71c-1.06-0.91-2.56-1.37-4.48-1.37
				c-2.35,0-4.24,0.84-5.68,2.52c-1.44,1.68-2.16,4.25-2.16,7.72c0,2.84,0.65,5.15,1.95,6.92c1.3,1.77,3.25,2.65,5.83,2.65
				c2.38,0,4.19-0.93,5.43-2.79c0.66-0.98,1.15-2.27,1.48-3.86h3.2c-0.28,2.55-1.22,4.69-2.81,6.42c-1.9,2.08-4.47,3.12-7.7,3.12
				c-2.78,0-5.12-0.85-7.02-2.56c-2.49-2.26-3.74-5.74-3.74-10.46c0-3.58,0.94-6.51,2.81-8.8c2.02-2.49,4.81-3.73,8.37-3.73
				C564.25,471.81,566.61,472.62,568.28,474.24z"/>
			<path d="M673.96,475.94c1.61,2.15,2.41,4.89,2.41,8.24c0,3.62-0.92,6.63-2.76,9.03c-2.16,2.82-5.23,4.23-9.23,4.23
				c-3.73,0-6.66-1.23-8.8-3.7c-1.9-2.38-2.86-5.38-2.86-9.01c0-3.28,0.81-6.09,2.44-8.42c2.09-2.99,5.18-4.49,9.28-4.49
				C668.73,471.81,671.9,473.19,673.96,475.94z M671.06,491.4c1.29-2.08,1.94-4.46,1.94-7.16c0-2.85-0.75-5.15-2.24-6.89
				c-1.49-1.74-3.53-2.61-6.12-2.61c-2.51,0-4.56,0.86-6.14,2.59c-1.58,1.72-2.38,4.27-2.38,7.63c0,2.69,0.68,4.95,2.04,6.8
				c1.36,1.84,3.56,2.77,6.61,2.77C667.68,494.51,669.77,493.48,671.06,491.4z"/>
			<path d="M758.64,472.47h4.71l6.97,20.5l6.92-20.5h4.67v24.25h-3.14v-14.31c0-0.5,0.01-1.32,0.03-2.46
				c0.02-1.14,0.03-2.37,0.03-3.68l-6.92,20.45h-3.26l-6.99-20.45v0.74c0,0.59,0.02,1.5,0.05,2.72c0.03,1.22,0.05,2.11,0.05,2.68
				v14.31h-3.14V472.47z"/>
			<path d="M865.64,472.47h10.85c2.15,0,3.88,0.61,5.2,1.82c1.32,1.22,1.98,2.92,1.98,5.13c0,1.89-0.59,3.54-1.77,4.94
				c-1.18,1.4-2.98,2.1-5.4,2.1h-7.57v10.25h-3.29V472.47z M878.39,475.81c-0.72-0.34-1.71-0.51-2.97-0.51h-6.49v8.4h6.49
				c1.46,0,2.65-0.31,3.57-0.94c0.91-0.63,1.37-1.73,1.37-3.32C880.35,477.66,879.7,476.45,878.39,475.81z"/>
			<path d="M970.88,472.47h3.71l8.8,24.25h-3.6l-2.46-7.26h-9.59l-2.62,7.26h-3.37L970.88,472.47z M976.28,486.79l-3.68-10.71
				l-3.91,10.71H976.28z"/>
			<path d="M1064.82,472.47h3.87l12.09,19.59v-19.59h3.14v24.25h-3.69l-12.27-19.57v19.57h-3.14V472.47z"/>
			<path d="M1165.81,472.47h3.83l6.97,11.66l6.97-11.66h3.86l-9.18,14.48v9.77h-3.29v-9.77L1165.81,472.47z"/>
		</g>
		<g>
			<path class="st0" d="M902.48,432.29h9.36l-30.06-66.12h-12.5l-30.06,66.12h9.36l7.06-15.47h21.81l-1.21-2.83h-19.15l18.43-43.67
				l3.18,7.53C886.42,396.09,894.28,414.27,902.48,432.29L902.48,432.29z"/>
			<path class="st0" d="M719.19,432.29h9.36l-30.06-66.12H686l-30.06,66.12h9.36l7.06-15.47h21.81l-1.21-2.83h-19.15l18.43-43.67
				l3.18,7.53C703.13,396.09,710.99,414.27,719.19,432.29L719.19,432.29z"/>
			<path class="st0" d="M1178.97,432.33h8.48v-66.16h-8.48v31.66h-22.66h-3.89v2.83h3.89h22.66V432.33L1178.97,432.33z
				 M1139.94,366.17h-8.48v66.16h8.48V366.17L1139.94,366.17z"/>
			<polygon class="st0" points="550.04,366.17 550.04,432.33 558.52,432.33 558.52,374.21 588.9,429.89 619.28,374.21 
				619.28,432.33 627.76,432.33 627.76,366.17 617.86,366.17 588.9,418.18 559.94,366.17 550.04,366.17 			"/>
			<path class="st0" d="M776.19,366.17v2.83h24.26v47.75c0,2.82-0.84,5.47-2.54,7.72c-7.3,9.62-27.8,8.1-31.06-4.27h-8.47
				c5.02,18.41,50.56,17.3,50.56-3.45v-50.58H776.19L776.19,366.17z"/>
			<path class="st0" d="M939.68,366.17v66.16h8.48v-63.33h18.4c6.73,0,13.3,3.82,15.9,10.15c0.71,1.73,1.08,3.57,1.08,5.44
				c0,1.87-0.37,3.71-1.08,5.44c-2.6,6.33-9.17,10.15-15.9,10.15h-2.04h-3.42v1.57v0.63v0.63c34.48-0.79,6.47,32.71,32.1,36.06
				c0.81,0.11,11.82,0.84,7.82-1.18c-21.92-11.08-0.24-29.72-24.05-35.65c5.85-1.53,11.07-5.32,13.6-10.96
				c0.95-2.12,1.45-4.38,1.45-6.7c0-2.32-0.5-4.59-1.45-6.7c-3.36-7.49-11.47-11.72-19.47-11.72H939.68L939.68,366.17z"/>
			<path class="st0" d="M1094.73,432.29h9.36l-30.06-66.12h-12.5l-30.06,66.12h9.36l7.06-15.47h21.81l-1.21-2.83h-19.15l18.43-43.67
				l3.18,7.53C1078.66,396.09,1086.53,414.27,1094.73,432.29L1094.73,432.29z"/>
		</g>
		<g>
			<path d="M1201.23,376.01c0-5.45,4.34-9.84,9.84-9.84c5.58,0,9.84,4.34,9.84,9.79c0,5.54-4.34,9.79-9.84,9.79
				C1205.61,385.76,1201.23,381.55,1201.23,376.01z M1219.13,375.97c0-4.83-3.37-8.2-8.07-8.2c-4.7,0-8.07,3.41-8.07,8.24
				c0,4.88,3.55,8.15,8.07,8.15C1215.63,384.17,1219.13,380.8,1219.13,375.97z M1207.7,371h3.41c2.26,0,3.72,0.93,3.72,2.92v0.04
				c0,1.46-0.84,2.26-1.99,2.61l2.57,4.12h-2.22l-2.35-3.77h-1.02v3.77h-2.13V371z M1211.07,375.48c1.11,0,1.68-0.49,1.68-1.42
				v-0.04c0-1.02-0.62-1.37-1.68-1.37h-1.24v2.84H1211.07z"/>
		</g>
	</g>
</g>
</svg>
