<?xml version="1.0" encoding="UTF-8"?>
<svg version="1.1" xmlns="http://www.w3.org/2000/svg" width="400" height="400">
<path d="M0 0 C0.92941406 0.65097656 1.85882813 1.30195313 2.81640625 1.97265625 C5.57346488 3.94534543 8.29069188 5.96229502 11 8 C12.03898438 8.77085937 13.07796875 9.54171875 14.1484375 10.3359375 C21.8714574 16.12099704 29.0137883 22.34928435 36 29 C37.15242188 30.05574219 37.15242188 30.05574219 38.328125 31.1328125 C53.74316353 45.71610435 69.91895423 67.62222184 71.203125 89.453125 C71.33118779 99.8262106 70.37614932 107.49846758 64 116 C63.443125 116.825 62.88625 117.65 62.3125 118.5 C53.37697285 128.16002935 39.79060498 132.28332677 26.95825195 133.22265625 C-0.72022486 134.19759083 -28.38069916 130.11703307 -53.69921875 118.4921875 C-56.33323613 117.30142461 -58.95612087 116.22808931 -61.6484375 115.18359375 C-67.57172608 112.83317947 -73.24419477 110.04322417 -78.9375 107.1875 C-79.94490234 106.69185547 -80.95230469 106.19621094 -81.99023438 105.68554688 C-88.05703677 102.65409642 -93.81570609 99.3480928 -99.49291992 95.63720703 C-102.09260351 93.93952681 -104.72776338 92.30979461 -107.375 90.6875 C-112.9310681 87.1649208 -118.08319743 83.19703511 -123.25 79.13671875 C-125.99158201 76.95326167 -125.99158201 76.95326167 -129 75 C-129 74.34 -129 73.68 -129 73 C-129.54527344 72.77054687 -130.09054688 72.54109375 -130.65234375 72.3046875 C-143.52940071 65.1483863 -155.06680599 50.04002424 -163 38 C-163.51046875 37.29746094 -164.0209375 36.59492188 -164.546875 35.87109375 C-174.59423425 21.80996984 -178.12723637 6.96057186 -177 -10 C-175.89929535 -15.80079382 -173.54641221 -20.27145039 -170 -25 C-169.46375 -25.825 -168.9275 -26.65 -168.375 -27.5 C-128.2772042 -69.70820611 -37.2297444 -26.19870902 0 0 Z M-100 29 C-102.71296735 31.71296735 -102.70586665 33.77674782 -103.015625 37.51171875 C-102.94529955 48.71104707 -94.46492799 57.63265741 -87.125 65.25 C-82.42254448 69.78093739 -77.52623623 73.53426042 -72 77 C-70.97390625 77.65871094 -69.9478125 78.31742188 -68.890625 78.99609375 C-53.37474893 88.45219794 -33.32911548 95.70638272 -15.02734375 91.28125 C-10.61933696 89.45623216 -7.1058112 87.39473641 -5 83 C-3.4198793 73.81292654 -5.69640403 66.51113765 -11 59 C-26.23178943 40.19231595 -49.66680915 26.5311026 -73.765625 23.53125 C-83.87616311 22.64506738 -91.76154526 22.56998655 -100 29 Z " fill="#030303" transform="translate(255,155)"/>
<path d="M0 0 C3.82176477 2.8404342 7.43180225 5.84879577 11 9 C11.97453125 9.84175781 12.9490625 10.68351562 13.953125 11.55078125 C28.90526779 24.6750396 43.36784219 41.14038108 45.875 61.625 C46.36071817 70.16149687 44.51139317 77.34977303 39 84 C33.54781394 89.36544674 27.19094965 91.7346766 20 94 C19.01 94.33 18.02 94.66 17 95 C1.01507128 96.04134004 -14.61559853 95.61326095 -30 91 C-30 90.67 -30 90.34 -30 90 C-28.9378125 89.90203125 -27.875625 89.8040625 -26.78125 89.703125 C-14.05193658 88.54818456 -14.05193658 88.54818456 -3.625 81.5625 C-0.3950456 76.46911037 0.8390188 72.05367993 0 66 C-4.67771536 49.1378165 -17.47529309 36.03057865 -32 27 C-33.01320313 26.35417969 -34.02640625 25.70835937 -35.0703125 25.04296875 C-53.17901057 14.05590484 -71.80368302 9.08990268 -93 11 C-99.73356305 12.74936912 -104.20227589 16.24216022 -108 22 C-110.61275998 30.17541025 -108.80564049 38.15088673 -106 46 C-119.585977 35.7350396 -130.82583769 18.81448141 -134 2 C-134.87803088 -5.27157971 -133.7083482 -12.1426556 -129.453125 -18.203125 C-99.38206392 -54.12872895 -30.28479724 -20.92615548 0 0 Z " fill="#020202" transform="translate(255,162)"/>
<path d="M0 0 C0.92941406 0.65097656 1.85882813 1.30195313 2.81640625 1.97265625 C5.57346488 3.94534543 8.29069188 5.96229502 11 8 C12.03898438 8.77085937 13.07796875 9.54171875 14.1484375 10.3359375 C21.8714574 16.12099704 29.0137883 22.34928435 36 29 C37.15242188 30.05574219 37.15242188 30.05574219 38.328125 31.1328125 C53.74316353 45.71610435 69.91895423 67.62222184 71.203125 89.453125 C71.33118779 99.8262106 70.37614932 107.49846758 64 116 C63.443125 116.825 62.88625 117.65 62.3125 118.5 C53.37697285 128.16002935 39.79060498 132.28332677 26.95825195 133.22265625 C-0.72022486 134.19759083 -28.38069916 130.11703307 -53.69921875 118.4921875 C-56.33323613 117.30142461 -58.95612087 116.22808931 -61.6484375 115.18359375 C-67.57172608 112.83317947 -73.24419477 110.04322417 -78.9375 107.1875 C-79.94490234 106.69185547 -80.95230469 106.19621094 -81.99023438 105.68554688 C-88.05703677 102.65409642 -93.81570609 99.3480928 -99.49291992 95.63720703 C-102.09260351 93.93952681 -104.72776338 92.30979461 -107.375 90.6875 C-112.9310681 87.1649208 -118.08319743 83.19703511 -123.25 79.13671875 C-125.99158201 76.95326167 -125.99158201 76.95326167 -129 75 C-129 74.34 -129 73.68 -129 73 C-129.54527344 72.77054687 -130.09054688 72.54109375 -130.65234375 72.3046875 C-143.52940071 65.1483863 -155.06680599 50.04002424 -163 38 C-163.51046875 37.29746094 -164.0209375 36.59492188 -164.546875 35.87109375 C-174.59423425 21.80996984 -178.12723637 6.96057186 -177 -10 C-175.89929535 -15.80079382 -173.54641221 -20.27145039 -170 -25 C-169.46375 -25.825 -168.9275 -26.65 -168.375 -27.5 C-128.2772042 -69.70820611 -37.2297444 -26.19870902 0 0 Z M-163.125 -22.625 C-169.49755487 -15.28446212 -170.88603381 -7.71328012 -170.4375 1.81640625 C-168.9930902 19.18543415 -158.17825176 34.32743334 -147 47 C-146.2575 47.85207031 -145.515 48.70414062 -144.75 49.58203125 C-127.73715639 68.81008887 -107.43058865 84.53572972 -85 97 C-84.195625 97.45197754 -83.39125 97.90395508 -82.5625 98.36962891 C-71.16449664 104.71952103 -59.57955125 110.21600417 -47.4375 115 C-46.30932861 115.44456543 -45.18115723 115.88913086 -44.01879883 116.34716797 C-33.68130344 120.30781879 -23.12139599 123.55995305 -12.25 125.6875 C-11.10015625 125.91824219 -9.9503125 126.14898437 -8.765625 126.38671875 C8.49875194 129.19844819 28.57966749 130.87142342 45 124 C45.77988281 123.68804687 46.55976563 123.37609375 47.36328125 123.0546875 C55.40784033 119.44902825 61.7645884 113.57233037 65.078125 105.3125 C69.18685127 90.54894121 64.38908753 76.65342697 57.1875 63.75 C51.62622382 54.21751006 44.39066441 46.13759326 37 38 C37 41.6235132 38.01994438 43.12720238 39.8125 46.25 C46.08199251 57.47607952 50.2109282 68.17278928 46.875 81.0625 C43.91271683 89.9082067 38.3000927 95.83760232 30 100 C2.50351629 110.54705809 -28.32313118 103.74837517 -54.4375 92.125 C-57.31478823 90.79481742 -60.16107524 89.40995778 -63 88 C-63.7120459 87.65211426 -64.4240918 87.30422852 -65.15771484 86.94580078 C-81.75130406 78.7742902 -96.34471308 68.44596262 -110 56 C-110.76957031 55.30261719 -111.53914063 54.60523438 -112.33203125 53.88671875 C-125.7346036 41.11858769 -137.76648919 22.88997095 -138.4375 4 C-138.22460055 -4.52523453 -135.93417168 -12.01700519 -130.01953125 -18.3359375 C-116.52074213 -29.45873086 -101.55192184 -29.4073111 -85 -30 C-95.4229143 -35.52337546 -108.8784675 -35.28447174 -120.375 -35.3125 C-121.44314941 -35.31781738 -122.51129883 -35.32313477 -123.61181641 -35.32861328 C-138.1251575 -35.20085105 -152.07082929 -32.77968787 -163.125 -22.625 Z M-128.8125 -12.1875 C-133.20874702 -5.78154006 -135.1930856 1.26788753 -134 9 C-129.85174568 25.93870513 -120.13587631 42.48870736 -106 53 C-106.2165625 52.39414063 -106.433125 51.78828125 -106.65625 51.1640625 C-109.19100039 43.53634142 -110.17683831 36.98817428 -107.875 29.1875 C-104.4599877 23.38197909 -99.4299428 19.87496596 -93 18 C-89.42848131 17.57872558 -85.90531035 17.57103272 -82.3125 17.625 C-81.32789795 17.63660156 -80.3432959 17.64820313 -79.32885742 17.66015625 C-56.7598112 18.16753542 -35.81233147 29.48025918 -19 44 C-18.2265625 44.66515625 -17.453125 45.3303125 -16.65625 46.015625 C-8.13312127 53.8966002 -0.76121145 65.13414837 0.375 76.875 C0.20890196 82.65521181 -2.27124958 87.11871278 -6.125 91.3125 C-13.51524507 95.65025254 -21.5741228 96.53545544 -30 97 C-20.84801796 103.10132136 -7.861377 102.33991186 2.6875 102.4375 C3.91001465 102.4595752 5.1325293 102.48165039 6.39208984 102.50439453 C18.33178344 102.47701361 28.65629171 99.63400847 38 92 C43.67218568 86.17854627 45.98719523 79.00298289 46 71 C44.11605843 48.22143379 27.39037662 29.69670357 10.86328125 15.3046875 C-11.42150674 -2.63259069 -37.89575354 -16.84996133 -66 -23 C-67.01320313 -23.22171875 -68.02640625 -23.4434375 -69.0703125 -23.671875 C-90.13148068 -27.42736041 -112.90966796 -28.09033204 -128.8125 -12.1875 Z M-100 29 C-102.71296735 31.71296735 -102.70586665 33.77674782 -103.015625 37.51171875 C-102.94529955 48.71104707 -94.46492799 57.63265741 -87.125 65.25 C-82.42254448 69.78093739 -77.52623623 73.53426042 -72 77 C-70.97390625 77.65871094 -69.9478125 78.31742188 -68.890625 78.99609375 C-53.37474893 88.45219794 -33.32911548 95.70638272 -15.02734375 91.28125 C-10.61933696 89.45623216 -7.1058112 87.39473641 -5 83 C-3.4198793 73.81292654 -5.69640403 66.51113765 -11 59 C-26.23178943 40.19231595 -49.66680915 26.5311026 -73.765625 23.53125 C-83.87616311 22.64506738 -91.76154526 22.56998655 -100 29 Z " fill="#F0F0F0" transform="translate(255,155)"/>
<path d="M0 0 C0.92941406 0.65097656 1.85882813 1.30195313 2.81640625 1.97265625 C5.57346488 3.94534543 8.29069188 5.96229502 11 8 C12.03898438 8.77085937 13.07796875 9.54171875 14.1484375 10.3359375 C21.8714574 16.12099704 29.0137883 22.34928435 36 29 C37.15242188 30.05574219 37.15242188 30.05574219 38.328125 31.1328125 C53.74316353 45.71610435 69.91895423 67.62222184 71.203125 89.453125 C71.33118779 99.8262106 70.37614932 107.49846758 64 116 C63.443125 116.825 62.88625 117.65 62.3125 118.5 C53.37697285 128.16002935 39.79060498 132.28332677 26.95825195 133.22265625 C-0.72022486 134.19759083 -28.38069916 130.11703307 -53.69921875 118.4921875 C-56.33323613 117.30142461 -58.95612087 116.22808931 -61.6484375 115.18359375 C-67.57172608 112.83317947 -73.24419477 110.04322417 -78.9375 107.1875 C-79.94490234 106.69185547 -80.95230469 106.19621094 -81.99023438 105.68554688 C-88.05703677 102.65409642 -93.81570609 99.3480928 -99.49291992 95.63720703 C-102.09260351 93.93952681 -104.72776338 92.30979461 -107.375 90.6875 C-112.9310681 87.1649208 -118.08319743 83.19703511 -123.25 79.13671875 C-125.99158201 76.95326167 -125.99158201 76.95326167 -129 75 C-129 74.34 -129 73.68 -129 73 C-129.54527344 72.77054687 -130.09054688 72.54109375 -130.65234375 72.3046875 C-143.52940071 65.1483863 -155.06680599 50.04002424 -163 38 C-163.51046875 37.29746094 -164.0209375 36.59492188 -164.546875 35.87109375 C-174.59423425 21.80996984 -178.12723637 6.96057186 -177 -10 C-175.89929535 -15.80079382 -173.54641221 -20.27145039 -170 -25 C-169.46375 -25.825 -168.9275 -26.65 -168.375 -27.5 C-128.2772042 -69.70820611 -37.2297444 -26.19870902 0 0 Z M-168 -25 C-175.3260999 -14.36050491 -176.81617644 -3.57983315 -174.63378906 9.13330078 C-169.86338448 29.0827162 -155.80935974 45.52537184 -142 60 C-141.27167969 60.78117187 -140.54335937 61.56234375 -139.79296875 62.3671875 C-103.31428507 100.40247549 -43.12225108 129.65232395 9.41796875 131.23828125 C27.16071117 131.5263802 45.20598362 131.39709397 59.30859375 118.96484375 C67.37816283 110.56953059 69.65195956 102.27330097 69.5390625 90.88598633 C68.56076028 67.29667408 50.50952467 47.25922979 35 31 C34.31164062 30.27039063 33.62328125 29.54078125 32.9140625 28.7890625 C4.31889639 -0.73982332 -36.20180964 -21.44319195 -75.14306641 -33.42724609 C-76.70867219 -33.91014264 -78.26734409 -34.41543644 -79.82421875 -34.92578125 C-93.76694715 -39.19396341 -108.50185999 -40.27560139 -123 -40.375 C-124.09634766 -40.38877686 -125.19269531 -40.40255371 -126.32226562 -40.41674805 C-141.00564935 -40.33377233 -157.96055358 -36.65292887 -168 -25 Z " fill="#0E0E0E" transform="translate(255,155)"/>
<path d="M0 0 C0.98460205 0.01160156 1.9692041 0.02320313 2.98364258 0.03515625 C28.96672912 0.61928713 53.08455909 15.35646715 70.9140625 33.5234375 C77.52221995 41.38004163 83.94741823 51.75392288 83.625 62.29296875 C82.84100835 67.51631314 80.31268474 71.78036048 76.375 75.25 C72.59952235 77.86971919 69.92895895 79.375 65.3125 79.375 C65.3125 78.715 65.3125 78.055 65.3125 77.375 C64.13816406 77.43300781 62.96382813 77.49101562 61.75390625 77.55078125 C36.7801659 78.40815898 13.34885158 68.21949893 -5.01171875 51.38671875 C-10.60351131 46.06744885 -16.28934144 40.39488017 -19.6875 33.375 C-19.6875 32.385 -19.6875 31.395 -19.6875 30.375 C-21.0075 30.375 -22.3275 30.375 -23.6875 30.375 C-23.6875 31.035 -23.6875 31.695 -23.6875 32.375 C-24.3475 32.375 -25.0075 32.375 -25.6875 32.375 C-28.46223186 25.78501184 -28.55642001 19.4417765 -26.625 12.625 C-20.49593124 2.34398144 -11.33539656 -0.17026797 0 0 Z M-17.6875 12.375 C-20.40046735 15.08796735 -20.39336665 17.15174782 -20.703125 20.88671875 C-20.63279955 32.08604707 -12.15242799 41.00765741 -4.8125 48.625 C-0.11004448 53.15593739 4.78626377 56.90926042 10.3125 60.375 C11.33859375 61.03371094 12.3646875 61.69242188 13.421875 62.37109375 C28.93775107 71.82719794 48.98338452 79.08138272 67.28515625 74.65625 C71.69316304 72.83123216 75.2066888 70.76973641 77.3125 66.375 C78.8926207 57.18792654 76.61609597 49.88613765 71.3125 42.375 C56.08071057 23.56731595 32.64569085 9.9061026 8.546875 6.90625 C-1.56366311 6.02006738 -9.44904526 5.94498655 -17.6875 12.375 Z " fill="#EFEFEF" transform="translate(172.6875,171.625)"/>
<path d="M0 0 C5.22799565 0.43148525 8.43750564 3.20762279 12.4375 6.3125 C13.13907227 6.84939453 13.84064453 7.38628906 14.56347656 7.93945312 C38.43807078 26.3806674 66.45214782 51.0375432 73 82 C74.4413627 94.28850592 73.39825012 104.71238503 65.625 114.6875 C55.91854419 124.86217074 41.12696935 128.96298343 27.421875 129.36328125 C25.19785286 129.36492441 22.97374502 129.34764655 20.75 129.3125 C19.58138428 129.3026709 18.41276855 129.2928418 17.20874023 129.28271484 C-7.42964095 128.91916154 -7.42964095 128.91916154 -14 125 C-13.34 124.01 -12.68 123.02 -12 122 C-10.78570312 122.2165625 -9.57140625 122.433125 -8.3203125 122.65625 C10.22040523 125.75218099 31.20773399 128.46044583 49 121 C49.79148437 120.67644531 50.58296875 120.35289062 51.3984375 120.01953125 C59.09732816 116.51353086 64.869374 111.29964372 68.08203125 103.30859375 C72.17926341 88.54112295 67.39012645 74.65667294 60.1875 61.75 C56.66638699 55.70916085 52.57604722 50.27655544 48 45 C47.32066406 44.21109375 46.64132812 43.4221875 45.94140625 42.609375 C44.30670539 40.7279889 42.66095663 38.85819523 41 37 C41.58007812 37.90878906 41.58007812 37.90878906 42.171875 38.8359375 C49.25938847 50.23911512 55.06640115 62.8344879 52.53515625 76.51171875 C50.04115956 86.14828585 44.48763746 92.89830736 36 98 C19.60343151 106.54984017 0.64153074 104.56604083 -17 102 C-16.34 100.68 -15.68 99.36 -15 98 C-13.98123779 98.16008545 -12.96247559 98.3201709 -11.9128418 98.48510742 C-5.88173334 99.27874364 0.11147418 99.26625932 6.1875 99.3125 C7.43853516 99.34150391 8.68957031 99.37050781 9.97851562 99.40039062 C21.81690441 99.48050466 32.90908756 97.01043514 42 89 C47.17966244 83.33791801 48.61804955 76.51487517 49 69 C47.8722919 48.84221765 33.60150741 31.59177124 19.32421875 18.45849609 C13.58620496 13.36188672 7.65532012 8.52153608 1.29296875 4.21875 C0.86628906 3.8165625 0.43960938 3.414375 0 3 C0 2.01 0 1.02 0 0 Z " fill="#EDEDED" transform="translate(251,157)"/>
<path d="M0 0 C17.6269408 9.29258447 34.33574114 20.97166838 42.46484375 39.81640625 C43.79954072 45.82254263 43.42441211 50.39161905 40.4921875 55.765625 C36.92286655 60.50814893 31.84633079 62.79713917 26.08984375 63.62890625 C2.25250574 65.43476519 -20.75749339 55.89916591 -38.91015625 40.62890625 C-48.87612792 31.8463755 -58.20419988 22.12831582 -60.2265625 8.49609375 C-60.52904425 3.36366155 -59.21959593 0.46088904 -55.91015625 -3.37109375 C-40.60067511 -14.9313142 -15.6866583 -7.73668314 0 0 Z M-54.91015625 -1.37109375 C-57.6231236 1.3418736 -57.6160229 3.40565407 -57.92578125 7.140625 C-57.8554558 18.33995332 -49.37508424 27.26156366 -42.03515625 34.87890625 C-37.33270073 39.40984364 -32.43639248 43.16316667 -26.91015625 46.62890625 C-25.8840625 47.28761719 -24.85796875 47.94632813 -23.80078125 48.625 C-8.28490518 58.08110419 11.76072827 65.33528897 30.0625 60.91015625 C34.47050679 59.08513841 37.98403255 57.02364266 40.08984375 52.62890625 C41.66996445 43.44183279 39.39343972 36.1400439 34.08984375 28.62890625 C18.85805432 9.8212222 -4.5769654 -3.83999115 -28.67578125 -6.83984375 C-38.78631936 -7.72602637 -46.67170151 -7.8011072 -54.91015625 -1.37109375 Z " fill="#0E0E0E" transform="translate(209.91015625,185.37109375)"/>
<path d="M0 0 C0.99 0.33 1.98 0.66 3 1 C6.47815362 8.32242868 5.52747092 16.10508725 3.03515625 23.58203125 C-0.78005871 32.49379751 -7.95523348 38.40044329 -16.6875 42.25 C-32.33471451 47.98333051 -48.87879114 46.34490311 -65 44 C-64.34 42.68 -63.68 41.36 -63 40 C-61.98123779 40.16008545 -60.96247559 40.3201709 -59.9128418 40.48510742 C-53.88173334 41.27874364 -47.88852582 41.26625932 -41.8125 41.3125 C-40.56146484 41.34150391 -39.31042969 41.37050781 -38.02148438 41.40039062 C-26.18309559 41.48050466 -15.09091244 39.01043514 -6 31 C-0.13964174 24.59382406 1.1784614 16.24549046 0.890625 7.78515625 C0.66218104 5.17484807 0.37764983 2.59251506 0 0 Z " fill="#E4E4E4" transform="translate(299,215)"/>
<path d="M0 0 C4.53987661 1.42752976 7.51455634 3.93713834 10.8125 7.25 C11.33440918 7.77287598 11.85631836 8.29575195 12.39404297 8.83447266 C19.89120653 16.66853554 26.31625932 26.93467965 27.375 37.875 C27.21213623 43.19860956 25.18014799 47.64066176 21.57421875 51.54296875 C17.72583173 54.93392475 14.1474727 57 9 57 C9 56.34 9 55.68 9 55 C8.34 54.67 7.68 54.34 7 54 C7.59167969 53.84144531 8.18335938 53.68289062 8.79296875 53.51953125 C15.04957208 51.67214919 19.0381266 49.55005662 22.3125 43.625 C24.23163115 36.29740835 22.38421018 30.52740836 19 24 C14.91026378 17.64300949 9.62876023 12.50658693 4.13671875 7.359375 C1.9673972 4.96399984 0.97980588 3.05309677 0 0 Z " fill="#E8E8E8" transform="translate(229,194)"/>
<path d="M0 0 C5.45123542 4.28311355 7.58140261 10.96516891 8.5 17.625 C7.72578866 22.85092656 6.25268589 27.09532821 2.12890625 30.58203125 C-4.19206736 34.72830317 -9.83625905 35.18092459 -17.3125 35.1875 C-18.03373047 35.19974609 -18.75496094 35.21199219 -19.49804688 35.22460938 C-24.64395477 35.23845487 -29.0513815 34.41468981 -34 33 C-33.67 32.34 -33.34 31.68 -33 31 C-31.85402344 31.15855469 -30.70804688 31.31710938 -29.52734375 31.48046875 C-13.53469478 33.50790355 -13.53469478 33.50790355 1 28 C4.79956549 24.00827258 4.48084383 20.39810323 4.37109375 15.1171875 C3.90851126 11.2314946 2.71267518 8.26634227 0.875 4.83984375 C0 3 0 3 0 0 Z " fill="#141414" transform="translate(245,214)"/>
<path d="M0 0 C1.20438721 0.34417969 2.40877441 0.68835938 3.6496582 1.04296875 C4.76816162 1.37941406 5.88666504 1.71585938 7.0390625 2.0625 C8.04404785 2.36285156 9.0490332 2.66320312 10.08447266 2.97265625 C11.21828369 3.48119141 11.21828369 3.48119141 12.375 4 C12.87 5.485 12.87 5.485 13.375 7 C11.89511629 6.60685595 10.41617093 6.21018119 8.9375 5.8125 C7.92558594 5.54050781 6.91367188 5.26851562 5.87109375 4.98828125 C3.43408568 4.299384 1.00999475 3.56381942 -1.40234375 2.79296875 C-18.45018346 -2.64320463 -35.80475012 -4.36900214 -53.625 -5 C-53.625 -5.33 -53.625 -5.66 -53.625 -6 C-51.7920726 -6.17107322 -49.95862803 -6.3366074 -48.125 -6.5 C-47.1040625 -6.5928125 -46.083125 -6.685625 -45.03125 -6.78125 C-29.45701889 -7.78142998 -14.89235667 -4.3254584 0 0 Z " fill="#101010" transform="translate(181.625,120)"/>
<path d="M0 0 C0 0.33 0 0.66 0 1 C-0.8521106 1.06731323 -0.8521106 1.06731323 -1.72143555 1.13598633 C-29.0992412 3.05222431 -29.0992412 3.05222431 -52 17 C-53.8149543 19.5893348 -55.45372125 22.24269764 -57 25 C-57.66 24.34 -58.32 23.68 -59 23 C-57.68699296 20.98359632 -56.35186175 18.98997831 -55 17 C-54.46375 16.175 -53.9275 15.35 -53.375 14.5 C-39.39236706 -0.21856099 -18.72903723 -0.33018871 0 0 Z " fill="#0C0C0C" transform="translate(140,113)"/>
<path d="M0 0 C0.87785156 0.15339844 1.75570312 0.30679688 2.66015625 0.46484375 C8.54875727 1.30607247 14.50008969 1.36491024 20.4375 1.5625 C21.64599609 1.60568359 22.85449219 1.64886719 24.09960938 1.69335938 C27.06630606 1.79889404 30.03307902 1.90100714 33 2 C32.67 2.99 32.34 3.98 32 5 C22.27073492 8.9326235 8.1213983 5.47220339 -2 4 C-1.34 2.68 -0.68 1.36 0 0 Z " fill="#D3D3D3" transform="translate(236,255)"/>
<path d="M0 0 C1 3 1 3 0 6 C-1.30080136 24.65720801 3.31813408 38.18779374 13 54 C13.33 54.66 13.66 55.32 14 56 C13.01 56 12.02 56 11 56 C1.17046734 45.59225953 -3.08827036 29.78692047 -3.25 15.875 C-3.25950684 15.20549316 -3.26901367 14.53598633 -3.27880859 13.84619141 C-3.2509318 9.66157502 -3.19035983 3.19035983 0 0 Z " fill="#151515" transform="translate(81,137)"/>
<path d="M0 0 C0.66 0 1.32 0 2 0 C2 7.51691325 -2.13449708 12.54838864 -7 18 C-15.0164793 25.18308294 -25.203037 29.60738316 -36 30 C-36.66 29.34 -37.32 28.68 -38 28 C-36.97261719 27.78085937 -35.94523437 27.56171875 -34.88671875 27.3359375 C-22.66741372 24.59786697 -11.14360744 21.1036507 -4 10 C-2.43216675 6.73368072 -1.13471454 3.4393832 0 0 Z " fill="#131313" transform="translate(323,257)"/>
<path d="M0 0 C0.66 0.33 1.32 0.66 2 1 C0.19653864 2.89838038 -1.37381944 4.23141203 -3.625 5.625 C-6.6021003 8.6021003 -6.90675293 10.46101629 -7.12890625 14.57421875 C-6.74036959 21.88577234 -3.42675045 27.31874583 0.890625 33.0546875 C1.25671875 33.69664062 1.6228125 34.33859375 2 35 C1.67 35.99 1.34 36.98 1 38 C-5.87667368 29.26123416 -11.31652487 21.4725739 -10 10 C-7.53218035 5.0643607 -4.61665742 2.72802484 0 0 Z " fill="#171717" transform="translate(160,178)"/>
<path d="M0 0 C0.33 0 0.66 0 1 0 C1.4543322 6.36065079 0.68254107 10.70847176 -3 16 C-6.10999486 19.36561087 -9.58706519 21.68804641 -14 23 C-14.99 23 -15.98 23 -17 23 C-17 22.34 -17 21.68 -17 21 C-17.66 20.67 -18.32 20.34 -19 20 C-18.40832031 19.84144531 -17.81664062 19.68289062 -17.20703125 19.51953125 C-11.9238935 17.95958356 -8.50926311 16.46633487 -5 12 C-3.680982 9.33466965 -3.680982 9.33466965 -3 7 C-2.34 7 -1.68 7 -1 7 C-0.67 4.69 -0.34 2.38 0 0 Z " fill="#E4E4E4" transform="translate(255,228)"/>
<path d="M0 0 C1.97446663 3.81730215 3.12829651 6.91019274 3.09765625 11.23046875 C3.09443359 12.03291016 3.09121094 12.83535156 3.08789062 13.66210938 C3.07532227 14.91217773 3.07532227 14.91217773 3.0625 16.1875 C3.05798828 17.03248047 3.05347656 17.87746094 3.04882812 18.74804688 C3.03705403 20.83206155 3.0191189 22.91603977 3 25 C1.02 25.99 1.02 25.99 -1 27 C-0.98259766 25.06447266 -0.98259766 25.06447266 -0.96484375 23.08984375 C-0.9554588 21.37239729 -0.94635936 19.65494925 -0.9375 17.9375 C-0.92912109 17.08994141 -0.92074219 16.24238281 -0.91210938 15.36914062 C-0.89316994 10.4638278 -1.16673655 5.83555245 -2 1 C-1.34 0.67 -0.68 0.34 0 0 Z " fill="#D9D9D9" transform="translate(321,232)"/>
<path d="M0 0 C3.30699253 0.23675928 4.12979487 1.14372408 6.40234375 3.66015625 C7.25928243 4.78531624 8.10382989 5.91999265 8.9375 7.0625 C9.59455933 7.9450647 9.59455933 7.9450647 10.26489258 8.84545898 C11.5251466 10.55320979 12.76618869 12.27308029 14 14 C14.59296875 14.825 15.1859375 15.65 15.796875 16.5 C19.10391876 21.40482894 19.10391876 21.40482894 18.61328125 24.21484375 C18.41089844 24.80394531 18.20851563 25.39304688 18 26 C17.05640625 24.42412109 17.05640625 24.42412109 16.09375 22.81640625 C11.67129445 15.5303717 7.33344902 8.68523248 1.3984375 2.50390625 C0 1 0 1 0 0 Z " fill="#151515" transform="translate(298,195)"/>
<path d="M0 0 C0.66 0.66 1.32 1.32 2 2 C-8.23 1.34 -18.46 0.68 -29 0 C-29 -0.33 -29 -0.66 -29 -1 C-8.63153826 -2.90105643 -8.63153826 -2.90105643 0 0 Z " fill="#1E1E1E" transform="translate(157,115)"/>
<path d="M0 0 C4.37657556 0.44914737 6.86225815 3.34691229 9.8125 6.3125 C10.32748047 6.79912109 10.84246094 7.28574219 11.37304688 7.78710938 C12.83203125 9.23828125 12.83203125 9.23828125 15 12 C14.82421875 14.35546875 14.82421875 14.35546875 14 16 C13.57589844 15.50371094 13.15179688 15.00742188 12.71484375 14.49609375 C9.06153871 10.26468329 5.30864551 6.22966017 1.28515625 2.34765625 C0 1 0 1 0 0 Z " fill="#090909" transform="translate(230,200)"/>
<path d="M0 0 C3.5662714 3.0743719 5.9767051 6.37782897 7 11 C6.95054185 14.38788357 6.55767852 17.66064792 6 21 C5.67 21 5.34 21 5 21 C4.89042969 20.20335937 4.78085938 19.40671875 4.66796875 18.5859375 C3.80562884 12.82298295 2.89507517 8.13217872 0 3 C0 2.01 0 1.02 0 0 Z " fill="#111111" transform="translate(245,214)"/>
<path d="M0 0 C0.99 0.33 1.98 0.66 3 1 C5.34551123 5.93791838 5.2134222 10.66444505 5 16 C4.67 16 4.34 16 4 16 C4 14.02 4 12.04 4 10 C3.01 10.33 2.02 10.66 1 11 C0.67 7.37 0.34 3.74 0 0 Z " fill="#CBCBCB" transform="translate(299,215)"/>
<path d="M0 0 C4.44907205 1.48302402 6.74579392 5.08285501 9 9 C9 9.66 9 10.32 9 11 C7.25 10.875 7.25 10.875 5 10 C2.53374019 6.82909453 0.61757267 4.01422236 0 0 Z " fill="#EEEEEE" transform="translate(301,201)"/>
<path d="M0 0 C0.66 0.33 1.32 0.66 2 1 C0.21656636 2.87729857 -1.52964683 4.39092981 -3.625 5.9375 C-6.05211466 8.04525746 -6.66579964 8.88079662 -7 12 C-7.66 12 -8.32 12 -9 12 C-9.33 12.66 -9.66 13.32 -10 14 C-9.54572404 9.11653339 -8.42657167 6.52175421 -5 3 C-2.375 1.125 -2.375 1.125 0 0 Z " fill="#1E1E1E" transform="translate(160,178)"/>
<path d="M0 0 C1.79068573 2.6860286 2.66055791 4.6626589 3.625 7.6875 C3.88539063 8.49574219 4.14578125 9.30398437 4.4140625 10.13671875 C4.60742188 10.75160156 4.80078125 11.36648437 5 12 C3.109375 11.78515625 3.109375 11.78515625 1 11 C-0.046875 8.93359375 -0.046875 8.93359375 -0.75 6.4375 C-0.99234375 5.61121094 -1.2346875 4.78492188 -1.484375 3.93359375 C-1.65453125 3.29550781 -1.8246875 2.65742188 -2 2 C-1.34 2 -0.68 2 0 2 C0 1.34 0 0.68 0 0 Z " fill="#E3E3E3" transform="translate(297,204)"/>
<path d="M0 0 C0.33 0.66 0.66 1.32 1 2 C-1.31 4.64 -3.62 7.28 -6 10 C-6.99 9.67 -7.98 9.34 -9 9 C-8.06725891 7.87105124 -7.12859878 6.74699124 -6.1875 5.625 C-5.66542969 4.99851563 -5.14335937 4.37203125 -4.60546875 3.7265625 C-3 2 -3 2 0 0 Z " fill="#F0F0F0" transform="translate(298,242)"/>
<path d="M0 0 C-0.33 0.66 -0.66 1.32 -1 2 C-6.13859499 3.65480178 -9.6586362 4.33534095 -15 3 C-15 2.67 -15 2.34 -15 2 C-12.87707704 1.47076428 -10.75157949 0.95184623 -8.625 0.4375 C-7.44164062 0.14746094 -6.25828125 -0.14257812 -5.0390625 -0.44140625 C-2 -1 -2 -1 0 0 Z " fill="#1B1B1B" transform="translate(300,283)"/>
<path d="M0 0 C0.33 0 0.66 0 1 0 C1.16682272 4.92127034 1.24828052 8.50343896 -1 13 C-2.32 12.67 -3.64 12.34 -5 12 C-4.34 10.35 -3.68 8.7 -3 7 C-2.34 7 -1.68 7 -1 7 C-0.67 4.69 -0.34 2.38 0 0 Z " fill="#C4C4C4" transform="translate(255,228)"/>
<path d="M0 0 C4.13621084 3.3810038 7.81316569 6.66590534 11 11 C7.46180427 10.42073787 5.74971757 9.15676523 3.25 6.625 C2.63640625 6.01914063 2.0228125 5.41328125 1.390625 4.7890625 C0 3 0 3 0 0 Z " fill="#030303" transform="translate(162,214)"/>
<path d="M0 0 C3.96996957 1.32332319 5.76036395 4.0089399 8.14453125 7.24609375 C9 9 9 9 8 12 C6.66081194 10.37982158 5.3288031 8.75370657 4 7.125 C3.2575 6.22007812 2.515 5.31515625 1.75 4.3828125 C0 2 0 2 0 0 Z " fill="#0B0B0B" transform="translate(93,193)"/>
<path d="M0 0 C0.33 0 0.66 0 1 0 C1.99 4.62 2.98 9.24 4 14 C3.34 14 2.68 14 2 14 C-0.24281523 8.79666866 -1.55577239 5.65735415 0 0 Z " fill="#0D0D0D" transform="translate(151,190)"/>
<path d="M0 0 C1.39195915 4.17587745 -0.17676781 6.13474776 -2 10 C-2.99 10 -3.98 10 -5 10 C-3.14285714 2.42857143 -3.14285714 2.42857143 0 0 Z " fill="#F0F0F0" transform="translate(322,257)"/>
<path d="M0 0 C0.33 0 0.66 0 1 0 C1.144375 1.134375 1.28875 2.26875 1.4375 3.4375 C1.61171478 6.80777201 1.61171478 6.80777201 3 8 C3.04063832 9.66617115 3.042721 11.33388095 3 13 C1.02 13.99 1.02 13.99 -1 15 C-0.67 10.05 -0.34 5.1 0 0 Z " fill="#D3D3D3" transform="translate(321,244)"/>
<path d="M0 0 C2.02910711 0.25327449 4.04962145 0.57730068 6.0625 0.9375 C7.16722656 1.13214844 8.27195313 1.32679688 9.41015625 1.52734375 C10.69212891 1.76130859 10.69212891 1.76130859 12 2 C12 2.66 12 3.32 12 4 C10.39504433 3.88557539 8.79101881 3.75805306 7.1875 3.625 C6.29417969 3.55539063 5.40085938 3.48578125 4.48046875 3.4140625 C2 3 2 3 -1 1 C-0.67 0.67 -0.34 0.34 0 0 Z " fill="#212121" transform="translate(212,245)"/>
<path d="M0 0 C2.33936818 2.12669835 3.80653848 4.06224856 5 7 C5 7.99 5 8.98 5 10 C2 9 2 9 0.25 6.125 C-1 3 -1 3 0 0 Z " fill="#ECECEC" transform="translate(292,196)"/>
<path d="M0 0 C1.98 0.66 3.96 1.32 6 2 C6 2.99 6 3.98 6 5 C3.36 4.67 0.72 4.34 -2 4 C-1.34 2.68 -0.68 1.36 0 0 Z " fill="#D0D0D0" transform="translate(239,279)"/>
<path d="M0 0 C2.13586678 3.20380017 2.23132175 4.01939967 2.125 7.6875 C2.10695313 8.49574219 2.08890625 9.30398437 2.0703125 10.13671875 C2.04710937 10.75160156 2.02390625 11.36648437 2 12 C1.34 11.67 0.68 11.34 0 11 C-0.44921875 8.75 -0.44921875 8.75 -0.6875 6 C-0.77386719 5.0925 -0.86023438 4.185 -0.94921875 3.25 C-0.96597656 2.5075 -0.98273438 1.765 -1 1 C-0.67 0.67 -0.34 0.34 0 0 Z " fill="#FCFCFC" transform="translate(322,240)"/>
<path d="M0 0 C3.27286682 2.7819368 4.96427697 6.27954067 7 10 C6.01 10 5.02 10 4 10 C1.09677182 6.35022743 0 4.74147821 0 0 Z " fill="#1D1D1D" transform="translate(88,183)"/>
<path d="M0 0 C1.32 1.65 2.64 3.3 4 5 C3 7 3 7 1 8 C-2 3.25 -2 3.25 -2 1 C-1.34 0.67 -0.68 0.34 0 0 Z " fill="#E2E2E2" transform="translate(310,211)"/>
<path d="M0 0 C-0.33 0.66 -0.66 1.32 -1 2 C-3.32156597 2.40729228 -5.6568787 2.74438677 -8 3 C-7.67 2.01 -7.34 1.02 -7 0 C-3.86650268 -1.04449911 -3.01031744 -0.93423645 0 0 Z " fill="#EAEAEA" transform="translate(276,257)"/>
<path d="M0 0 C1.91015625 0.13671875 1.91015625 0.13671875 4.0625 0.6875 C5.13177734 0.94080078 5.13177734 0.94080078 6.22265625 1.19921875 C6.80917969 1.46347656 7.39570313 1.72773437 8 2 C8.33 2.99 8.66 3.98 9 5 C5.37 4.01 1.74 3.02 -2 2 C-1.34 1.34 -0.68 0.68 0 0 Z " fill="#1C1C1C" transform="translate(186,122)"/>
<path d="M0 0 C3.60502045 0.59831222 3.90757505 0.87419938 6.25 4.0625 C7.11625 5.5165625 7.11625 5.5165625 8 7 C7.01 7 6.02 7 5 7 C3.61328125 5.46875 3.61328125 5.46875 2.3125 3.5 C1.87550781 2.8503125 1.43851562 2.200625 0.98828125 1.53125 C0.49908203 0.77328125 0.49908203 0.77328125 0 0 Z " fill="#1A1A1A" transform="translate(298,195)"/>
<path d="M0 0 C0.66 0.33 1.32 0.66 2 1 C2.125 4.375 2.125 4.375 2 8 C1.34 8.66 0.68 9.32 0 10 C-0.19412181 8.52168779 -0.38012131 7.04230684 -0.5625 5.5625 C-0.66691406 4.73878906 -0.77132812 3.91507813 -0.87890625 3.06640625 C-0.91886719 2.38449219 -0.95882812 1.70257813 -1 1 C-0.67 0.67 -0.34 0.34 0 0 Z " fill="#F8F8F8" transform="translate(253,225)"/>
<path d="M0 0 C4.95 1.98 4.95 1.98 10 4 C10 4.33 10 4.66 10 5 C6.63295715 5.2295711 4.58629732 5.33943529 1.625 3.625 C1.08875 3.08875 0.5525 2.5525 0 2 C0 1.34 0 0.68 0 0 Z " fill="#181818" transform="translate(190,266)"/>
<path d="M0 0 C-0.33 0.99 -0.66 1.98 -1 3 C-2.65 3.33 -4.3 3.66 -6 4 C-6 2.68 -6 1.36 -6 0 C-2.25 -1.125 -2.25 -1.125 0 0 Z " fill="#D3D3D3" transform="translate(281,255)"/>
<path d="M0 0 C1.32 0.33 2.64 0.66 4 1 C4.33 2.32 4.66 3.64 5 5 C4.01 5 3.02 5 2 5 C1.34 3.35 0.68 1.7 0 0 Z " fill="#F1F1F1" transform="translate(243,209)"/>
<path d="M0 0 C0.66 0 1.32 0 2 0 C6 5.41176471 6 5.41176471 6 8 C5.34 8 4.68 8 4 8 C0 2.58823529 0 2.58823529 0 0 Z " fill="#0E0E0E" transform="translate(305,202)"/>
<path d="M0 0 C0.99 0.33 1.98 0.66 3 1 C3.33 2.98 3.66 4.96 4 7 C2 5.1875 2 5.1875 0 3 C0 2.01 0 1.02 0 0 Z " fill="#F7F7F7" transform="translate(288,192)"/>
</svg>
