<svg width="95" height="64" viewBox="0 0 95 64" fill="none" xmlns="http://www.w3.org/2000/svg">
<rect y="29.7559" width="87" height="36" rx="18" transform="rotate(-20 0 29.7559)" fill="url(#paint0_linear_287_5320)" fill-opacity="0.1"/>
<rect x="0.640856" y="30.0547" width="86" height="35" rx="17.5" transform="rotate(-20 0.640856 30.0547)" stroke="url(#paint1_linear_287_5320)" stroke-opacity="0.1"/>
<path d="M30.4855 32.9128C30.8207 30.9714 29.5271 29.1158 27.596 28.7682C25.665 28.4206 23.8278 29.7127 23.4926 31.6541L20.9858 46.1722C20.6506 48.1135 21.9443 49.9691 23.8753 50.3167C25.8063 50.6643 27.6435 49.3723 27.9786 47.4309L30.4855 32.9128Z" fill="#F8BB2D"/>
<path d="M27.8116 45.5921C28.487 47.4478 27.5425 49.4951 25.7021 50.1649C23.8616 50.8348 21.8222 49.8736 21.1468 48.0179C20.4714 46.1623 21.4158 44.1149 23.2562 43.4451C25.0967 42.7752 27.1362 43.7365 27.8116 45.5921Z" fill="#3BA757"/>
<path d="M24.7263 35.0096C23.2215 33.7379 23.0198 31.4849 24.2756 29.9774C25.5314 28.4699 27.7692 28.2788 29.2739 29.5505L40.5263 39.0607C42.031 40.3324 42.2327 42.5854 40.9769 44.0929C39.7211 45.6004 37.4833 45.7915 35.9786 44.5198L24.7263 35.0096Z" fill="#4689F2"/>
<path d="M51.54 27.5227C51.3443 27.1288 51.0376 26.8802 50.62 26.7767C50.2014 26.6703 49.7376 26.7098 49.2286 26.8951C48.8642 27.0277 48.57 27.2003 48.346 27.4128C48.121 27.6224 47.9711 27.8538 47.8962 28.1071C47.8232 28.3564 47.8325 28.6068 47.924 28.8584C48.0009 29.0695 48.1164 29.2339 48.2705 29.3513C48.4275 29.4678 48.6059 29.5486 48.8058 29.5937C49.0075 29.635 49.2149 29.6561 49.4282 29.6571C49.6404 29.6552 49.8411 29.6443 50.0304 29.6245L50.9802 29.5343C51.2888 29.5006 51.6137 29.4888 51.9547 29.4989C52.2958 29.5091 52.6288 29.5647 52.9538 29.6659C53.2789 29.767 53.5716 29.9323 53.8319 30.1618C54.0952 30.3902 54.2995 30.704 54.4447 31.1031C54.6279 31.6063 54.6604 32.1005 54.5422 32.5856C54.4269 33.0698 54.1645 33.5141 53.755 33.9186C53.3483 34.3221 52.7979 34.6501 52.1038 34.9027C51.4387 35.1449 50.8247 35.2488 50.262 35.2145C49.6993 35.1802 49.2101 35.0193 48.7943 34.7318C48.3774 34.4413 48.0572 34.0339 47.8335 33.5094L49.1783 33.0199C49.3212 33.3314 49.5227 33.5611 49.7828 33.7088C50.0447 33.8525 50.3378 33.9243 50.662 33.9242C50.988 33.9202 51.3231 33.8556 51.6673 33.7303C52.0461 33.5924 52.3615 33.4105 52.6133 33.1845C52.867 32.9547 53.0402 32.7017 53.1329 32.4255C53.2246 32.1465 53.2178 31.8624 53.1126 31.5732C53.0168 31.31 52.8632 31.122 52.6517 31.0089C52.4432 30.8949 52.1916 30.8292 51.8971 30.812C51.6055 30.7936 51.2854 30.8004 50.9368 30.8324L49.7827 30.9282C49.0008 30.9933 48.3331 30.9137 47.7798 30.6893C47.2294 30.4639 46.8416 30.0417 46.6163 29.4228C46.43 28.9109 46.4062 28.4136 46.5449 27.9308C46.6836 27.448 46.9517 27.0147 47.3491 26.631C47.7455 26.2443 48.2416 25.9426 48.8374 25.7257C49.4389 25.5068 50.008 25.4192 50.5447 25.4629C51.0843 25.5056 51.5545 25.6637 51.9553 25.937C52.355 26.2075 52.6475 26.5792 52.8328 27.0522L51.54 27.5227ZM56.9402 32.9754L53.7066 24.091L59.2767 22.0637L59.6967 23.2176L55.4671 24.7571L56.4523 27.464L60.3913 26.0304L60.8097 27.18L56.8707 28.6136L57.8607 31.3336L62.1424 29.7752L62.5624 30.9291L56.9402 32.9754ZM70.4015 23.0453C70.7467 23.9939 70.87 24.8726 70.7714 25.6814C70.6717 26.4874 70.3865 27.184 69.9158 27.7713C69.4468 28.3546 68.8292 28.7857 68.0628 29.0647C67.2935 29.3447 66.5403 29.4125 65.8033 29.2681C65.068 29.1197 64.4027 28.7675 63.8072 28.2112C63.2118 27.655 62.7419 26.9041 62.3977 25.9584C62.0525 25.0098 61.9297 24.1325 62.0294 23.3266C62.128 22.5177 62.4118 21.8217 62.8807 21.2383C63.3514 20.651 63.9715 20.2174 64.7407 19.9374C65.5071 19.6584 66.2579 19.5931 66.9932 19.7415C67.7302 19.8859 68.3965 20.2362 68.992 20.7924C69.5864 21.3457 70.0562 22.0967 70.4015 23.0453ZM69.074 23.5284C68.8109 22.8054 68.4722 22.2393 68.0579 21.83C67.6455 21.4168 67.1905 21.1566 66.693 21.0494C66.1973 20.9384 65.695 20.9755 65.186 21.1607C64.6741 21.347 64.264 21.642 63.9557 22.0458C63.6463 22.4466 63.465 22.9383 63.4118 23.521C63.3605 24.0998 63.4664 24.7506 63.7295 25.4737C63.9927 26.1967 64.3305 26.7648 64.7429 27.178C65.1571 27.5873 65.6121 27.8475 66.1078 27.9585C66.6024 28.0667 67.1056 28.0277 67.6175 27.8413C68.1265 27.6561 68.5357 27.3631 68.8451 26.9622C69.1563 26.5575 69.3376 26.0657 69.3889 25.487C69.4421 24.9043 69.3372 24.2514 69.074 23.5284Z" fill="#E5E5E7"/>
<defs>
<linearGradient id="paint0_linear_287_5320" x1="43.5" y1="29.7559" x2="43.5" y2="65.7559" gradientUnits="userSpaceOnUse">
<stop stop-color="white" stop-opacity="0.5"/>
<stop offset="1" stop-color="white" stop-opacity="0.1"/>
</linearGradient>
<linearGradient id="paint1_linear_287_5320" x1="43.5" y1="29.7559" x2="43.5" y2="65.7559" gradientUnits="userSpaceOnUse">
<stop stop-color="white"/>
<stop offset="1" stop-color="white" stop-opacity="0.4"/>
</linearGradient>
</defs>
</svg>
