<svg width="260" height="191" viewBox="0 0 260 191" fill="none" xmlns="http://www.w3.org/2000/svg">
<g clip-path="url(#clip0_358_2554)">
<path d="M129.065 171.166C129.065 171.166 83.0693 120.292 69.1226 117.506C55.1759 114.72 48.2119 115.147 48.2119 115.147L34.2559 82.2217L41.6941 73.8649C41.6941 73.8649 49.1323 74.3291 51.9217 75.2577C54.711 76.1862 85.6029 96.2565 85.6029 96.2565C85.6029 96.2565 98.4107 101.257 103.06 110.542C107.708 119.827 123.05 136.541 121.655 137.934C120.26 139.327 129.065 171.166 129.065 171.166Z" fill="url(#paint0_linear_358_2554)"/>
<path d="M132.346 171.166C132.346 171.166 178.342 120.292 192.289 117.506C206.235 114.72 213.199 115.147 213.199 115.147L227.155 82.2217L219.717 73.8649C219.717 73.8649 212.279 74.3291 209.49 75.2577C206.7 76.1862 175.808 96.2565 175.808 96.2565C175.808 96.2565 163.001 101.257 158.352 110.542C153.703 119.827 138.361 136.541 139.756 137.934C141.151 139.327 132.346 171.166 132.346 171.166Z" fill="url(#paint1_radial_358_2554)"/>
<path d="M120.697 166.486C120.697 166.486 100.242 158.362 98.3824 156.969C96.5228 155.576 43.0605 152.094 43.0605 152.094L24 147.219C24 147.219 27.7191 104.971 29.1138 105.435C30.5085 105.899 61.8932 116.35 61.8932 116.35C61.8932 116.35 77.4623 123.077 78.857 124.006C80.2517 124.934 115.583 151.862 116.513 153.255C117.443 154.647 120.697 166.486 120.697 166.486Z" fill="url(#paint2_linear_358_2554)" fill-opacity="0.8"/>
<path d="M120.697 166.486C120.697 166.486 100.242 158.362 98.3824 156.969C96.5228 155.576 43.0605 152.094 43.0605 152.094L24 147.219C24 147.219 27.7191 104.971 29.1138 105.435C30.5085 105.899 61.8932 116.35 61.8932 116.35C61.8932 116.35 77.4623 123.077 78.857 124.006C80.2517 124.934 115.583 151.862 116.513 153.255C117.443 154.647 120.697 166.486 120.697 166.486Z" fill="url(#paint3_linear_358_2554)"/>
<path d="M140.92 166.486C140.92 166.486 146.731 154.183 153.24 148.612C159.748 143.041 189.538 118.439 199.747 116.35C209.956 114.256 218.789 112.399 224.833 117.042C230.876 121.684 228.087 150.469 218.557 152.094C209.026 153.719 184.852 152.326 175.089 155.112C165.327 157.897 140.92 166.486 140.92 166.486Z" fill="url(#paint4_linear_358_2554)" fill-opacity="0.2"/>
<path d="M140.92 166.486C140.92 166.486 146.731 154.183 153.24 148.612C159.748 143.041 189.538 118.439 199.747 116.35C209.956 114.256 222.782 106.958 228.552 111.935C238.779 120.756 239.477 149.308 229.946 150.933C220.416 152.558 184.852 152.326 175.089 155.112C165.327 157.897 140.92 166.486 140.92 166.486Z" fill="url(#paint5_linear_358_2554)"/>
<path d="M129.065 171.166C129.065 171.166 83.0693 120.292 69.1226 117.506C55.1759 114.72 48.2119 115.147 48.2119 115.147L34.2559 82.2217L41.6941 73.8649C41.6941 73.8649 49.1323 74.3291 51.9217 75.2577C54.711 76.1862 85.6029 96.2565 85.6029 96.2565C85.6029 96.2565 98.4107 101.257 103.06 110.542C107.708 119.827 123.05 136.541 121.655 137.934C120.26 139.327 129.065 171.166 129.065 171.166Z" fill="url(#paint6_linear_358_2554)"/>
<path d="M132.346 171.166C132.346 171.166 136.502 163.468 146.729 154.183C156.957 144.898 198.258 115.616 198.258 115.616L215.998 106.828C215.998 106.828 219.717 83.6144 211.814 81.7574C203.911 79.9003 174.158 96.0754 174.158 96.0754C174.158 96.0754 159.281 111.47 156.492 114.72C153.703 117.97 141.151 134.22 139.756 137.934C138.361 141.648 132.346 171.166 132.346 171.166Z" fill="url(#paint7_linear_358_2554)" fill-opacity="0.5"/>
<path d="M132.346 171.166C132.346 171.166 178.342 120.292 192.289 117.506C206.235 114.72 213.199 115.147 213.199 115.147L227.155 82.2217L219.717 73.8649C219.717 73.8649 212.279 74.3291 209.49 75.2577C206.7 76.1862 175.808 96.2565 175.808 96.2565C175.808 96.2565 163.001 101.257 158.352 110.542C153.703 119.827 138.361 136.541 139.756 137.934C141.151 139.327 132.346 171.166 132.346 171.166Z" fill="url(#paint8_linear_358_2554)"/>
<path d="M207.399 175.075L233.079 188.353L143.476 182.039L140.92 183.432L136.503 187.146H129.065L122.324 182.735L120.697 180.646L29.6621 185.386C29.6621 185.386 50.266 175.307 52.358 175.539C54.45 175.771 105.82 171.129 105.82 171.129L140.687 167.415C140.687 167.415 160.677 168.343 162.304 168.575C163.932 168.807 207.399 175.075 207.399 175.075Z" fill="#488CD1"/>
<path d="M59.0982 143.969C59.0982 143.969 113.272 141.62 130.473 167.155C130.264 169.035 131.156 176.236 131.156 176.236L128.599 178.093L122.323 182.735L117.907 180.646L33.9941 186.217L40.735 169.504L51.4275 163.468L41.8973 163.7L50.2653 158.593C50.2653 158.593 67.4662 153.719 78.1587 155.111C77.9262 154.879 43.0595 152.094 43.0595 152.094L46.0813 149.772L59.0982 143.969Z" fill="#FFF1E1"/>
<path d="M40.735 169.504C40.735 169.504 103.495 153.487 126.042 172.754C126.275 172.986 131.156 176.236 131.156 176.236L124.183 183.664L119.766 180.646L33.9941 186.217L40.735 169.504Z" fill="#75BFD9"/>
<path d="M127.438 174.843L131.157 176.235L130.925 172.289C130.925 172.289 116.281 150.004 46.0824 149.772C45.3851 149.772 43.0607 152.094 43.0607 152.094L78.1598 155.111C78.1598 155.111 105.123 155.343 120.697 166.486C120.465 166.254 97.6852 151.165 41.8984 163.7C42.1309 163.468 51.4287 163.468 51.4287 163.468C51.4287 163.468 110.935 154.879 127.438 174.843Z" fill="#75BFD9"/>
<path d="M202.519 143.969C202.519 143.969 147.885 140.784 130.684 166.319C130.917 166.319 130.461 176.236 130.461 176.236L133.018 178.093L139.294 182.735L143.71 180.646L227.623 186.217L220.882 169.504L210.19 163.468L219.72 163.7L211.352 158.593C211.352 158.593 194.151 153.719 183.458 155.111C183.691 154.879 218.558 152.094 218.558 152.094L215.536 149.772L202.519 143.969Z" fill="#FFF1E1"/>
<path d="M220.882 169.504C220.882 169.504 158.122 153.486 135.575 172.754C135.342 172.986 130.461 176.236 130.461 176.236L137.434 183.664L142.511 181.849L227.623 186.217L220.882 169.504Z" fill="#75BFD9"/>
<path d="M134.18 174.843L130.461 176.236L130.693 172.289C130.693 172.289 145.337 150.004 215.536 149.772C216.233 149.772 218.558 152.094 218.558 152.094L183.458 155.111C183.458 155.111 156.495 155.344 140.921 166.486C141.153 166.254 163.933 151.165 219.72 163.7C219.487 163.468 210.19 163.468 210.19 163.468C210.19 163.468 150.684 154.879 134.18 174.843Z" fill="#75BFD9"/>
<path d="M64.6978 114.771C64.6978 114.771 109.648 122.877 130.694 171.649C130.424 171.932 129.429 172.294 129.429 172.294C129.429 172.294 84.014 126.146 61.8945 116.345L64.6978 114.771Z" fill="#FFF1E1"/>
<path d="M129.43 172.294C129.43 172.294 129.477 172.275 129.542 172.252L130.699 171.649C110.96 145.947 95.3725 131.582 63.388 115.616C63.388 115.616 62.263 116.113 61.9004 116.345C84.0199 126.146 129.435 172.294 129.435 172.294H129.43Z" fill="#75BFD9"/>
<path d="M196.945 114.771C196.945 114.771 151.995 122.877 130.949 171.649C131.219 171.932 132.214 172.294 132.214 172.294C132.214 172.294 177.629 126.146 199.748 116.345L196.945 114.771Z" fill="#FFF1E1"/>
<path d="M132.214 172.294C132.214 172.294 132.168 172.275 132.103 172.252L130.945 171.649C150.685 145.947 166.272 131.582 198.257 115.616C198.257 115.616 199.382 116.113 199.744 116.345C177.625 126.146 132.21 172.294 132.21 172.294H132.214Z" fill="#75BFD9"/>
<path d="M172.635 95.7318C172.635 95.7318 133.128 118.629 129.953 171.644C130.306 171.821 131.362 171.821 131.362 171.821C131.362 171.821 158.344 112.993 175.805 96.2611L172.63 95.7318H172.635Z" fill="#FFF1E1"/>
<path d="M131.366 171.816C131.366 171.816 131.315 171.816 131.249 171.816L129.957 171.639C139.762 140.761 149.524 121.958 174.163 96.0753C174.163 96.0753 175.391 96.1635 175.814 96.2564C158.353 112.989 131.37 171.816 131.37 171.816H131.366Z" fill="#75BFD9"/>
<path d="M88.0748 95.7318C88.0748 95.7318 127.581 118.629 130.756 171.644C130.403 171.821 129.348 171.821 129.348 171.821C129.348 171.821 102.366 112.993 84.9043 96.2611L88.0795 95.7318H88.0748Z" fill="#FFF1E1"/>
<path d="M129.343 171.816C129.343 171.816 129.394 171.816 129.459 171.816L130.751 171.639C120.947 140.761 111.184 121.958 86.5449 96.0753C86.5449 96.0753 85.3176 96.1635 84.8945 96.2564C102.356 112.989 129.338 171.816 129.338 171.816H129.343Z" fill="#75BFD9"/>
<path d="M134.124 172.619C133.831 172.47 133.529 172.336 133.269 172.136C132.911 171.867 132.646 171.495 132.348 171.161C131.911 170.669 131.395 170.256 130.884 169.843C130.745 169.731 130.596 169.61 130.419 169.573C130.187 169.522 129.95 169.606 129.731 169.694C129.052 169.959 128.364 170.228 127.811 170.697C127.258 171.166 126.853 171.876 126.942 172.596C126.988 172.976 127.165 173.325 127.374 173.645C128.085 174.736 129.173 175.539 130.349 176.101C131.526 176.658 132.795 176.988 134.064 177.289C134.571 177.41 135.101 177.522 135.598 177.387C136.37 177.178 137.653 175.757 137.314 174.898C137.123 174.416 136.272 173.947 135.863 173.659C135.31 173.269 134.729 172.921 134.124 172.619Z" fill="#75BFD9"/>
<path d="M137.99 184.597C135.996 184.597 134.597 182.28 133.244 180.038C132.649 179.049 131.538 177.211 131.054 177.155C130.543 177.099 130.389 177.206 129.766 178.566C129.404 179.356 128.953 180.34 128.135 181.259C126.024 183.631 122.477 183.659 122.328 183.659C121.817 183.659 121.398 183.241 121.398 182.731C121.398 182.22 121.812 181.802 122.328 181.802C122.375 181.802 125.201 181.76 126.749 180.024C127.382 179.314 127.753 178.506 128.084 177.791C128.637 176.589 129.325 175.084 131.268 175.307C132.663 175.46 133.676 177.136 134.848 179.077C135.801 180.656 137.084 182.81 138.065 182.735L140.854 182.503C141.365 182.457 141.816 182.842 141.858 183.353C141.9 183.864 141.519 184.314 141.007 184.356L138.218 184.588C138.144 184.593 138.074 184.597 138 184.597H137.99Z" fill="#3EC5FF" fill-opacity="0.15"/>
<path d="M232.735 189.7C232.707 189.7 232.679 189.7 232.651 189.7L144.322 183.399C143.03 183.307 141.779 183.766 140.882 184.662C138.827 186.714 135.494 189.096 131.296 188.771C127.135 188.451 123.653 185.646 121.464 183.344C120.562 182.397 119.288 181.9 117.968 181.979L30.1129 187.378C29.476 187.415 28.9228 186.932 28.8809 186.292C28.8437 185.651 29.3272 185.103 29.9688 185.061L117.824 179.662C119.827 179.541 121.771 180.298 123.147 181.747C124.709 183.385 127.87 186.18 131.473 186.459C134.787 186.714 137.521 184.727 139.236 183.019C140.608 181.649 142.519 180.943 144.485 181.083L232.814 187.383C233.456 187.429 233.935 187.982 233.893 188.622C233.851 189.235 233.339 189.7 232.735 189.7Z" fill="#3EC5FF" fill-opacity="0.15"/>
<path d="M175.567 115.978L173.22 116.224C172.852 116.322 172.569 116.605 172.481 116.972L172.257 119.321L172.011 116.977C171.913 116.61 171.63 116.327 171.262 116.238L168.91 116.016L171.258 115.77C171.625 115.672 171.909 115.389 171.997 115.022L172.22 112.673L172.467 115.017C172.564 115.384 172.848 115.667 173.215 115.756L175.567 115.978Z" fill="#EBEBEB"/>
<path d="M215.187 118.439L212.988 117.58C212.62 117.497 212.235 117.622 211.984 117.905L210.7 119.888L211.561 117.692C211.644 117.325 211.519 116.94 211.235 116.689L209.25 115.407L211.449 116.266C211.816 116.35 212.202 116.225 212.453 115.941L213.732 113.959L212.871 116.155C212.788 116.522 212.913 116.907 213.197 117.158L215.182 118.439H215.187Z" fill="#EBEBEB"/>
<path d="M86.0658 43.8639L84.0714 45.1314C83.7879 45.3775 83.6577 45.7628 83.7414 46.1296L84.5875 48.3348L83.323 46.3431C83.0766 46.0599 82.6907 45.9299 82.3235 46.0135L80.1152 46.8585L82.1096 45.591C82.3932 45.345 82.5234 44.9596 82.4397 44.5928L81.5936 42.3876L82.8627 44.3793C83.1091 44.6625 83.495 44.7925 83.8622 44.7089L86.0658 43.8639Z" fill="#EBEBEB"/>
<path opacity="0.3" d="M84.1603 47.3552C83.1004 47.8891 81.808 47.462 81.2734 46.4035C80.7387 45.3449 81.1664 44.0543 82.2264 43.5204C83.2863 42.9865 84.5787 43.4136 85.1134 44.4721C85.648 45.5306 85.2203 46.8213 84.1603 47.3552Z" fill="#8683FF"/>
<path d="M187.562 137.961L186.2 137.428C185.972 137.377 185.735 137.451 185.581 137.627L184.791 138.853L185.326 137.493C185.377 137.265 185.302 137.028 185.126 136.875L183.898 136.086L185.261 136.62C185.488 136.671 185.725 136.597 185.879 136.42L186.669 135.194L186.139 136.555C186.088 136.782 186.162 137.019 186.339 137.172L187.566 137.961H187.562Z" fill="#EBEBEB"/>
<path d="M180.381 46.8956L177.378 46.9885C176.904 47.0767 176.518 47.4109 176.369 47.8659L175.863 50.8233L175.77 47.8241C175.681 47.3506 175.347 46.9652 174.891 46.8167L171.93 46.3106L174.933 46.2178C175.407 46.1296 175.793 45.7953 175.942 45.3403L176.448 42.3829L176.541 45.3821C176.63 45.8557 176.964 46.241 177.42 46.3896L180.381 46.8956Z" fill="#EBEBEB"/>
<path opacity="0.3" d="M176.035 49.4816C174.529 49.3795 173.39 48.0749 173.497 46.5707C173.599 45.0664 174.906 43.929 176.412 44.0358C177.918 44.1379 179.057 45.4425 178.95 46.9467C178.848 48.4509 177.542 49.5884 176.035 49.4816Z" fill="#8683FF"/>
<path d="M74.2866 107.682L71.8274 107.278C71.4276 107.273 71.0603 107.487 70.8651 107.831L69.9818 110.157L70.3862 107.701C70.3909 107.301 70.177 106.935 69.833 106.74L67.5039 105.857L69.9632 106.261C70.363 106.266 70.7302 106.052 70.9255 105.709L71.8088 103.383L71.4043 105.839C71.3997 106.238 71.6135 106.605 71.9576 106.8L74.2866 107.682Z" fill="#EBEBEB"/>
<path d="M199.254 97.0365L195.005 98.0811C194.359 98.3457 193.908 98.9446 193.834 99.641L194.015 104.005L192.969 99.7617C192.704 99.1164 192.104 98.6661 191.407 98.5918L187.037 98.7728L191.286 97.7282C191.932 97.4636 192.383 96.8647 192.458 96.1683L192.276 91.8042L193.322 96.0476C193.587 96.6929 194.187 97.1433 194.884 97.2175L199.254 97.0365Z" fill="#EBEBEB"/>
<path d="M90.6653 89.4363L89.3032 88.9071C89.0754 88.856 88.8383 88.9303 88.6849 89.1067L87.8945 90.3324L88.4292 88.9721C88.4803 88.7446 88.4059 88.5078 88.2293 88.3546L87.002 87.5653L88.3641 88.0992C88.5919 88.1503 88.829 88.076 88.9824 87.8996L89.7727 86.674L89.2427 88.0342C89.1916 88.2617 89.266 88.4985 89.4426 88.6517L90.6699 89.441L90.6653 89.4363Z" fill="#EBEBEB"/>
<path d="M133.207 132.543L131.798 132.929C131.584 133.022 131.44 133.226 131.422 133.458L131.519 134.911L131.134 133.504C131.041 133.291 130.836 133.147 130.604 133.128L129.148 133.226L130.557 132.841C130.771 132.748 130.915 132.543 130.934 132.311L130.836 130.858L131.222 132.265C131.315 132.478 131.519 132.622 131.752 132.641L133.207 132.543Z" fill="#EBEBEB"/>
<path d="M84.1893 140.766L82.9434 141.105C82.7528 141.188 82.6273 141.369 82.6087 141.574L82.6924 142.86L82.353 141.615C82.2693 141.425 82.088 141.3 81.8835 141.281L80.5957 141.365L81.8416 141.026C82.0322 140.942 82.1577 140.761 82.1763 140.557L82.0926 139.271L82.432 140.515C82.5157 140.705 82.697 140.831 82.9016 140.849L84.1893 140.766Z" fill="#EBEBEB"/>
<path d="M40.4334 136.884L39.1875 137.223C38.9969 137.307 38.8714 137.488 38.8528 137.692L38.9365 138.978L38.5971 137.734C38.5134 137.544 38.3321 137.418 38.1276 137.4L36.8398 137.483L38.0857 137.144C38.2764 137.061 38.4019 136.88 38.4205 136.675L38.3368 135.389L38.6762 136.634C38.7598 136.824 38.9411 136.949 39.1457 136.968L40.4334 136.884Z" fill="#EBEBEB"/>
<path d="M59.2565 126.819L55.2677 127.905C54.6634 128.175 54.2543 128.746 54.1985 129.405L54.4728 133.523L53.3849 129.54C53.1153 128.936 52.5435 128.528 51.8833 128.472L47.7598 128.746L51.7485 127.659C52.3529 127.39 52.762 126.819 52.8178 126.16L52.5435 122.042L53.6313 126.025C53.901 126.629 54.4728 127.037 55.1329 127.093L59.2565 126.819Z" fill="#EBEBEB"/>
<path d="M76.0947 133.908L73.747 134.154C73.3798 134.252 73.0962 134.535 73.0079 134.902L72.7847 137.251L72.5383 134.907C72.4407 134.54 72.1571 134.257 71.7898 134.168L69.4375 133.946L71.7852 133.699C72.1525 133.602 72.436 133.319 72.5244 132.952L72.7475 130.603L72.9939 132.947C73.0915 133.314 73.3751 133.597 73.7424 133.686L76.0947 133.908Z" fill="#EBEBEB"/>
<path d="M92.3545 115.514L90.0068 115.76C89.6395 115.858 89.3559 116.141 89.2676 116.508L89.0445 118.857L88.7981 116.512C88.7005 116.146 88.4169 115.863 88.0496 115.774L85.6973 115.551L88.045 115.305C88.4122 115.208 88.6958 114.925 88.7841 114.558L89.0073 112.209L89.2537 114.553C89.3513 114.92 89.6349 115.203 90.0021 115.291L92.3545 115.514Z" fill="#EBEBEB"/>
</g>
<g clip-path="url(#clip1_358_2554)">
<g clip-path="url(#clip2_358_2554)">
<path d="M131.64 100.071C129.919 100.071 128.2 100.075 126.479 100.07C124.77 100.066 123.651 98.9032 123.649 97.1271C123.646 94.1848 123.646 91.2424 123.649 88.3001C123.651 86.5029 124.77 85.3541 126.52 85.3531C129.946 85.3504 133.371 85.3504 136.797 85.3531C138.567 85.3541 139.671 86.5029 139.673 88.3424C139.674 91.2544 139.674 94.1655 139.673 97.0774C139.671 98.9372 138.567 100.069 136.757 100.071C135.052 100.073 133.346 100.071 131.641 100.071H131.64ZM130.771 94.5729C130.771 94.8516 130.767 95.1082 130.771 95.3639C130.783 95.9802 131.157 96.3987 131.678 96.3867C132.187 96.3747 132.543 95.97 132.546 95.3713C132.552 94.1609 132.566 92.9495 132.542 91.7391C132.512 90.2196 131.336 89.0396 129.885 89.0368C128.435 89.0341 127.249 90.2114 127.218 91.7271C127.193 92.9532 127.205 94.1793 127.214 95.4053C127.219 95.9894 127.606 96.3959 128.113 96.3876C128.607 96.3793 128.967 95.9875 128.986 95.4237C128.996 95.1404 128.988 94.8553 128.988 94.5738H130.772L130.771 94.5729ZM136.109 92.726C136.109 91.8394 136.115 90.9527 136.108 90.066C136.103 89.447 135.733 89.0313 135.211 89.0368C134.688 89.0423 134.334 89.4526 134.334 90.0835C134.329 91.8412 134.329 93.5998 134.334 95.3575C134.335 95.9756 134.708 96.3922 135.229 96.3867C135.75 96.3812 136.104 95.9664 136.108 95.34C136.113 94.469 136.109 93.597 136.109 92.726Z" fill="white"/>
<path d="M130.771 92.6945H128.997C129.035 92.1335 128.806 91.5338 129.324 91.0822C129.625 90.82 129.982 90.7869 130.315 90.993C130.957 91.3903 130.739 92.0553 130.771 92.6945Z" fill="white"/>
</g>
<path d="M143.685 85.9653C143.79 85.9677 143.869 86.0313 143.899 86.1506C143.939 86.3128 143.974 86.4766 144.012 86.6404C144.078 86.9282 144.257 87.1047 144.547 87.1699C144.707 87.2065 144.868 87.2407 145.028 87.2796C145.155 87.3107 145.222 87.3894 145.223 87.4967C145.223 87.6048 145.157 87.6852 145.031 87.7162C144.868 87.7559 144.703 87.7901 144.539 87.8283C144.26 87.8935 144.084 88.0652 144.016 88.3427C143.976 88.5057 143.942 88.6695 143.903 88.8325C143.871 88.9653 143.79 89.0337 143.679 89.0313C143.571 89.0289 143.493 88.9621 143.462 88.8349C143.424 88.679 143.388 88.5232 143.354 88.3666C143.288 88.0684 143.105 87.8887 142.806 87.8235C142.649 87.7893 142.492 87.7543 142.336 87.7162C142.209 87.6859 142.141 87.6072 142.141 87.4991C142.141 87.391 142.208 87.3099 142.332 87.2796C142.51 87.2367 142.69 87.2009 142.866 87.1548C143.114 87.0904 143.273 86.9298 143.337 86.6841C143.384 86.5084 143.419 86.3295 143.463 86.153C143.493 86.0297 143.577 85.9622 143.686 85.9645L143.685 85.9653Z" fill="white"/>
<path d="M137.215 79.2175C137.342 79.2203 137.436 79.2968 137.472 79.4399C137.521 79.635 137.562 79.8314 137.608 80.0272C137.687 80.3724 137.902 80.5843 138.249 80.6629C138.441 80.7064 138.635 80.7477 138.827 80.7948C138.979 80.8319 139.059 80.926 139.06 81.0558C139.061 81.1849 138.98 81.2824 138.829 81.3196C138.633 81.368 138.436 81.4087 138.239 81.4543C137.903 81.5322 137.692 81.7385 137.611 82.0717C137.563 82.2668 137.523 82.464 137.476 82.659C137.437 82.8183 137.34 82.9004 137.205 82.8976C137.076 82.8948 136.983 82.8148 136.946 82.6618C136.9 82.4752 136.858 82.2878 136.816 82.1005C136.737 81.7427 136.518 81.5273 136.159 81.4487C135.971 81.4073 135.782 81.3659 135.595 81.3203C135.443 81.2838 135.362 81.1898 135.361 81.0593C135.361 80.9295 135.442 80.8319 135.592 80.7962C135.805 80.7442 136.021 80.7021 136.233 80.646C136.53 80.5681 136.72 80.3766 136.798 80.0812C136.853 79.87 136.895 79.6553 136.948 79.4434C136.985 79.2954 137.085 79.2147 137.215 79.2175Z" fill="white"/>
</g>
<defs>
<linearGradient id="paint0_linear_358_2554" x1="117.466" y1="163.269" x2="65.9463" y2="100.525" gradientUnits="userSpaceOnUse">
<stop stop-color="#37006A"/>
<stop offset="0.92" stop-color="#503372" stop-opacity="0"/>
</linearGradient>
<radialGradient id="paint1_radial_358_2554" cx="0" cy="0" r="1" gradientUnits="userSpaceOnUse" gradientTransform="translate(169.746 131.931) rotate(-50.5345) scale(40.5929 40.6034)">
<stop offset="0.158654" stop-color="#459DBD"/>
<stop offset="0.92" stop-color="#503372" stop-opacity="0"/>
</radialGradient>
<linearGradient id="paint2_linear_358_2554" x1="183.069" y1="202.926" x2="33.2824" y2="126.375" gradientUnits="userSpaceOnUse">
<stop stop-color="#61AAEC"/>
<stop offset="0.913136" stop-color="#61AAEC" stop-opacity="0"/>
</linearGradient>
<linearGradient id="paint3_linear_358_2554" x1="144.986" y1="179.5" x2="27.5193" y2="124.546" gradientUnits="userSpaceOnUse">
<stop stop-color="#61AAEC"/>
<stop offset="0.782564" stop-color="#61AAEC" stop-opacity="0"/>
</linearGradient>
<linearGradient id="paint4_linear_358_2554" x1="98.701" y1="171.887" x2="244.042" y2="120.18" gradientUnits="userSpaceOnUse">
<stop stop-color="#61AAEC"/>
<stop offset="0.709937" stop-color="#61AAEC" stop-opacity="0"/>
</linearGradient>
<linearGradient id="paint5_linear_358_2554" x1="113.641" y1="166.323" x2="236.673" y2="138.334" gradientUnits="userSpaceOnUse">
<stop stop-color="#61AAEC"/>
<stop offset="0.843786" stop-color="#61AAEC" stop-opacity="0"/>
</linearGradient>
<linearGradient id="paint6_linear_358_2554" x1="117.466" y1="163.269" x2="65.9463" y2="100.525" gradientUnits="userSpaceOnUse">
<stop stop-color="#61AAEC"/>
<stop offset="0.92" stop-color="#61AAEC" stop-opacity="0"/>
</linearGradient>
<linearGradient id="paint7_linear_358_2554" x1="127.306" y1="172.522" x2="209.94" y2="85.593" gradientUnits="userSpaceOnUse">
<stop stop-color="#61AAEC"/>
<stop offset="0.72" stop-color="#61AAEC" stop-opacity="0"/>
</linearGradient>
<linearGradient id="paint8_linear_358_2554" x1="122.428" y1="177.743" x2="195.445" y2="100.496" gradientUnits="userSpaceOnUse">
<stop stop-color="#61AAEC"/>
<stop offset="0.92" stop-color="#61AAEC" stop-opacity="0"/>
</linearGradient>
<clipPath id="clip0_358_2554">
<rect width="212.678" height="190.921" fill="white" transform="translate(24)"/>
</clipPath>
<clipPath id="clip1_358_2554">
<rect width="27.7406" height="28.8285" fill="white" transform="translate(118.1 76.1505)"/>
</clipPath>
<clipPath id="clip2_358_2554">
<rect width="16.0279" height="14.7209" fill="white" transform="translate(123.646 85.3512)"/>
</clipPath>
</defs>
</svg>
