<svg width="353" height="157" viewBox="0 0 353 157" fill="none" xmlns="http://www.w3.org/2000/svg">
<path d="M272.888 65.093V71.3323C272.888 71.4624 272.771 71.5724 272.625 71.5724H272.11C271.964 71.5724 271.847 71.4657 271.847 71.3323V70.6887H271.021V72.6729C271.021 73.3332 270.429 73.8768 269.702 73.8768H258.99C258.263 73.8768 257.672 73.3332 257.672 72.6729V71.8459H256.897V71.2223H255.246V71.2023L251.939 72.1694V64.8562L255.246 65.8233V65.8033H256.897V65.1797H257.672V64.3993C257.672 63.7357 258.263 63.1955 258.99 63.1955H266.356V61.6948C266.356 61.318 266.02 61.0112 265.607 61.0112C265.567 61.1946 265.387 61.3347 265.176 61.3347H254.65C254.409 61.3347 254.208 61.1546 254.208 60.9312V60.1408C254.208 59.9174 254.405 59.7373 254.65 59.7373H265.176C265.38 59.7373 265.552 59.864 265.603 60.0374H265.61C266.611 60.0374 267.426 60.7811 267.426 61.6948V63.1955H269.706C270.433 63.1955 271.025 63.7357 271.025 64.3993V66.0134H271.85V65.0996C271.85 64.9662 271.967 64.8595 272.113 64.8595H272.628C272.775 64.8595 272.892 64.9662 272.892 65.0996L272.888 65.093Z" fill="#163560"/>
<path d="M258.953 64.7796C259.189 64.7796 259.38 64.6049 259.38 64.3894C259.38 64.174 259.189 63.9993 258.953 63.9993C258.717 63.9993 258.525 64.174 258.525 64.3894C258.525 64.6049 258.717 64.7796 258.953 64.7796Z" fill="#F4F4F4"/>
<path d="M260.541 64.7641C260.774 64.7296 260.933 64.5292 260.895 64.3165C260.857 64.1038 260.637 63.9594 260.404 63.9939C260.171 64.0284 260.013 64.2288 260.051 64.4415C260.089 64.6542 260.308 64.7987 260.541 64.7641Z" fill="#F4F4F4"/>
<path d="M251.647 72.573H251.65C251.806 72.573 251.932 72.458 251.932 72.3162V64.7463C251.932 64.6045 251.806 64.4895 251.65 64.4895H251.647C251.491 64.4895 251.365 64.6045 251.365 64.7463V72.3162C251.365 72.458 251.491 72.573 251.647 72.573Z" fill="#11547B"/>
<path d="M276.366 142.553H275.121L266.254 76.4347H265.604V142.553H264.354V76.4347H263.697L254.83 142.553H253.584L262.451 76.4347H262.44V75.2575H263.901V73.2866H266.06V75.2575H267.522V76.4347H267.5L276.366 142.553Z" fill="#163560"/>
<path d="M296.767 140.266L297.18 142.68H289.852C289.852 142.68 290.012 140.266 291.989 140.266H296.764H296.767Z" fill="#122D4C"/>
<path d="M286.898 140.266L287.311 142.68H279.982C279.982 142.68 280.143 140.266 282.12 140.266H286.895H286.898Z" fill="#122D4C"/>
<path d="M296.766 140.266H292.853C292.853 140.266 289.069 124.035 288.561 121.567C288.345 120.52 287.622 118.166 286.858 115.802C285.627 117.712 284.721 119.333 284.721 119.333C284.721 119.333 286.033 123.175 286.398 125.516C286.672 127.277 286.898 140.262 286.898 140.262H282.639C282.639 140.262 278.32 121.191 278.467 117.702C278.58 114.938 281.086 106.214 282.153 102.919C282.259 102.593 282.35 102.319 282.423 102.112H293.993C293.993 102.399 293.968 102.659 293.92 102.919C293.862 103.266 293.763 103.616 293.639 104.046C293.942 108.829 294.68 120.554 294.961 121.267C298.045 129.054 296.763 140.259 296.763 140.259L296.766 140.266Z" fill="#163560"/>
<path d="M286.859 115.805L287.853 118.976L292.935 105.087C291.517 108.302 288.427 113.371 286.859 115.808V115.805Z" fill="#122D4C"/>
<g style="mix-blend-mode:multiply">
<path d="M282.152 102.926H293.923C293.971 102.666 293.993 102.406 293.997 102.119H282.426C282.353 102.326 282.262 102.599 282.156 102.926H282.152Z" fill="#10215F"/>
</g>
<path d="M270.724 75.254C270.739 77.475 270.998 81.3033 272.35 84.9415C273.15 87.0858 274.312 88.8766 275.78 89.957C276.891 90.7741 278.173 91.1876 279.605 91.0408C279.638 91.0375 279.667 91.0342 279.7 91.0275C279.755 91.6845 279.814 92.3447 279.868 92.9984C280.27 97.7271 280.636 102.119 280.636 102.119H295.819C295.819 102.119 293.419 83.6143 289.849 76.4845C288.395 73.5799 286.865 72.3027 284.464 71.2356L278.509 74.1068C278.509 74.1835 278.509 74.2636 278.509 74.3536C278.517 75.6275 278.564 78.2753 278.834 81.2466C278.418 82.4905 278.053 83.3742 277.811 83.3308C277.059 83.1908 273.004 72.176 273.004 72.176L270.775 73.3465C270.775 73.3465 270.713 74.0735 270.724 75.254Z" fill="#59A4D0"/>
<path d="M278.449 74.2268L278.508 73.6766L278.522 73.5465L278.665 72.4027L278.676 72.316L278.705 72.3027L282.877 70.2051L283.093 70.0984V70.1017L284.897 71.3823L278.449 74.2268Z" fill="#458199"/>
<path d="M289.438 93.9155H282.416V94.6859H289.438V93.9155Z" fill="#458199"/>
<path d="M286.264 79.3091C285.84 82.9273 284.127 88.7198 281.884 91.5544C281.354 92.2247 280.561 92.7282 279.863 93.0017C279.809 92.3481 279.754 91.6844 279.695 91.0308C280.448 90.9141 281.208 90.3039 281.938 89.3801C283.769 87.0658 285.409 82.7773 286.26 79.3124L286.264 79.3091Z" fill="#458199"/>
<path d="M269.461 67.0503C269.461 67.0503 270.813 68.6043 271.551 68.8311C272.289 69.0579 271.876 67.794 271.88 67.3838C271.884 66.9736 272.684 66.5134 272.684 66.5134C272.684 66.5134 273.429 70.4285 273.363 70.5619C273.301 70.6952 272.961 72.2292 272.961 72.2292L270.956 73.283C270.956 73.283 269.129 70.5552 269.129 69.8249C269.129 68.6744 269.458 67.0503 269.458 67.0503H269.461Z" fill="#FF928E"/>
<path d="M278.704 72.3026L282.876 70.2051C282.8 70.035 282.723 69.8582 282.642 69.6782C280.144 70.015 280.754 67.0303 279.979 66.967C279.563 66.9336 279.234 68.0941 279.058 68.0274C278.547 67.834 278.072 66.2067 277.97 65.9766C277.867 65.7465 277.451 64.8227 274.905 65.1695C274.81 65.1829 274.718 65.1829 274.627 65.1695C274.711 66.7469 275.197 69.9283 275.35 70.3751C275.489 70.7753 277.846 70.6819 277.846 70.6819L278.704 72.296V72.3026Z" fill="#FF928E"/>
<path d="M274.622 65.1729C274.699 65.2196 274.805 65.1829 274.9 65.1729C277.45 64.8228 277.863 65.7465 277.965 65.9799C278.067 66.21 278.546 67.8374 279.054 68.0308C279.233 68.0975 279.558 66.937 279.978 66.9704C280.756 67.0337 280.143 70.0184 282.641 69.6816C282.641 69.6816 283.288 64.7561 283.043 64.1025C283.043 64.1025 282.784 62.6718 281.461 62.0883C279.576 61.2546 276.237 62.2917 275.81 62.3617C275.09 62.4784 274.155 62.2517 274.155 62.2517C274.155 62.2517 272.277 63.7423 274.615 65.1763L274.622 65.1729Z" fill="#163560"/>
<path d="M280.858 67.2739V68.1543C280.858 68.7312 280.339 69.2047 279.707 69.2047H278.995C278.363 69.2047 277.844 68.7312 277.844 68.1543V67.2739C277.844 66.8037 278.187 66.4002 278.658 66.2701V62.0216C278.658 61.8816 278.721 61.7515 278.823 61.6581C278.925 61.5648 279.064 61.5081 279.217 61.5081C279.524 61.5081 279.773 61.7382 279.773 62.0216V66.2268C279.773 66.2268 279.787 66.2268 279.791 66.2268C280.383 66.2668 280.854 66.7237 280.854 67.2739H280.858Z" fill="#137EBC"/>
<path d="M280.59 66.9773V68.628C280.59 68.9515 280.298 69.2183 279.943 69.2183H278.376C278.303 69.2183 278.23 69.2083 278.164 69.1849C277.949 69.5951 277.485 69.8819 276.955 69.8819H275.077C275.015 70.0253 274.858 70.1287 274.675 70.1287C274.438 70.1287 274.244 69.952 274.244 69.7352C274.244 69.5184 274.438 69.3417 274.675 69.3417C274.832 69.3417 274.971 69.4184 275.044 69.5318H276.955C277.364 69.5318 277.711 69.2983 277.85 68.9682C277.773 68.8715 277.729 68.7514 277.729 68.6247V66.974C277.729 66.6505 278.022 66.3837 278.376 66.3837H278.986V61.5283C278.986 61.5016 279.012 61.4783 279.041 61.4783H279.395C279.425 61.4783 279.45 61.5016 279.45 61.5283V66.3837H279.943C280.298 66.3837 280.59 66.6505 280.59 66.974V66.9773Z" fill="#137EBC"/>
<path d="M35.5271 138.772V141.076H43.4111C43.4111 141.076 42.7936 138.772 40.6637 138.772H35.5234H35.5271Z" fill="#122D4C"/>
<path d="M54.324 138.772V141.076H62.2079C62.2079 141.076 61.5905 138.772 59.4606 138.772H54.3203H54.324Z" fill="#122D4C"/>
<path d="M35.5132 138.772H41.2709C41.2709 138.772 53.1845 125.599 53.1845 123.212C53.1845 122.708 52.9215 120.791 52.5452 118.316C52.4502 117.689 52.3479 117.029 52.2419 116.345C47.92 113.287 42.2427 109.216 41.048 108.099C40.6681 107.742 40.3685 107.265 40.1383 106.725C40.2625 107.565 40.4379 108.535 40.6754 109.639C41.3841 112.911 42.6774 117.376 45.0083 123.208L35.5059 138.769L35.5132 138.772Z" fill="#163560"/>
<path d="M39.5078 103.473C39.5115 103.687 39.5261 103.903 39.5443 104.127C39.6211 105 39.8074 105.931 40.1435 106.728C40.3737 107.268 40.6696 107.745 41.0532 108.102C42.2478 109.219 47.9252 113.291 52.2471 116.349C55.0931 118.363 57.3509 119.937 57.3509 119.937C57.3509 119.937 55.758 124.049 55.2063 127.037C54.6547 130.025 54.2163 138.772 54.2163 138.772H59.1227C59.1227 138.772 65.7573 121.334 65.3262 118.796C64.8695 116.102 57.0476 108.025 53.1422 104.127C52.9084 103.893 52.6855 103.673 52.4809 103.473H39.5115H39.5078Z" fill="#163560"/>
<path d="M40.0879 106.338C40.2158 107.261 41.0524 108.102 41.9913 109.229C43.7376 110.713 48.4103 115.398 52.5495 118.32C52.4545 117.693 52.3522 117.032 52.2463 116.349C47.9244 113.291 42.247 109.219 41.0524 108.102C40.5811 107.662 40.2779 107.035 40.0879 106.338Z" fill="#122D4C"/>
<path d="M39.5078 103.473C39.5115 103.687 39.5261 103.903 39.5443 104.127H53.1385C52.9047 103.893 52.6819 103.673 52.4773 103.473H39.5078Z" fill="#122D4C"/>
<path d="M38.3318 103.473H53.1864C53.1864 103.473 53.5444 99.1747 53.9353 94.5493C53.9901 93.9091 54.0449 93.2621 54.0997 92.6185C54.1289 92.6218 54.1618 92.6285 54.191 92.6318C55.5903 92.7752 56.847 92.3717 57.9321 91.5714C59.3679 90.5142 60.5077 88.7635 61.2895 86.6659C62.6121 83.1077 62.8641 79.3627 62.8788 77.1885C62.8861 76.0346 62.8276 75.3243 62.8276 75.3243L60.6465 74.1772C60.6465 74.1772 56.679 84.9552 55.9447 85.0919C55.7108 85.1352 55.3528 84.2715 54.9473 83.0543C55.2103 80.1464 55.2578 77.5586 55.2651 76.3114C55.2651 76.2247 55.2651 76.1447 55.2651 76.0713L50.1906 73.2634C49.1932 73.777 46.4715 75.2743 45.0467 77.0951C41.0828 82.1606 38.3281 103.48 38.3281 103.48L38.3318 103.473Z" fill="#59A4D0"/>
<path d="M50.1367 73.2266L50.1915 73.2566L50.429 73.39L51.5798 74.0236L55.266 76.0645L55.3209 76.0979L55.266 75.6443L55.2478 75.5143L55.1016 74.3138L55.0724 74.2971L50.7797 72.1428L50.7761 72.1462L50.1367 73.2266Z" fill="#458199"/>
<path d="M44.575 96.2H51.4434V95.4463H44.575V96.2Z" fill="#458199"/>
<path d="M47.6758 81.1535C48.0886 84.6917 49.7655 90.3608 51.9612 93.132C52.48 93.789 53.2545 94.2825 53.9377 94.546C53.9925 93.9057 54.0473 93.2587 54.1021 92.6151C53.3641 92.5017 52.6224 91.9048 51.9064 91.0011C50.1162 88.7368 48.5124 84.5416 47.6758 81.1501V81.1535Z" fill="#458199"/>
<path d="M51.9082 91.0044C52.6535 91.9448 53.428 92.5517 54.1952 92.6317C55.5944 92.7751 56.8512 92.3716 57.9363 91.5713C57.6476 90.6242 56.3361 89.9072 54.7651 89.9072C53.523 89.9072 52.4489 90.3541 51.9082 91.0077V91.0044Z" fill="#458199"/>
<path d="M56.5947 68.6179C56.5947 68.6179 56.1526 70.8822 56.876 71.3291C57.5482 71.7459 58.7136 71.4725 58.8671 71.4358C59.0241 70.9756 59.1374 70.5521 59.1885 70.322C59.3931 69.4249 59.4881 68.0543 59.5283 67.354C58.5492 67.6341 57.4167 67.5741 57.4167 67.5741C57.4167 67.5741 56.971 68.2911 56.5983 68.6212L56.5947 68.6179Z" fill="#FF928E"/>
<path d="M50.7754 72.146L55.0681 74.3003L55.5394 73.2799C55.2581 72.893 55.4992 69.2781 55.4992 69.2781L55.5211 69.2648C55.4554 68.9346 55.3165 68.4078 55.0608 68.3644C54.3886 68.251 53.8698 68.9513 53.8296 69.7383C53.7931 70.522 51.7472 71.6025 50.9763 71.6158C50.9763 71.6158 50.969 71.5758 50.9544 71.5058L50.7754 72.1527V72.146Z" fill="#FF928E"/>
<path d="M50.9592 71.4994C50.9738 71.5694 50.9811 71.6094 50.9811 71.6094C51.752 71.5961 53.7979 70.5189 53.8344 69.7319C53.8709 68.9483 54.3933 68.2446 55.0656 68.358C55.3213 68.4014 55.4638 68.9283 55.5259 69.2584L55.504 69.2717C55.504 69.2717 55.2628 72.8866 55.5442 73.2735C55.6172 73.3735 55.7926 73.4702 56.0191 73.5469C56.6621 73.7637 57.7216 73.8304 58.0796 73.4402C58.3792 73.1167 58.8833 71.4293 58.8833 71.4293C58.8833 71.4293 58.876 71.4293 58.8651 71.4327C58.7116 71.4694 57.5462 71.7428 56.874 71.326C56.1543 70.8791 56.5927 68.6148 56.5927 68.6148C56.9653 68.2813 57.411 67.5677 57.411 67.5677C57.411 67.5677 58.5472 67.6277 59.5227 67.3476C60.0122 67.2075 60.4652 66.9807 60.7137 66.6173C61.3896 65.6335 60.5529 64.2862 60.5529 64.2862C60.5529 64.2862 60.0597 64.2129 59.5117 64.2629C58.9637 64.3129 55.7999 63.6893 55.1423 63.5059C54.4847 63.3225 51.3684 63.6226 50.4696 64.8732C49.8449 65.7435 50.7984 70.689 50.9592 71.4927V71.4994Z" fill="#163560"/>
<path d="M60.5781 68.2512V72.573C60.5781 72.9199 60.8887 73.2033 61.2686 73.2033H63.267C63.647 73.2033 63.9575 72.9199 63.9575 72.573V71.8627H64.8197V72.1429H67.9579V71.816H68.8201V71.806L70.5482 72.3096V68.4913L68.8201 68.9948V68.9848H67.9579V68.658H64.8197V69.0282H63.9575V68.2478C63.9575 67.901 63.647 67.6176 63.267 67.6176H62.087V66.9573H61.2905V67.6176H61.2686C60.8887 67.6176 60.5781 67.901 60.5781 68.2478V68.2512Z" fill="#163560"/>
<path d="M64.1165 69.1615C64.1165 69.1615 62.7939 70.6788 62.0706 70.9023C61.3472 71.1257 61.7527 69.8885 61.7491 69.4883C61.7454 69.0881 60.9636 68.6379 60.9636 68.6379C60.9636 68.6379 60.2366 72.4663 60.2987 72.5997C60.3608 72.7297 60.6896 74.2337 60.6896 74.2337L62.6515 75.2641C62.6515 75.2641 64.438 72.5963 64.438 71.8793C64.438 70.7522 64.1165 69.1648 64.1165 69.1648V69.1615Z" fill="#FF928E"/>
<path d="M306.801 143.094C306.381 143.204 306.268 141.903 306.268 141.903C306.268 141.903 304.737 143.094 303.214 143.094C301.69 143.094 304.832 140.583 304.832 140.583L306.787 140.649C306.787 140.649 306.787 140.653 306.79 140.663C306.853 140.85 307.536 142.904 306.801 143.094Z" fill="#163560"/>
<path d="M309.252 123.392C308.861 126.326 306.929 139.719 306.793 140.659C306.793 140.649 306.79 140.646 306.79 140.646L304.835 140.579C304.835 140.579 304.042 124.305 303.622 115.855C303.615 115.722 303.608 115.588 303.604 115.462C303.589 115.198 303.615 114.931 303.626 114.668H309.121C309.069 114.965 309.026 115.232 309 115.462C308.985 115.605 308.974 115.732 308.967 115.845V115.858C308.879 118.106 309.665 120.354 309.259 123.395L309.252 123.392Z" fill="#FF928E"/>
<path d="M303.616 114.668H309.111C309.06 114.965 309.016 115.232 308.99 115.462C308.976 115.605 308.965 115.732 308.958 115.845L303.616 115.858C303.609 115.725 303.602 115.592 303.598 115.462C303.584 115.198 303.609 114.931 303.62 114.668H303.616Z" fill="#E58080"/>
<path d="M321.065 142.994C320.645 143.104 320.532 141.803 320.532 141.803C320.532 141.803 319.001 142.994 317.478 142.994C316.111 142.994 318.614 140.966 319.114 140.556H321.054C321.054 140.556 321.058 140.569 321.061 140.576C321.149 140.836 321.785 142.807 321.069 142.994H321.065Z" fill="#163560"/>
<path d="M321.056 140.576C321.056 140.576 321.052 140.559 321.049 140.556H319.138C318.966 138.632 317.823 127.3 313.991 117.183C313.976 117.143 313.636 116.376 313.406 115.832C313.289 115.555 313.198 115.335 313.194 115.298C313.165 115.115 313.132 114.878 313.092 114.598H318.47C318.334 115.108 318.25 115.392 318.25 115.392C318.25 115.392 318.356 115.549 318.532 115.819C319.131 116.759 320.53 119.093 321.012 121.148C321.611 123.682 321.096 139.266 321.052 140.576H321.056Z" fill="#FF928E"/>
<path d="M318.532 115.822L313.406 115.835C313.289 115.558 313.198 115.338 313.194 115.302C313.165 115.118 313.132 114.881 313.092 114.601H318.47C318.334 115.112 318.254 115.395 318.254 115.395C318.254 115.395 318.36 115.552 318.535 115.822H318.532Z" fill="#E58080"/>
<path d="M319.969 100.452C319.582 105.487 318.939 112.887 318.472 114.668H303.303L305.915 94.3692L306.076 93.1187L306.193 92.195C306.39 89.207 306.309 87.2228 306.105 85.8989C305.889 84.5216 305.539 83.8547 305.217 83.5145C304.998 83.2778 304.541 82.9876 304.194 82.4607C303.898 82.0105 303.683 81.3903 303.759 80.4899C303.927 78.529 304.972 74.0804 304.972 74.0804C304.972 74.0804 304.972 74.0804 304.98 74.0804C305.129 74.1104 307.873 74.6473 310.504 74.6473C312.871 74.6473 315.158 74.3539 317.123 73.8303C317.123 73.8303 315.403 86.4758 316.316 89.8139C316.539 90.6243 320.485 93.6889 319.966 100.449L319.969 100.452Z" fill="#163560"/>
<path d="M306.195 92.1949L306.078 93.1186L305.918 94.3692C305.023 95.3529 303.981 96.4501 303.525 96.9203C303.59 97.3338 303.532 97.9741 303.43 98.3276C303.309 98.7511 302.622 100.318 302.622 100.318C302.622 100.318 302.268 99.9549 302.443 99.5514C302.619 99.1479 302.63 98.6811 302.399 98.7744C302.166 98.8645 301.555 99.9583 301.804 100.582C302.151 101.452 301.892 101.696 301.892 101.696C301.892 101.696 301.413 101.576 300.938 100.939C300.624 100.515 300.397 99.9183 300.496 99.6048C300.638 99.1446 301.457 97.8474 301.581 97.4205L306.108 85.9055C306.312 87.2294 306.393 89.2136 306.195 92.2016V92.1949Z" fill="#FF928E"/>
<path d="M320.075 87.7898C320.068 90.2742 316.016 98.7746 315.815 98.9713C315.709 99.0747 314.789 99.3915 313.897 99.6516C313.342 99.8117 312.798 99.9517 312.465 100.005C312.308 100.032 312.202 100.035 312.158 100.015C311.888 99.885 310.945 98.5111 311.022 98.251C311.099 97.9909 314.179 97.5974 314.179 97.5974C314.179 97.5974 316.023 88.7936 316.235 87.7098C316.542 86.1558 314.233 73.9938 317.072 73.8337C317.072 73.8337 318.522 74.0638 318.753 75.241C318.979 76.4182 320.079 87.1295 320.079 87.7898H320.075Z" fill="#FF928E"/>
<path d="M313.031 95.7499C313.031 95.9967 312.976 96.2335 312.878 96.4436C312.878 96.4436 312.867 96.4436 312.863 96.4469L310.799 97.0571C310.799 97.0571 310.788 97.0605 310.781 97.0638L310.481 97.1505C310.01 96.8604 309.699 96.3402 309.699 95.7532C309.699 94.8429 310.445 94.1025 311.365 94.1025C312.286 94.1025 313.031 94.8429 313.031 95.7532V95.7499Z" fill="#163560"/>
<path d="M313.298 97.6707L311.237 98.2809L310.766 98.421C310.653 98.4543 310.532 98.3976 310.496 98.2943L310.196 97.4439C310.159 97.3405 310.222 97.2305 310.335 97.1971L310.492 97.1504L310.792 97.0637C310.792 97.0637 310.802 97.0604 310.81 97.0571L312.874 96.4468C312.874 96.4468 312.885 96.4468 312.889 96.4435C312.998 96.4201 313.108 96.4768 313.144 96.5735L313.444 97.4239C313.48 97.5273 313.418 97.6373 313.305 97.6707H313.298Z" fill="white"/>
<path d="M314.109 97.4307L313.294 97.6708C313.408 97.6374 313.47 97.5274 313.433 97.424L313.134 96.5736C313.097 96.4703 312.977 96.4136 312.863 96.4469L313.678 96.2068C313.791 96.1735 313.912 96.2302 313.948 96.3335L314.248 97.1839C314.284 97.2873 314.222 97.3973 314.109 97.4307Z" fill="#163560"/>
<path d="M314.165 102.226L313.99 102.279C313.654 102.383 313.285 102.216 313.168 101.909L312.463 100.005C312.795 99.9517 313.34 99.8117 313.895 99.6516L314.571 101.479C314.684 101.786 314.501 102.123 314.165 102.229V102.226Z" fill="#163560"/>
<path d="M304.976 74.0806C306.679 74.4475 308.546 74.6476 310.508 74.6476C312.875 74.6476 315.107 74.3541 317.073 73.8305C315.856 73.3603 313.24 72.7267 312.689 72.67C312.685 72.67 312.678 72.67 312.674 72.67C312.667 72.5833 312.659 72.49 312.656 72.3966C312.656 72.3566 312.656 72.3165 312.652 72.2765C312.473 71.3261 312.626 70.2657 312.626 68.5516C312.626 66.6774 312.469 65.3135 311.72 65.2601C311.706 65.2601 311.14 65.2035 310.332 65.2668C309.331 65.3969 308.104 65.727 307.862 66.5474C307.811 66.7274 307.775 66.9642 307.757 67.2243C307.691 68.0514 307.757 69.1352 307.786 69.5453C307.939 69.9188 308.133 70.1689 308.348 70.2156C308.356 70.2156 308.363 70.2156 308.37 70.219C308.378 70.219 308.389 70.219 308.4 70.2223L309.258 70.2923L309.05 72.6167C308.695 72.67 307.643 73.0435 307.289 73.1569C306.186 73.5071 305.002 74.064 304.973 74.0806H304.976Z" fill="#FF928E"/>
<path d="M303.877 72.0831C303.954 72.1098 304.041 72.1331 304.133 72.1531C304.827 72.2965 308.67 72.2431 309.109 72.2765L309.127 71.983L309.255 70.2923L308.619 70.2423C308.553 70.2356 308.477 70.2323 308.396 70.2256C308.389 70.2256 308.378 70.2256 308.371 70.2223C308.363 70.2223 308.356 70.2223 308.349 70.2189C308.129 70.1722 307.936 69.9221 307.786 69.5486C307.757 69.1351 307.687 68.0547 307.757 67.2276C307.779 66.9675 307.812 66.7308 307.863 66.5507C308.1 65.7303 309.328 65.4035 310.332 65.2701C311.136 65.2101 311.702 65.2701 311.717 65.2635C312.466 65.3168 312.623 66.6807 312.623 68.5549C312.623 70.269 312.47 71.3294 312.649 72.2798C312.649 72.2998 312.656 72.3165 312.66 72.3365C312.923 72.3865 313.211 72.3632 313.485 72.3665C313.496 72.3665 313.507 72.3665 313.518 72.3665C315.444 72.2632 315.948 72.2998 317.329 72.0764C318.859 71.8296 317.778 70.0222 317.241 69.702C317.234 69.6954 317.223 69.692 317.215 69.6887C316.686 69.3986 316.664 69.1451 316.854 68.5649C316.868 68.5215 316.879 68.4748 316.887 68.4315C316.963 67.9513 316.631 67.4511 316.35 67.2276C316.309 67.1976 316.273 67.1709 316.236 67.1509C315.918 66.9775 315.579 66.8808 315.473 66.1238C315.367 65.3668 314.815 64.94 314.559 64.8066C314.304 64.6699 313.971 64.4764 313.774 63.9329C313.719 63.7795 313.65 63.6461 313.569 63.5294C313.193 62.9825 312.411 62.8824 312.097 62.789C312.097 62.789 312.035 62.769 311.936 62.7724C311.114 62.7157 309.562 62.9191 307.936 63.8895C306.767 64.5298 306.511 65.4002 306.16 65.847C306.087 65.9437 305.897 66.0238 305.799 66.0738C305.51 66.2239 305.342 66.534 305.291 66.8575C305.276 66.9542 305.273 67.0476 305.276 67.1443C305.309 67.6678 305.148 67.4644 304.765 68.018C304.381 68.5715 305.115 68.8016 304.319 69.5586C303.859 69.9955 304.381 70.489 303.778 70.7225C303.771 70.7225 303.764 70.7292 303.756 70.7325C303.482 70.8659 303.04 71.8096 303.87 72.0931L303.877 72.0831Z" fill="#163560"/>
<path d="M99.9859 89.9775C103.519 88.6203 100.519 81.9107 100.581 76.9152C100.64 72.2799 102.043 71.4728 105.112 69.8555C105.349 69.7287 105.597 69.5987 105.857 69.462C107.011 68.8484 107.596 67.908 107.888 66.7541C108.18 65.6003 108.235 63.3827 110.091 63.4694C112.806 63.5961 114.165 62.7324 114.555 62.4222C114.64 62.3555 114.68 62.3155 114.68 62.3155C114.526 60.5481 112.718 59.1475 110.087 59.0108C107.457 58.8774 105.112 58.9341 103.387 66.6941C102.54 70.5091 92.3759 69.612 91.5356 78.4492C90.604 88.2368 97.286 91.0113 99.9822 89.9742L99.9859 89.9775Z" fill="#163560"/>
<path d="M105.856 69.4618C106.937 68.7449 107.595 67.9078 107.887 66.754C108.18 65.6002 108.234 63.3825 110.09 63.4692C112.805 63.596 114.164 62.7323 114.555 62.4221C114.555 62.4655 114.547 62.5088 114.54 62.5488C114.222 64.1395 113.272 67.6444 112.282 67.5043C112.176 67.4877 112.07 67.4743 111.975 67.461C111.95 67.4576 111.917 67.451 111.888 67.4476C111.464 67.3843 111.139 67.3309 110.938 67.2976C110.781 67.2709 110.7 67.2575 110.7 67.2575L109.816 69.7186C110.024 69.902 113.108 71.1859 113.108 71.1859C113.108 71.1859 109.688 72.0996 106.872 72.093C104.055 72.0863 99.7402 71.2993 99.7402 71.2993C100.124 71.2559 105.1 69.9721 105.863 69.4652L105.856 69.4618Z" fill="#FF928E"/>
<path d="M109.814 69.6186L110.699 67.2576C110.699 67.2576 110.783 67.2743 110.936 67.2976C109.369 66.8541 108.612 65.8503 108.612 65.8503C108.39 68.4081 109.135 69.1985 109.814 69.6186Z" fill="#E58080"/>
<path d="M111.945 144.905C112.406 145.025 112.475 143.584 112.475 143.584C112.475 143.584 114.188 144.905 115.84 144.905C117.491 144.905 113.98 142.117 113.98 142.117L111.861 142.19C111.861 142.19 111.861 142.197 111.858 142.207C111.795 142.414 111.142 144.698 111.949 144.908L111.945 144.905Z" fill="#163560"/>
<path d="M108.471 123.032C109.019 126.29 111.671 141.159 111.857 142.207C111.857 142.197 111.861 142.19 111.861 142.19L113.98 142.116C113.98 142.116 114.163 124.049 114.272 114.665C114.272 114.518 114.272 114.371 114.276 114.224C114.276 113.931 114.243 113.637 114.221 113.344H108.255C108.324 113.674 108.379 113.971 108.419 114.224C108.441 114.384 108.46 114.525 108.471 114.648V114.665C108.657 117.159 107.901 119.653 108.471 123.032Z" fill="#FF928E"/>
<path d="M114.222 113.344H108.256C108.325 113.674 108.38 113.971 108.42 114.225C108.442 114.385 108.46 114.525 108.471 114.648L114.269 114.661C114.269 114.515 114.269 114.368 114.273 114.221C114.273 113.928 114.24 113.634 114.218 113.341L114.222 113.344Z" fill="#E58080"/>
<path d="M98.0372 144.978C98.5012 145.098 98.5669 143.657 98.5669 143.657C98.5669 143.657 100.28 144.978 101.932 144.978C103.477 144.978 100.511 142.544 100.116 142.223C100.087 142.2 100.072 142.187 100.072 142.187L98.0408 142.257H97.9532C97.9532 142.257 97.1969 144.755 98.0372 144.975V144.978Z" fill="#163560"/>
<path d="M98.0443 142.26L100.076 142.19C100.076 142.19 100.09 142.2 100.119 142.227C100.214 140.286 100.963 127.564 104.741 116.215C104.756 116.169 105.092 115.318 105.322 114.715C105.439 114.408 105.526 114.164 105.53 114.124C105.552 113.921 105.581 113.661 105.61 113.347H99.7687C99.9367 113.914 100.039 114.228 100.039 114.228C100.039 114.228 99.9294 114.401 99.754 114.701C99.1403 115.745 97.7228 118.34 97.2807 120.617C96.7254 123.492 97.9968 141.533 98.0479 142.263L98.0443 142.26Z" fill="#FF928E"/>
<path d="M99.748 114.698L105.316 114.711C105.433 114.404 105.52 114.161 105.524 114.121C105.546 113.918 105.575 113.654 105.604 113.344H99.7627C99.9307 113.911 100.033 114.224 100.033 114.224C100.033 114.224 99.9234 114.398 99.748 114.698Z" fill="#E58080"/>
<path d="M97.1374 100.796C97.8023 106.385 99.1833 111.44 99.7679 113.418L114.597 113.565L111.926 88.467H111.831L101.193 88.417C101.193 88.417 101.12 88.487 100.992 88.6171C99.7642 90.9648 96.3848 94.4529 97.1374 100.796Z" fill="#020F1C"/>
<path d="M113.104 71.1826C113.231 71.2493 119.449 75.6679 119.902 75.7613L120.045 79.7397C117.177 79.5029 113.177 75.9347 113.177 75.9347C114.664 80.8535 112.373 80.8702 112.048 81.8006C111.723 82.7343 111.923 87.6664 111.923 87.6664C111.887 87.9432 111.902 88.2534 111.88 88.5101L101.197 88.4201C101.197 88.4201 101.124 88.4901 100.993 88.6202C101.157 88.3067 101.281 88.0132 101.354 87.7365C101.365 87.6898 101.376 87.6398 101.387 87.5897C101.555 86.7427 101.479 85.3754 101.307 83.9482C101.252 83.5013 101.19 83.0444 101.12 82.6009C100.941 81.4404 100.733 80.3366 100.565 79.5296C100.649 80.7301 100.379 82.6843 98.501 84.9686C98.501 84.9686 94.1316 89.5106 94.4567 85.999C94.4166 83.7948 97.5475 74.8342 98.3074 72.8533C98.702 71.8296 99.798 71.2727 99.798 71.2727C99.798 71.2727 104.036 72.0897 106.86 72.0463C109.746 72.003 113.096 71.186 113.096 71.186L113.104 71.1826Z" fill="#020F1C"/>
<path d="M126.667 67.5011C126.667 67.5011 127.733 65.8171 128.099 65.557C128.541 65.2468 130.379 64.2531 130.379 64.2531C130.379 64.2531 130.411 64.82 129.936 65.0768C129.462 65.3335 129.089 65.7537 129.37 65.8238C129.651 65.8904 131.054 65.2869 131.317 64.5465C131.686 63.5194 132.107 63.4661 132.107 63.4661C132.107 63.4661 132.439 63.8929 132.366 64.7866C132.315 65.3836 132.052 66.0772 131.719 66.304C131.23 66.6374 129.483 67.2944 129.045 67.6045C128.95 67.6712 128.87 67.7746 128.8 67.898C123.503 81.694 120.259 79.7398 120.047 79.7398L119.904 75.7614C119.904 75.7614 119.912 75.7614 119.915 75.7614C119.915 75.7614 119.923 75.6614 119.926 75.6614L126.667 67.4978V67.5011Z" fill="#FF928E"/>
<path d="M107.714 75.1377C107.641 75.181 106.556 75.5746 106.026 75.778C105.587 75.948 104.667 76.1048 104.451 76.4316C104.236 76.7584 103.22 83.0478 101.309 83.9448C101.255 83.498 101.192 83.0411 101.123 82.5976C101.328 82.2775 101.507 81.9607 101.653 81.6572C101.675 81.6138 101.693 81.5705 101.715 81.5305C102.036 80.8402 102.332 80.1532 102.588 79.5096C103.436 77.392 103.914 75.7179 103.914 75.7179C103.914 75.7179 107.363 75.3078 107.714 75.1377Z" fill="#CC6F00"/>
<path d="M108.324 73.7238C108.324 73.7238 108.324 73.7638 108.317 73.8339C108.288 74.124 108.174 74.9043 107.718 75.1378C107.718 75.1378 107.718 75.1378 107.714 75.1378C107.363 75.3079 103.915 75.718 103.915 75.718C103.915 75.718 103.44 77.3921 102.588 79.5097C102.333 80.1533 102.037 80.8403 101.715 81.5305C101.697 81.5739 101.675 81.6139 101.653 81.6573C101.416 82.1408 101.101 82.6544 100.736 83.1746C100.601 83.368 100.455 83.5648 100.305 83.7582C98.9314 85.539 97.0755 87.2364 95.826 87.6799C95.7128 87.7199 95.6068 87.7499 95.5045 87.7666C95.4534 87.7766 95.4022 87.7833 95.3548 87.7866C95.3146 87.7899 95.2744 87.7899 95.2342 87.7899C95.0259 87.7833 94.8542 87.7166 94.7264 87.5765C94.4231 87.2464 94.3647 86.6761 94.4597 85.9925C94.5839 85.0954 94.9711 84.005 95.4169 83.0112C95.7091 82.3509 96.027 81.734 96.3083 81.2404C97.3349 79.4396 102.632 73.9006 103.049 73.8005C105.233 73.2803 108.321 73.7238 108.321 73.7238H108.324Z" fill="#FF928E"/>
<path d="M136.179 78.9028V80.5169H112.015L99.3782 92.0519H99.2832V89.4574L109.041 80.6703L110.393 79.4564L110.437 79.4164L110.74 79.1696L111.065 78.9028H136.179Z" fill="#137EBC"/>
<path d="M136.177 80.5166L123.92 91.7015L123.54 92.0516H99.377L112.014 80.5166H136.177Z" fill="#11547B"/>
<path d="M125.753 78.8228V80.6669H121.362V78.8228H123.324V73.5571C123.324 73.5171 123.324 73.4771 123.324 73.4371C123.291 71.9731 122.659 70.6025 121.544 69.5787C120.437 68.5583 118.972 67.9947 117.423 67.9914C117.307 68.3882 116.908 68.6817 116.437 68.6817C115.871 68.6817 115.414 68.2648 115.414 67.7479C115.414 67.2311 115.871 66.8142 116.437 66.8142C116.908 66.8142 117.303 67.1043 117.423 67.4978C119.119 67.5012 120.719 68.1181 121.928 69.2319C123.141 70.3457 123.828 71.8364 123.864 73.4271C123.864 73.4704 123.864 73.5138 123.864 73.5605V78.8261H125.753V78.8228Z" fill="#163560"/>
<path d="M117.876 85.2656V146.679H113.229V87.2965L115.457 85.2656H117.876Z" fill="#1AA2E5"/>
<path d="M120.11 85.2656H115.463V146.679H120.11V85.2656Z" fill="#137EBC"/>
<g style="mix-blend-mode:multiply">
<path d="M120.106 85.2656V89.5075L115.463 85.2656H120.106Z" fill="#D1D3D4"/>
</g>
<path d="M122.058 144.905H111.949V146.679H122.058V144.905Z" fill="#11547B"/>
<path d="M352.266 118.356V118.416L352.774 152.358L347.758 156.9L347.652 157L321.333 156.219H321.326L321.26 119.337H321.263L321.512 119.29L327.96 118.096L352.178 118.356H352.266Z" fill="#555555"/>
<path style="mix-blend-mode:screen" opacity="0.88" d="M347.18 119.69L321.333 156.219H321.326L321.26 119.337H321.263L347.18 119.69Z" fill="url(#paint0_linear_287_5447)"/>
<path d="M342.406 146.295C342.402 146.585 342.388 146.875 342.348 147.155C342.22 148.232 341.862 149.249 341.314 150.16C340.148 152.141 338.128 153.648 335.702 154.295C334.807 154.535 333.864 154.658 332.889 154.642C327.683 154.572 323.602 150.69 323.767 146.035C323.935 141.443 328.187 137.818 333.269 137.891C337.584 137.948 341.182 140.652 342.143 144.271C342.322 144.921 342.41 145.601 342.402 146.298L342.406 146.295Z" fill="#727272"/>
<path d="M341.319 150.157C340.153 152.138 338.133 153.645 335.707 154.292L331.619 147.175L333.449 145.898L341.319 150.157Z" fill="#595959"/>
<path d="M342.406 146.295C342.402 146.585 342.388 146.875 342.348 147.155L336.111 146.458V145.345L342.147 144.271C342.326 144.921 342.413 145.601 342.406 146.298V146.295Z" fill="#595959"/>
<path d="M337.959 146.228C337.922 148.476 335.862 150.28 333.356 150.243C330.85 150.207 328.869 148.346 328.935 146.098C329.001 143.867 331.058 142.093 333.538 142.13C336.015 142.163 337.996 143.994 337.963 146.225L337.959 146.228Z" fill="#3F3F3F"/>
<path d="M340.157 128.797C340.154 129.141 340.114 129.478 340.051 129.805C339.858 130.752 339.416 131.625 338.787 132.366C337.764 133.583 336.237 134.46 334.48 134.76C334.016 134.843 333.53 134.88 333.03 134.873C329.139 134.817 326.085 131.999 326.194 128.604C326.304 125.243 329.493 122.588 333.315 122.638C336.826 122.685 339.697 125.009 340.103 128.004C340.139 128.264 340.157 128.527 340.154 128.797H340.157Z" fill="#727272"/>
<path d="M340.157 128.797C340.154 129.141 340.113 129.478 340.051 129.805L335.094 128.701L335.554 127.83L340.103 128.004C340.139 128.264 340.157 128.527 340.154 128.797H340.157Z" fill="#595959"/>
<path d="M338.792 132.366C337.769 133.583 336.242 134.46 334.485 134.76L332.314 130.878L334.466 129.351L338.792 132.362V132.366Z" fill="#595959"/>
<path d="M336.555 128.748C336.526 130.388 334.98 131.702 333.106 131.675C331.232 131.649 329.749 130.295 329.796 128.654C329.844 127.023 331.385 125.726 333.245 125.75C335.104 125.776 336.588 127.113 336.558 128.744L336.555 128.748Z" fill="#3F3F3F"/>
<path style="mix-blend-mode:screen" opacity="0.88" d="M352.262 118.36V118.42L347.18 119.69C347.18 119.69 328.617 119.34 321.256 119.34L327.96 118.096L352.262 118.36Z" fill="url(#paint1_linear_287_5447)"/>
<path style="mix-blend-mode:multiply" opacity="0.3" d="M352.267 118.356V118.416L352.775 152.358L347.759 157L347.182 119.69L352.179 118.356H352.267Z" fill="url(#paint2_linear_287_5447)"/>
<path d="M333.174 143.09C333.656 143.604 333.324 144.587 332.425 145.284C331.526 145.981 330.405 146.128 329.922 145.611C329.44 145.094 329.78 144.111 330.679 143.417C331.574 142.723 332.692 142.58 333.174 143.093V143.09Z" fill="#595959"/>
<path d="M333.538 126.516C333.958 126.953 333.67 127.79 332.888 128.384C332.106 128.978 331.127 129.101 330.707 128.661C330.287 128.221 330.583 127.384 331.364 126.793C332.146 126.203 333.118 126.08 333.538 126.52V126.516Z" fill="#595959"/>
<path d="M2.04883 118.486V118.546L2.57491 152.484L7.72982 156.9L7.83942 156.996L34.1217 155.549H34.1291L33.0732 118.68H33.0659L32.8175 118.636L26.3364 117.609L2.13286 118.483L2.04883 118.486Z" fill="#555555"/>
<path style="mix-blend-mode:screen" opacity="0.88" d="M7.17188 119.69L34.1228 155.549H34.1301L33.0742 118.68H33.0669L7.17188 119.69Z" fill="url(#paint3_linear_287_5447)"/>
<path d="M12.7546 146.165C12.7655 146.455 12.7911 146.745 12.8386 147.022C12.9994 148.096 13.3903 149.103 13.9602 149.997C15.1877 151.947 17.2519 153.405 19.696 153.988C20.5984 154.208 21.5446 154.305 22.52 154.262C27.7224 154.058 31.6827 150.077 31.3758 145.425C31.0689 140.839 26.7068 137.321 21.6286 137.525C17.3176 137.691 13.8031 140.486 12.9519 144.127C12.7948 144.784 12.7254 145.465 12.7546 146.162V146.165Z" fill="#727272"/>
<path d="M13.9648 149.997C15.1924 151.948 17.2565 153.405 19.7006 153.988L23.5695 146.769L21.7027 145.538L13.9648 149.997Z" fill="#595959"/>
<path d="M12.7546 146.165C12.7655 146.455 12.7911 146.745 12.8386 147.022L19.053 146.165L19.0164 145.051L12.9519 144.131C12.7948 144.788 12.7254 145.468 12.7546 146.165Z" fill="#595959"/>
<path d="M17.2012 145.985C17.3035 148.229 19.4188 149.983 21.925 149.883C24.4275 149.783 26.3492 147.872 26.2177 145.628C26.0862 143.397 23.9709 141.68 21.4975 141.776C19.0205 141.873 17.0989 143.751 17.2012 145.985Z" fill="#3F3F3F"/>
<path d="M14.4713 128.617C14.4859 128.957 14.5334 129.294 14.6065 129.621C14.8293 130.565 15.2969 131.425 15.9472 132.149C17.0067 133.339 18.5631 134.176 20.324 134.433C20.7916 134.503 21.2775 134.53 21.778 134.51C25.6652 134.353 28.6354 131.462 28.4198 128.067C28.208 124.709 24.9382 122.138 21.1204 122.285C17.6132 122.418 14.8147 124.819 14.4969 127.82C14.4676 128.08 14.4567 128.347 14.4713 128.617Z" fill="#727272"/>
<path d="M14.4713 128.617C14.4859 128.957 14.5334 129.294 14.6065 129.621L19.5276 128.394L19.0417 127.537L14.4969 127.823C14.4676 128.084 14.4567 128.35 14.4713 128.62V128.617Z" fill="#595959"/>
<path d="M15.9431 132.149C17.0026 133.339 18.5589 134.176 20.3198 134.433L22.3694 130.498L20.1701 129.027L15.9395 132.149H15.9431Z" fill="#595959"/>
<path d="M18.0677 128.474C18.148 130.111 19.7299 131.388 21.6041 131.315C23.4783 131.242 24.9177 129.848 24.8227 128.21C24.7277 126.58 23.1458 125.323 21.2863 125.396C19.4304 125.469 17.9873 126.843 18.0677 128.474Z" fill="#3F3F3F"/>
<path style="mix-blend-mode:screen" opacity="0.88" d="M2.04858 118.486V118.546L7.16694 119.687C7.16694 119.687 25.7114 118.863 33.0693 118.676L26.3289 117.603L2.04492 118.483L2.04858 118.486Z" fill="url(#paint4_linear_287_5447)"/>
<path style="mix-blend-mode:multiply" opacity="0.3" d="M2.04883 118.486V118.546L2.57491 152.484L7.72982 157L7.17085 119.69L2.13286 118.483L2.04883 118.486Z" fill="url(#paint5_linear_287_5447)"/>
<path d="M21.8852 142.727C21.4176 143.254 21.783 144.227 22.7 144.901C23.6206 145.575 24.7458 145.695 25.2135 145.161C25.6774 144.631 25.3085 143.657 24.3915 142.987C23.4745 142.317 22.3529 142.2 21.8889 142.727H21.8852Z" fill="#595959"/>
<path d="M21.0224 126.166C20.6132 126.616 20.931 127.443 21.7311 128.014C22.5312 128.587 23.5139 128.687 23.9195 128.234C24.325 127.784 24.0072 126.953 23.2034 126.383C22.4033 125.813 21.4279 125.716 21.0224 126.163V126.166Z" fill="#595959"/>
<path opacity="0.1" d="M293.896 143.177C293.896 146.112 246.767 148.529 188.284 148.529C129.801 148.529 82.5117 145.418 82.5117 142.484C82.5117 139.549 129.801 137.898 188.284 137.898C246.767 137.898 293.896 140.243 293.896 143.177Z" fill="white"/>
<path opacity="0.1" d="M13.4766 18.5998L21.9158 13.1775C21.9158 13.1775 293.894 142.223 293.894 142.934C293.894 142.937 295.809 142.327 295.809 142.33L293.891 142.947C293.792 146.926 248.574 148.533 189.996 148.533C131.418 148.533 82.6056 146.412 82.5069 142.434L82.5289 142.384L13.4766 18.5998Z" fill="white"/>
<path d="M18.7381 11.1898C18.7381 11.1898 13.0096 4.59363 8.56715 6.26435L6.29475 3.9767L8.41005 2.2226C9.20283 1.58899 8.1945 0.801986 7.71226 0.321777L0 6.71455C0.482245 7.19809 1.23118 8.19853 2.00205 7.53491L4.121 5.78081L6.37513 8.04513C3.78489 12.1102 10.8103 17.9261 10.8103 17.9261C10.4084 19.1533 12.2022 20.1704 13.2252 19.25L20.0972 13.4875C21.3028 12.467 20.0278 10.8797 18.7418 11.1898H18.7381Z" fill="#163260"/>
<path d="M117.133 59.1404H127.749V62.5619H119.971L118.232 64.0358L117.798 62.5619H117.133V59.1404Z" fill="#F4F4F4" stroke="#11547B" stroke-width="0.355604" stroke-miterlimit="10"/>
<path d="M125.721 61.3117C125.969 61.3117 126.17 61.1534 126.17 60.9582C126.17 60.763 125.969 60.6047 125.721 60.6047C125.473 60.6047 125.271 60.763 125.271 60.9582C125.271 61.1534 125.473 61.3117 125.721 61.3117Z" fill="#11547B"/>
<path d="M122.279 61.3117C122.528 61.3117 122.729 61.1534 122.729 60.9582C122.729 60.763 122.528 60.6047 122.279 60.6047C122.031 60.6047 121.83 60.763 121.83 60.9582C121.83 61.1534 122.031 61.3117 122.279 61.3117Z" fill="#11547B"/>
<path d="M119.004 61.3117C119.252 61.3117 119.453 61.1534 119.453 60.9582C119.453 60.763 119.252 60.6047 119.004 60.6047C118.756 60.6047 118.555 60.763 118.555 60.9582C118.555 61.1534 118.756 61.3117 119.004 61.3117Z" fill="#11547B"/>
<defs>
<linearGradient id="paint0_linear_287_5447" x1="305.24" y1="108.482" x2="330.924" y2="139.795" gradientUnits="userSpaceOnUse">
<stop stop-color="#195FAB"/>
<stop offset="1"/>
</linearGradient>
<linearGradient id="paint1_linear_287_5447" x1="336.721" y1="117.673" x2="336.794" y2="120.134" gradientUnits="userSpaceOnUse">
<stop stop-color="#195FAB"/>
<stop offset="1"/>
</linearGradient>
<linearGradient id="paint2_linear_287_5447" x1="349.231" y1="115.512" x2="350.522" y2="159.408" gradientUnits="userSpaceOnUse">
<stop stop-color="#3D2994"/>
<stop offset="1" stop-color="#1F1559"/>
</linearGradient>
<linearGradient id="paint3_linear_287_5447" x1="49.2587" y1="108.565" x2="24.222" y2="139.085" gradientUnits="userSpaceOnUse">
<stop stop-color="#195FAB"/>
<stop offset="1"/>
</linearGradient>
<linearGradient id="paint4_linear_287_5447" x1="17.6156" y1="117.149" x2="17.5242" y2="120.164" gradientUnits="userSpaceOnUse">
<stop stop-color="#195FAB"/>
<stop offset="1"/>
</linearGradient>
<linearGradient id="paint5_linear_287_5447" x1="5.66932" y1="115.668" x2="4.38454" y2="159.378" gradientUnits="userSpaceOnUse">
<stop stop-color="#3D2994"/>
<stop offset="1" stop-color="#1F1559"/>
</linearGradient>
</defs>
</svg>
