<svg width="23" height="23" viewBox="0 0 23 23" fill="none" xmlns="http://www.w3.org/2000/svg">
<g clip-path="url(#clip0_358_2112)">
<path d="M8.62415 2.70088C9.98383 4.67291 11.171 6.72765 12.185 8.84438M12.185 8.84438C14.3028 7.92122 16.2867 6.59384 18.0198 4.86119M12.185 8.84438C12.714 9.94835 13.1959 11.0692 13.6305 12.204M15.722 19.396C15.417 17.8939 15.0355 16.4045 14.5774 14.9339M20.6624 12.1053C18.2706 11.5822 15.8735 11.6445 13.6305 12.204M13.6305 12.204C10.2867 13.038 7.28524 14.9769 5.15361 17.728M5.15361 17.728C8.70675 21.2811 14.4666 21.2811 18.0198 17.7279C21.5729 14.1749 21.5729 8.41425 18.0198 4.86119M5.15361 17.728C1.60045 14.175 1.59954 8.41427 5.1527 4.86123C8.70586 1.30816 14.4667 1.30813 18.0198 4.86119M2.54438 10.3201C4.65018 10.5434 6.78584 10.4174 8.85702 9.94125" stroke="white" stroke-width="1.36473" stroke-linecap="round" stroke-linejoin="round"/>
</g>
<defs>
<clipPath id="clip0_358_2112">
<rect width="21.8357" height="21.8357" fill="white" transform="translate(0.667969 0.37677)"/>
</clipPath>
</defs>
</svg>
