<svg width="151" height="36" viewBox="0 0 151 36" fill="none" xmlns="http://www.w3.org/2000/svg">
<rect width="150.401" height="36" rx="18" fill="url(#paint0_linear_287_5310)" fill-opacity="0.1"/>
<rect x="0.5" y="0.5" width="149.401" height="35" rx="17.5" stroke="url(#paint1_linear_287_5310)" stroke-opacity="0.1"/>
<path d="M21.5 7.9375C15.9499 7.9375 11.4375 12.4499 11.4375 18C11.4375 23.5501 15.9499 28.0625 21.5 28.0625C27.0501 28.0625 31.5625 23.5501 31.5625 18C31.5625 12.4499 27.0501 7.9375 21.5 7.9375Z" fill="#FDDD4C"/>
<path d="M17.0927 20.6237C16.8727 20.2905 17.4261 19.7864 17.201 19.3631C17.0712 19.119 16.8591 18.9668 16.6044 18.9349C16.36 18.9042 16.1081 18.9937 15.9476 19.1686C15.6942 19.4444 15.6548 19.8198 15.7038 19.9526C15.7218 20.0012 15.75 20.0145 15.7701 20.0174C15.9082 20.0356 15.9858 19.6813 16.0335 19.6075C16.1653 19.4042 16.4644 19.3427 16.6711 19.4763C17.0628 19.7297 16.7231 20.1392 16.7524 20.4851C16.781 20.8219 16.9908 20.9573 17.1792 20.9716C17.3625 20.9785 17.4906 20.8767 17.523 20.8024C17.6005 20.6249 17.2737 20.8977 17.0927 20.6237Z" fill="black"/>
<path d="M25.2785 17.5657C25.1757 17.5516 25.0634 17.5519 24.9466 17.5657C24.8579 17.4538 24.7784 17.2726 24.7335 17.061C24.6537 16.6847 24.6621 16.4121 24.8847 16.3766C25.1074 16.3413 25.215 16.569 25.2948 16.9453C25.3483 17.1983 25.3381 17.4308 25.2785 17.5657Z" fill="black"/>
<path d="M22.8394 17.7897C22.8482 17.8749 22.8513 17.9612 22.8488 18.0406C23.0643 18.0532 23.2169 18.1555 23.2575 18.2205C23.2783 18.254 23.27 18.2758 23.2633 18.2859C23.241 18.3206 23.1932 18.3153 23.093 18.304C23.0056 18.2942 22.9114 18.2856 22.8135 18.2901C22.7603 18.4534 22.6023 18.4687 22.4914 18.3479C22.4139 18.3715 22.2617 18.4687 22.2162 18.3631C22.2159 18.3107 22.2707 18.2344 22.37 18.1671C22.3022 18.0378 22.2568 17.8995 22.23 17.7562C22.0892 17.7815 21.9626 17.8209 21.8633 17.8518C21.8168 17.8664 21.6324 17.9497 21.6108 17.8558C21.5963 17.791 21.6972 17.6841 21.804 17.6069C21.9231 17.5223 22.0554 17.4621 22.1925 17.4274C22.1896 17.2233 22.2416 17.0808 22.39 17.0573C22.5738 17.028 22.6878 17.1696 22.7667 17.4317C22.9889 17.4935 23.2108 17.6466 23.3088 17.8048C23.3469 17.8662 23.3543 17.9136 23.3296 17.9387C23.268 18.0025 22.9268 17.8174 22.8394 17.7897Z" fill="black"/>
<path d="M24.3008 18.707C24.4418 18.7753 24.5969 18.7484 24.6475 18.6469C24.6981 18.5454 24.6248 18.4078 24.4838 18.3395C24.3428 18.2712 24.1878 18.2981 24.1371 18.3996C24.0865 18.5011 24.1599 18.6387 24.3008 18.707Z" fill="black"/>
<path d="M24.9961 18.2029C24.9987 18.0477 25.0938 17.9237 25.2083 17.9256C25.3226 17.9278 25.4132 18.0549 25.4107 18.2099C25.4081 18.3649 25.313 18.4888 25.1986 18.4869C25.0842 18.485 24.9936 18.3579 24.9961 18.2029Z" fill="black"/>
<path fill-rule="evenodd" clip-rule="evenodd" d="M28.097 20.1046C28.0961 20.1013 28.0993 20.1125 28.097 20.1046C28.3268 20.1046 28.6875 20.3652 28.6875 20.9948C28.6875 21.6213 28.4242 22.331 28.362 22.4885C27.4134 24.7326 25.1492 25.9818 22.4522 25.9027C19.9379 25.8291 17.7936 24.5194 16.8552 22.3844C16.2878 22.3851 15.7028 22.1387 15.2581 21.7497C14.7893 21.3399 14.5004 20.8095 14.444 20.2564C14.4001 19.8257 14.4536 19.425 14.5904 19.0755L14.0634 18.6347C11.6515 16.6246 19.1949 8.34837 21.6074 10.4255C21.6195 10.4359 22.4282 11.219 22.4301 11.2209C23.5934 10.7333 26.7101 9.8051 26.7136 11.9659C26.7149 12.6835 26.2517 13.5203 25.5093 14.2796C26.3672 15.0649 26.141 16.1805 26.2776 17.204L26.5755 17.2856C27.1436 17.4428 27.5476 17.6524 27.7453 17.8573C27.9429 18.062 28.041 18.2603 28.0766 18.4927C28.1098 18.6802 28.1054 19.0114 27.8548 19.3817C27.945 19.6206 28.0274 19.8588 28.097 20.1046ZM16.8126 21.8023C16.8968 21.8041 16.9804 21.7987 17.0625 21.7849C17.9438 21.6365 18.1745 20.6916 18.0294 19.7637C17.8654 18.7159 17.1474 18.3466 16.6601 18.3203C16.5245 18.3134 16.3986 18.3254 16.2948 18.3459C15.425 18.5189 14.9338 19.2495 15.0306 20.1982C15.1181 21.0568 15.9978 21.7807 16.8126 21.8023ZM14.8425 18.6034C15.1344 18.185 15.6114 17.8823 16.1529 17.7783C16.842 15.9523 17.9929 14.2698 19.516 13.112C20.6463 12.1813 21.8653 11.5137 21.8653 11.5137C21.8653 11.5137 21.2088 10.7623 21.0105 10.707C19.7908 10.3819 17.1566 12.175 15.4746 14.5443C14.7941 15.5028 13.8199 17.2005 14.2857 18.0737C14.3431 18.1818 14.6682 18.4598 14.8425 18.6034ZM24.7311 21.3829C24.733 21.4025 24.7209 21.4228 24.7033 21.43C24.7033 21.43 23.7232 21.88 22.1664 21.4047C22.2224 21.8713 22.7883 22.0481 23.1837 22.1122C25.1127 22.4398 26.9161 21.351 27.322 21.0768C27.3917 21.0297 27.3212 21.1507 27.3086 21.1685C26.8116 21.8013 25.4757 22.534 23.7376 22.5337C22.9795 22.5334 22.2219 22.2699 21.9438 21.8649C21.5122 21.2365 21.9223 20.319 22.6416 20.4145C23.8574 20.5501 25.1037 20.4482 26.2292 19.9326C27.2105 19.4829 27.5812 18.9883 27.5255 18.5876C27.439 17.9666 26.5184 17.8695 26.053 17.7185C25.8505 17.6524 25.7505 17.5996 25.7278 17.2236C25.7179 17.0594 25.689 16.4867 25.6785 16.2498C25.6599 15.8353 25.6092 15.2682 25.253 15.0342C25.1601 14.9731 25.057 14.9437 24.9483 14.9381C24.8617 14.9339 24.8103 14.9458 24.7827 14.9522C24.7766 14.9536 24.7715 14.9548 24.7677 14.9554C24.5752 14.9877 24.4574 15.085 24.3184 15.1998C24.3104 15.2064 24.3023 15.2131 24.2941 15.2198C23.8497 15.5854 23.4746 15.6452 23.0571 15.6275C22.9271 15.622 22.7931 15.6091 22.6517 15.5953C22.5217 15.5828 22.3855 15.5695 22.2405 15.5611L22.0633 15.5509C21.3642 15.5155 20.6145 16.1113 20.4899 16.9576C20.3506 17.9022 20.8786 18.4808 21.222 18.8571C21.3069 18.9501 21.3805 19.0307 21.4299 19.1015C21.4616 19.1442 21.4985 19.2043 21.4985 19.2615C21.4985 19.3298 21.4536 19.3839 21.4097 19.43C20.6965 20.1539 20.4685 21.3042 20.7373 22.2627C20.7709 22.3822 20.8135 22.4967 20.8638 22.6061C21.4943 24.0606 23.4505 24.738 25.3613 24.1219C26.7004 23.6901 27.8837 22.6467 28.1246 21.2073C28.1819 20.8323 28.0977 20.6875 27.983 20.6175C27.8616 20.5439 27.7161 20.5695 27.7161 20.5695C27.7161 20.5695 27.6498 20.1214 27.462 19.7141C26.9049 20.1479 26.1879 20.4528 25.6419 20.6074C24.7673 20.8552 23.8224 20.9515 22.9186 20.8347C22.552 20.7874 22.3056 20.7555 22.2001 21.0941C23.4057 21.5299 24.6818 21.3433 24.6818 21.3433C24.7064 21.3408 24.7286 21.3585 24.7311 21.3829ZM21.2528 12.9261C20.5934 13.2591 19.8572 13.852 19.2593 14.5342C19.2382 14.5586 19.2696 14.592 19.2955 14.5734C19.8119 14.2025 20.52 13.8578 21.4475 13.6345C22.4865 13.3843 23.4868 13.4893 24.0977 13.6275C24.1285 13.6345 24.1477 13.5823 24.1205 13.5671C23.7168 13.3435 23.0971 13.1917 22.6576 13.1886C22.6361 13.1882 22.624 13.1636 22.6368 13.1465C22.7127 13.0456 22.8168 12.946 22.912 12.8739C22.9331 12.8574 22.9203 12.8236 22.8934 12.8252C22.3466 12.8583 21.0976 13.4278 21.1022 13.4071C21.1342 13.2553 21.2351 13.0548 21.2873 12.9612C21.2998 12.939 21.2755 12.9147 21.2528 12.9261Z" fill="black"/>
<path d="M38.0387 22.5V13.0455H43.9663V14.2734H39.4652V17.1541H43.657V18.3775H39.4652V21.272H44.0217V22.5H38.0387ZM45.7609 22.5V15.4091H47.0858V16.5632H47.1736C47.3213 16.1723 47.5629 15.8677 47.8983 15.6491C48.2338 15.4276 48.6354 15.3168 49.1032 15.3168C49.5772 15.3168 49.9742 15.4276 50.2943 15.6491C50.6175 15.8707 50.856 16.1754 51.0099 16.5632H51.0837C51.253 16.1847 51.5223 15.883 51.8916 15.6584C52.2609 15.4306 52.701 15.3168 53.2119 15.3168C53.8551 15.3168 54.3799 15.5183 54.7861 15.9215C55.1955 16.3247 55.4001 16.9325 55.4001 17.745V22.5H54.0198V17.8743C54.0198 17.3942 53.889 17.0464 53.6274 16.831C53.3658 16.6155 53.0534 16.5078 52.6903 16.5078C52.2409 16.5078 51.8916 16.6463 51.6423 16.9233C51.393 17.1972 51.2684 17.5496 51.2684 17.9805V22.5H49.8927V17.7866C49.8927 17.4019 49.7726 17.0926 49.5326 16.8587C49.2925 16.6248 48.9801 16.5078 48.5954 16.5078C48.3338 16.5078 48.0922 16.5771 47.8706 16.7156C47.6521 16.851 47.4752 17.0402 47.3398 17.2834C47.2074 17.5265 47.1412 17.8081 47.1412 18.1282V22.5H45.7609ZM59.3137 22.657C58.8644 22.657 58.4582 22.5739 58.095 22.4077C57.7318 22.2384 57.4441 21.9937 57.2317 21.6737C57.0224 21.3536 56.9178 20.9612 56.9178 20.4964C56.9178 20.0964 56.9947 19.767 57.1486 19.5085C57.3025 19.25 57.5102 19.0453 57.7718 18.8945C58.0334 18.7437 58.3258 18.6299 58.649 18.5529C58.9721 18.476 59.3014 18.4175 59.6369 18.3775C60.0616 18.3282 60.4063 18.2882 60.671 18.2575C60.9357 18.2236 61.128 18.1697 61.248 18.0959C61.3681 18.022 61.4281 17.902 61.4281 17.7358V17.7035C61.4281 17.3003 61.3142 16.9879 61.0865 16.7663C60.8618 16.5447 60.5263 16.4339 60.0801 16.4339C59.6154 16.4339 59.2491 16.537 58.9814 16.7433C58.7167 16.9464 58.5336 17.1726 58.432 17.4219L57.1348 17.1264C57.2886 16.6955 57.5133 16.3478 57.8088 16.0831C58.1073 15.8153 58.4505 15.6214 58.8382 15.5014C59.226 15.3783 59.6338 15.3168 60.0616 15.3168C60.3448 15.3168 60.6448 15.3506 60.9618 15.4183C61.2819 15.483 61.5804 15.603 61.8574 15.7784C62.1375 15.9538 62.3668 16.2047 62.5453 16.5309C62.7238 16.854 62.813 17.2741 62.813 17.7912V22.5H61.465V21.5305H61.4096C61.3204 21.709 61.1865 21.8845 61.008 22.0568C60.8295 22.2292 60.6002 22.3723 60.3201 22.4862C60.0401 22.6 59.7046 22.657 59.3137 22.657ZM59.6138 21.549C59.9954 21.549 60.3217 21.4736 60.5925 21.3228C60.8664 21.172 61.0742 20.975 61.2157 20.7319C61.3604 20.4857 61.4327 20.2225 61.4327 19.9425V19.0284C61.3835 19.0777 61.2881 19.1238 61.1465 19.1669C61.008 19.2069 60.8495 19.2423 60.671 19.2731C60.4925 19.3008 60.3186 19.3269 60.1493 19.3516C59.9801 19.3731 59.8385 19.3916 59.7246 19.407C59.4569 19.4408 59.2122 19.4978 58.9906 19.5778C58.7721 19.6578 58.5967 19.7732 58.4643 19.924C58.335 20.0717 58.2704 20.2687 58.2704 20.5149C58.2704 20.8565 58.3966 21.1151 58.649 21.2905C58.9013 21.4628 59.223 21.549 59.6138 21.549ZM64.6515 22.5V15.4091H66.0319V22.5H64.6515ZM65.3486 14.315C65.1086 14.315 64.9024 14.235 64.73 14.0749C64.5608 13.9118 64.4761 13.7179 64.4761 13.4933C64.4761 13.2655 64.5608 13.0716 64.73 12.9116C64.9024 12.7485 65.1086 12.6669 65.3486 12.6669C65.5887 12.6669 65.7934 12.7485 65.9626 12.9116C66.135 13.0716 66.2211 13.2655 66.2211 13.4933C66.2211 13.7179 66.135 13.9118 65.9626 14.0749C65.7934 14.235 65.5887 14.315 65.3486 14.315ZM69.2692 13.0455V22.5H67.8888V13.0455H69.2692ZM74.6774 13.0455H76.4086L79.4185 20.3949H79.5293L82.5392 13.0455H84.2704V22.5H82.9132V15.6584H82.8255L80.0371 22.4862H78.9107L76.1223 15.6538H76.0346V22.5H74.6774V13.0455ZM88.2971 22.657C87.8478 22.657 87.4416 22.5739 87.0784 22.4077C86.7152 22.2384 86.4275 21.9937 86.2151 21.6737C86.0058 21.3536 85.9012 20.9612 85.9012 20.4964C85.9012 20.0964 85.9781 19.767 86.132 19.5085C86.2859 19.25 86.4936 19.0453 86.7552 18.8945C87.0168 18.7437 87.3092 18.6299 87.6324 18.5529C87.9555 18.476 88.2848 18.4175 88.6203 18.3775C89.045 18.3282 89.3897 18.2882 89.6544 18.2575C89.9191 18.2236 90.1114 18.1697 90.2314 18.0959C90.3515 18.022 90.4115 17.902 90.4115 17.7358V17.7035C90.4115 17.3003 90.2976 16.9879 90.0699 16.7663C89.8452 16.5447 89.5097 16.4339 89.0635 16.4339C88.5988 16.4339 88.2325 16.537 87.9648 16.7433C87.7001 16.9464 87.517 17.1726 87.4154 17.4219L86.1182 17.1264C86.272 16.6955 86.4967 16.3478 86.7922 16.0831C87.0907 15.8153 87.4339 15.6214 87.8216 15.5014C88.2094 15.3783 88.6172 15.3168 89.045 15.3168C89.3282 15.3168 89.6282 15.3506 89.9452 15.4183C90.2653 15.483 90.5638 15.603 90.8408 15.7784C91.1209 15.9538 91.3502 16.2047 91.5287 16.5309C91.7072 16.854 91.7964 17.2741 91.7964 17.7912V22.5H90.4484V21.5305H90.393C90.3038 21.709 90.1699 21.8845 89.9914 22.0568C89.8129 22.2292 89.5836 22.3723 89.3035 22.4862C89.0235 22.6 88.688 22.657 88.2971 22.657ZM88.5972 21.549C88.9788 21.549 89.3051 21.4736 89.5759 21.3228C89.8498 21.172 90.0576 20.975 90.1991 20.7319C90.3438 20.4857 90.4161 20.2225 90.4161 19.9425V19.0284C90.3669 19.0777 90.2715 19.1238 90.1299 19.1669C89.9914 19.2069 89.8329 19.2423 89.6544 19.2731C89.4759 19.3008 89.302 19.3269 89.1327 19.3516C88.9635 19.3731 88.8219 19.3916 88.708 19.407C88.4403 19.4408 88.1956 19.4978 87.974 19.5778C87.7555 19.6578 87.58 19.7732 87.4477 19.924C87.3184 20.0717 87.2538 20.2687 87.2538 20.5149C87.2538 20.8565 87.38 21.1151 87.6324 21.2905C87.8847 21.4628 88.2064 21.549 88.5972 21.549ZM93.6349 22.5V15.4091H94.9691V16.5355H95.043C95.1722 16.1539 95.4 15.8538 95.7262 15.6353C96.0555 15.4137 96.4279 15.3029 96.8434 15.3029C96.9296 15.3029 97.0311 15.306 97.1481 15.3121C97.2681 15.3183 97.362 15.326 97.4297 15.3352V16.6555C97.3743 16.6402 97.2758 16.6232 97.1342 16.6048C96.9927 16.5832 96.8511 16.5724 96.7095 16.5724C96.3833 16.5724 96.0924 16.6417 95.837 16.7802C95.5846 16.9156 95.3846 17.1049 95.2369 17.348C95.0891 17.5881 95.0153 17.862 95.0153 18.1697V22.5H93.6349ZM99.8937 20.0948L99.8845 18.4098H100.125L102.95 15.4091H104.603L101.38 18.8253H101.163L99.8937 20.0948ZM98.6242 22.5V13.0455H100.005V22.5H98.6242ZM103.102 22.5L100.563 19.13L101.514 18.1651L104.796 22.5H103.102ZM108.625 22.6431C107.926 22.6431 107.324 22.4938 106.82 22.1953C106.318 21.8937 105.93 21.4705 105.656 20.9258C105.385 20.378 105.25 19.7363 105.25 19.0007C105.25 18.2744 105.385 17.6342 105.656 17.0803C105.93 16.5263 106.312 16.0939 106.801 15.783C107.294 15.4722 107.869 15.3168 108.528 15.3168C108.928 15.3168 109.316 15.3829 109.691 15.5153C110.067 15.6476 110.404 15.8554 110.702 16.1385C111.001 16.4216 111.236 16.7894 111.408 17.2418C111.581 17.6912 111.667 18.2375 111.667 18.8807V19.37H106.03V18.3359H110.314C110.314 17.9728 110.24 17.6512 110.093 17.3711C109.945 17.0879 109.737 16.8648 109.469 16.7017C109.205 16.5386 108.894 16.457 108.537 16.457C108.149 16.457 107.811 16.5524 107.521 16.7433C107.235 16.931 107.013 17.1772 106.857 17.4819C106.703 17.7835 106.626 18.1113 106.626 18.4652V19.2731C106.626 19.747 106.709 20.1502 106.875 20.4826C107.044 20.815 107.28 21.0689 107.581 21.2443C107.883 21.4167 108.235 21.5028 108.638 21.5028C108.9 21.5028 109.139 21.4659 109.354 21.392C109.569 21.3151 109.756 21.2012 109.913 21.0504C110.07 20.8996 110.19 20.7134 110.273 20.4918L111.579 20.7273C111.475 21.112 111.287 21.449 111.016 21.7383C110.748 22.0245 110.411 22.2476 110.005 22.4077C109.602 22.5646 109.142 22.6431 108.625 22.6431ZM116.508 15.4091V16.517H112.635V15.4091H116.508ZM113.674 13.7102H115.054V20.418C115.054 20.6857 115.094 20.8873 115.174 21.0227C115.254 21.1551 115.357 21.2459 115.484 21.2951C115.613 21.3413 115.753 21.3643 115.904 21.3643C116.014 21.3643 116.111 21.3567 116.195 21.3413C116.278 21.3259 116.342 21.3136 116.388 21.3043L116.638 22.4446C116.558 22.4754 116.444 22.5062 116.296 22.5369C116.148 22.5708 115.964 22.5893 115.742 22.5923C115.379 22.5985 115.04 22.5339 114.726 22.3984C114.413 22.263 114.159 22.0537 113.965 21.7706C113.771 21.4875 113.674 21.132 113.674 20.7042V13.7102ZM118.035 22.5V15.4091H119.416V22.5H118.035ZM118.732 14.315C118.492 14.315 118.286 14.235 118.114 14.0749C117.945 13.9118 117.86 13.7179 117.86 13.4933C117.86 13.2655 117.945 13.0716 118.114 12.9116C118.286 12.7485 118.492 12.6669 118.732 12.6669C118.972 12.6669 119.177 12.7485 119.346 12.9116C119.519 13.0716 119.605 13.2655 119.605 13.4933C119.605 13.7179 119.519 13.9118 119.346 14.0749C119.177 14.235 118.972 14.315 118.732 14.315ZM122.653 18.2898V22.5H121.273V15.4091H122.598V16.5632H122.685C122.848 16.1877 123.104 15.8861 123.452 15.6584C123.802 15.4306 124.244 15.3168 124.777 15.3168C125.26 15.3168 125.683 15.4183 126.046 15.6214C126.409 15.8215 126.691 16.12 126.891 16.517C127.091 16.9141 127.191 17.4049 127.191 17.9897V22.5H125.811V18.1559C125.811 17.6419 125.677 17.2403 125.409 16.951C125.141 16.6586 124.773 16.5124 124.306 16.5124C123.986 16.5124 123.701 16.5817 123.452 16.7202C123.205 16.8587 123.01 17.0618 122.865 17.3295C122.724 17.5942 122.653 17.9143 122.653 18.2898ZM132.015 25.3068C131.452 25.3068 130.967 25.233 130.561 25.0852C130.158 24.9375 129.829 24.7421 129.573 24.4989C129.318 24.2558 129.127 23.9896 129.001 23.7003L130.187 23.2109C130.27 23.3464 130.381 23.4895 130.519 23.6403C130.661 23.7942 130.852 23.925 131.092 24.0327C131.335 24.1404 131.647 24.1942 132.029 24.1942C132.552 24.1942 132.985 24.0665 133.326 23.8111C133.668 23.5587 133.839 23.1555 133.839 22.6016V21.2074H133.751C133.668 21.3582 133.548 21.5259 133.391 21.7106C133.237 21.8952 133.025 22.0553 132.754 22.1907C132.483 22.3261 132.131 22.3938 131.697 22.3938C131.137 22.3938 130.632 22.263 130.182 22.0014C129.736 21.7367 129.382 21.3474 129.121 20.8335C128.862 20.3164 128.733 19.6809 128.733 18.9268C128.733 18.1728 128.861 17.5265 129.116 16.9879C129.375 16.4493 129.728 16.0369 130.178 15.7507C130.627 15.4614 131.137 15.3168 131.706 15.3168C132.146 15.3168 132.501 15.3906 132.772 15.5384C133.043 15.683 133.254 15.8523 133.405 16.0462C133.559 16.2401 133.677 16.4109 133.76 16.5586H133.862V15.4091H135.214V22.657C135.214 23.2663 135.073 23.7665 134.79 24.1573C134.507 24.5482 134.123 24.8375 133.64 25.0252C133.16 25.2129 132.618 25.3068 132.015 25.3068ZM132.001 21.2489C132.398 21.2489 132.734 21.1566 133.008 20.9719C133.285 20.7842 133.494 20.5165 133.636 20.1687C133.78 19.8178 133.853 19.3977 133.853 18.9084C133.853 18.4313 133.782 18.0112 133.64 17.6481C133.499 17.2849 133.291 17.0018 133.017 16.7987C132.743 16.5924 132.405 16.4893 132.001 16.4893C131.586 16.4893 131.24 16.5971 130.963 16.8125C130.686 17.0249 130.476 17.3142 130.335 17.6804C130.196 18.0466 130.127 18.456 130.127 18.9084C130.127 19.3731 130.198 19.7809 130.339 20.1317C130.481 20.4826 130.69 20.7565 130.967 20.9535C131.247 21.1504 131.592 21.2489 132.001 21.2489Z" fill="#E5E5E7"/>
<defs>
<linearGradient id="paint0_linear_287_5310" x1="75.2006" y1="0" x2="75.2006" y2="36" gradientUnits="userSpaceOnUse">
<stop stop-color="white" stop-opacity="0.5"/>
<stop offset="1" stop-color="white" stop-opacity="0.1"/>
</linearGradient>
<linearGradient id="paint1_linear_287_5310" x1="75.2006" y1="0" x2="75.2006" y2="36" gradientUnits="userSpaceOnUse">
<stop stop-color="white"/>
<stop offset="1" stop-color="white" stop-opacity="0.4"/>
</linearGradient>
</defs>
</svg>
