<svg width="15" height="15" viewBox="0 0 15 15" fill="none" xmlns="http://www.w3.org/2000/svg">
<path d="M12.718 1.4958L3.47322 0.524133C2.37913 0.409139 1.39897 1.20286 1.28397 2.29695L0.312303 11.5418C0.197309 12.6359 0.991027 13.616 2.08512 13.731L11.3299 14.7027C12.424 14.8177 13.4042 14.024 13.5192 12.9299L14.4909 3.68505C14.6058 2.59096 13.8121 1.6108 12.718 1.4958Z" fill="#1877F2"/>
<path d="M9.77122 9.79216L10.2659 7.91426L8.43448 7.72177L8.56461 6.48363C8.61938 5.96257 8.92843 5.47868 9.7487 5.56489L10.5819 5.65246L10.7527 4.0274C10.7527 4.0274 10.0104 3.81899 9.28819 3.74308C7.7792 3.58448 6.69787 4.39404 6.52381 6.05006L6.37091 7.50488L4.69425 7.32866L4.49363 9.23747L6.17028 9.41369L5.67686 14.1083L7.74043 14.3252L8.23386 9.63058L9.77122 9.79216Z" fill="white"/>
</svg>
