<svg width="217" height="217" viewBox="0 0 217 217" fill="none" xmlns="http://www.w3.org/2000/svg">
<path fill-rule="evenodd" clip-rule="evenodd" d="M10.8182 128.467C9.97497 128.75 9.05449 128.688 8.25624 128.296C7.45799 127.905 6.84626 127.214 6.55359 126.374C6.26091 125.535 6.31087 124.613 6.69263 123.81C7.07439 123.007 7.7572 122.387 8.59314 122.084C31.7342 114.025 55.5732 103.67 79.1648 90.2233C100.652 77.9764 121.94 63.1555 142.314 45.159L134.817 45.5658C133.93 45.5958 133.067 45.2764 132.414 44.6763C131.761 44.0762 131.37 43.2436 131.325 42.3577C131.279 41.4719 131.584 40.6037 132.173 39.9404C132.762 39.277 133.588 38.8715 134.473 38.8113L151.477 37.8882C151.975 37.8628 152.473 37.9479 152.935 38.1375C153.396 38.3271 153.81 38.6164 154.146 38.9848C154.483 39.3531 154.734 39.7913 154.881 40.268C155.028 40.7447 155.068 41.2481 154.998 41.7421L155 41.7425L152.547 58.5943C152.413 59.4763 151.936 60.2697 151.22 60.802C150.504 61.3342 149.607 61.5623 148.724 61.4367C147.84 61.311 147.043 60.8417 146.504 60.1308C145.965 59.42 145.728 58.5251 145.845 57.6407L146.943 50.1004C126.168 68.4699 104.443 83.5997 82.5033 96.1044C58.5366 109.764 34.3216 120.282 10.8182 128.467ZM16.1818 145.412H28.9678C31.3023 145.412 33.2061 147.316 33.2061 149.65V181.965C33.2061 184.3 31.3023 186.203 28.9678 186.203H16.1818C13.8473 186.203 11.9435 184.3 11.9435 181.965V149.65C11.9439 147.316 13.8478 145.412 16.1818 145.412Z" fill="#4899E3"/>
<path fill-rule="evenodd" clip-rule="evenodd" d="M22.5449 145.411H28.968C31.3025 145.411 33.2063 147.315 33.2063 149.65V181.964C33.2063 184.299 31.3025 186.203 28.968 186.203H22.5449C24.8794 186.203 26.7832 184.299 26.7832 181.964V149.65C26.7832 147.315 24.8794 145.411 22.5449 145.411Z" fill="black" fill-opacity="0.3"/>
<path fill-rule="evenodd" clip-rule="evenodd" d="M68.4505 124.04H55.6641C53.3296 124.04 51.4258 125.943 51.4258 128.278V181.965C51.4258 184.299 53.3296 186.203 55.6641 186.203H68.4505C70.785 186.203 72.6888 184.299 72.6888 181.965V128.278C72.6888 125.943 70.7846 124.04 68.4505 124.04Z" fill="url(#paint0_linear_287_5595)"/>
<path fill-rule="evenodd" clip-rule="evenodd" d="M29.1759 145.373H16.1776C13.8045 145.373 11.8691 146.645 11.8691 148.205V184.076C11.8691 185.636 13.8045 186.908 16.1776 186.908H29.1759C31.549 186.908 33.4844 185.636 33.4844 184.076V148.205C33.4844 146.645 31.5486 145.373 29.1759 145.373Z" fill="url(#paint1_linear_287_5595)"/>
<path fill-rule="evenodd" clip-rule="evenodd" d="M68.4505 124.04H62.0273C64.3618 124.04 66.2656 125.943 66.2656 128.278V181.965C66.2656 184.299 64.3618 186.203 62.0273 186.203H68.4505C70.7849 186.203 72.6887 184.299 72.6887 181.965V128.278C72.6887 125.943 70.7845 124.04 68.4505 124.04Z" fill="black" fill-opacity="0.5"/>
<path fill-rule="evenodd" clip-rule="evenodd" d="M29.1037 145.373H22.4648C24.8777 145.373 26.8455 146.645 26.8455 148.205V184.076C26.8455 185.636 24.8777 186.908 22.4648 186.908H29.1037C31.5166 186.908 33.4844 185.636 33.4844 184.076V148.205C33.4844 146.645 31.5161 145.373 29.1037 145.373Z" fill="black" fill-opacity="0.5"/>
<path fill-rule="evenodd" clip-rule="evenodd" d="M107.931 101.724H95.1445C92.8101 101.724 90.9062 103.627 90.9062 105.961V181.965C90.9062 184.3 92.8101 186.204 95.1445 186.204H107.931C110.265 186.204 112.169 184.3 112.169 181.965V105.961C112.169 103.627 110.265 101.724 107.931 101.724Z" fill="url(#paint2_linear_287_5595)"/>
<path fill-rule="evenodd" clip-rule="evenodd" d="M107.931 101.723H101.508C103.842 101.723 105.746 103.627 105.746 105.961V181.965C105.746 184.3 103.842 186.203 101.508 186.203H107.931C110.265 186.203 112.169 184.3 112.169 181.965V105.961C112.169 103.627 110.265 101.723 107.931 101.723Z" fill="black" fill-opacity="0.5"/>
<path fill-rule="evenodd" clip-rule="evenodd" d="M134.625 81.6477H147.411C149.746 81.6477 151.65 83.5515 151.65 85.886V181.965C151.65 184.299 149.746 186.203 147.411 186.203H134.625C132.291 186.203 130.387 184.299 130.387 181.965V85.886C130.387 83.5515 132.291 81.6477 134.625 81.6477Z" fill="url(#paint3_linear_287_5595)"/>
<path fill-rule="evenodd" clip-rule="evenodd" d="M140.988 81.6477H147.411C149.746 81.6477 151.65 83.5515 151.65 85.886V181.965C151.65 184.299 149.746 186.203 147.411 186.203H140.988C143.323 186.203 145.227 184.299 145.227 181.965V85.886C145.227 83.5515 143.323 81.6477 140.988 81.6477Z" fill="black" fill-opacity="0.5"/>
<path fill-rule="evenodd" clip-rule="evenodd" d="M186.892 61.5723H174.105C171.771 61.5723 169.867 63.4761 169.867 65.8105V184.919C169.867 187.253 171.771 189.157 174.105 189.157H186.892C189.226 189.157 191.13 187.253 191.13 184.919V65.8105C191.13 63.4761 189.226 61.5723 186.892 61.5723Z" fill="url(#paint4_linear_287_5595)"/>
<path fill-rule="evenodd" clip-rule="evenodd" d="M186.89 61.5723H180.467C182.801 61.5723 184.705 63.4761 184.705 65.8105V184.919C184.705 187.253 182.801 189.157 180.467 189.157H186.89C189.224 189.157 191.128 187.253 191.128 184.919V65.8105C191.128 63.4761 189.224 61.5723 186.89 61.5723Z" fill="black" fill-opacity="0.5"/>
<path fill-rule="evenodd" clip-rule="evenodd" d="M181.381 7.38641L185.914 19.3261C185.977 19.4992 186.091 19.6495 186.24 19.7578C186.389 19.8662 186.567 19.9276 186.751 19.9343L199.507 20.556C200.375 20.5984 200.73 21.6915 200.053 22.2352L190.098 30.2358C189.953 30.3494 189.845 30.5037 189.788 30.6789C189.731 30.8542 189.728 31.0424 189.779 31.2195L193.129 43.5432C193.357 44.3815 192.427 45.0567 191.701 44.5811L181.015 37.5863C180.863 37.4835 180.682 37.4286 180.498 37.4286C180.314 37.4286 180.134 37.4835 179.981 37.5863L169.296 44.5811C168.569 45.0567 167.639 44.3815 167.868 43.5432L171.218 31.2191C171.268 31.042 171.265 30.8538 171.208 30.6786C171.151 30.5034 171.043 30.3491 170.898 30.2354L160.944 22.2344C160.267 21.6902 160.622 20.5976 161.49 20.5552L174.246 19.9334C174.43 19.9267 174.608 19.8652 174.757 19.7569C174.906 19.6486 175.019 19.4983 175.083 19.3252L179.616 7.38556C179.921 6.57902 181.074 6.57902 181.381 7.38641Z" fill="white"/>
<path fill-rule="evenodd" clip-rule="evenodd" d="M184.912 140.111C188.177 140.889 191.298 142.182 194.156 143.943L200.162 141.275L207.242 148.354L204.575 154.359C206.336 157.218 207.63 160.339 208.408 163.605L214.536 165.964V175.976L208.406 178.335C207.628 181.6 206.335 184.721 204.574 187.579L207.242 193.585L200.163 200.665L194.158 197.998C191.3 199.759 188.178 201.053 184.912 201.831L182.553 207.959H172.542L170.182 201.829C166.917 201.051 163.797 199.758 160.939 197.997L154.932 200.665L147.853 193.586L150.52 187.581C148.758 184.723 147.464 181.601 146.687 178.335L140.559 175.976V165.965L146.687 163.606C147.465 160.34 148.759 157.219 150.52 154.361L147.853 148.355L154.932 141.276L160.938 143.944C163.796 142.183 166.917 140.889 170.182 140.111L172.541 133.982H182.553L184.912 140.111Z" fill="url(#paint5_linear_287_5595)"/>
<path fill-rule="evenodd" clip-rule="evenodd" d="M160.94 197.997L154.933 200.665L154.008 199.74L159.64 197.238C160.067 197.502 160.5 197.755 160.94 197.997ZM184.913 140.111C188.178 140.888 191.299 142.182 194.157 143.943L192.449 144.701C189.591 142.941 185.172 140.888 181.906 140.111L179.546 133.981H182.554L184.913 140.111ZM194.159 197.998C191.3 199.759 188.179 201.053 184.913 201.83L182.554 207.959H179.547L181.905 201.83C185.172 201.053 189.592 199 192.451 197.239L194.159 197.998ZM154.008 142.2L154.932 141.275L160.939 143.943C160.5 144.185 160.067 144.438 159.639 144.701L154.008 142.2ZM198.081 142.2L200.163 141.275L207.243 148.354L204.576 154.359C206.337 157.218 207.631 160.339 208.409 163.605L214.537 165.964V175.975L208.407 178.335C207.63 181.6 206.336 184.721 204.575 187.578L207.243 193.585L200.164 200.665L198.081 199.74L204.236 193.585L201.568 187.578C203.329 184.721 204.623 181.6 205.4 178.335L211.53 175.975V165.964L205.402 163.605C204.624 160.339 203.33 157.218 201.569 154.359L204.236 148.354L198.081 142.2Z" fill="#163560"/>
<path d="M189.864 183.315C196.682 176.497 196.682 165.442 189.864 158.624C183.046 151.806 171.992 151.806 165.174 158.624C158.355 165.442 158.355 176.497 165.174 183.315C171.992 190.133 183.046 190.133 189.864 183.315Z" fill="#ECEFF1"/>
<path fill-rule="evenodd" clip-rule="evenodd" d="M177.549 153.51C167.906 153.51 160.09 161.326 160.09 170.97C160.09 180.613 167.906 188.429 177.549 188.429C178.016 188.429 178.48 188.41 178.937 188.374C169.944 187.666 162.867 180.145 162.867 170.97C162.867 161.794 169.944 154.273 178.937 153.565C178.476 153.529 178.012 153.51 177.549 153.51Z" fill="#D1D1D6"/>
<defs>
<linearGradient id="paint0_linear_287_5595" x1="62.0573" y1="124.04" x2="62.0573" y2="186.203" gradientUnits="userSpaceOnUse">
<stop stop-color="#202125"/>
<stop offset="1" stop-color="#0B0D12"/>
</linearGradient>
<linearGradient id="paint1_linear_287_5595" x1="22.6768" y1="145.373" x2="22.6768" y2="186.908" gradientUnits="userSpaceOnUse">
<stop stop-color="#202125"/>
<stop offset="1" stop-color="#0B0D12"/>
</linearGradient>
<linearGradient id="paint2_linear_287_5595" x1="101.538" y1="101.724" x2="101.538" y2="186.204" gradientUnits="userSpaceOnUse">
<stop stop-color="#202125"/>
<stop offset="1" stop-color="#0B0D12"/>
</linearGradient>
<linearGradient id="paint3_linear_287_5595" x1="141.018" y1="81.6477" x2="141.018" y2="186.203" gradientUnits="userSpaceOnUse">
<stop stop-color="#202125"/>
<stop offset="1" stop-color="#0B0D12"/>
</linearGradient>
<linearGradient id="paint4_linear_287_5595" x1="180.498" y1="61.5723" x2="180.498" y2="189.157" gradientUnits="userSpaceOnUse">
<stop stop-color="#202125"/>
<stop offset="1" stop-color="#0B0D12"/>
</linearGradient>
<linearGradient id="paint5_linear_287_5595" x1="152.297" y1="279.834" x2="236.12" y2="266.145" gradientUnits="userSpaceOnUse">
<stop stop-color="#4899E3"/>
<stop offset="0.3128" stop-color="#8EC6FA"/>
</linearGradient>
</defs>
</svg>
