<svg width="85" height="23" viewBox="0 0 85 23" fill="none" xmlns="http://www.w3.org/2000/svg">
<path d="M6.09604 7.92548C4.0881 7.92548 3.10301 9.69877 3.10301 12.0666V18.0004H0.271484V5.47887H3.05319V8.72736H3.1014C3.69599 6.72989 4.87954 5.11569 6.70509 5.11569C7.98988 5.11569 8.53144 5.56564 8.53144 5.56564L7.25387 8.14483C7.25387 8.14483 6.8465 7.92548 6.09604 7.92548ZM40.3218 9.64494V17.998H37.5642V10.6622C37.5642 8.55542 36.9053 7.44018 35.2212 7.44018C33.4776 7.44018 32.6339 8.8511 32.6339 11.5572V17.998H29.9004V10.6614C29.9004 8.63657 29.2496 7.43937 27.5824 7.43937C25.6797 7.43937 24.9469 9.11062 24.9469 11.5564V17.998H22.1652V5.47887H24.9469V8.31437H24.9718C25.4057 6.35145 26.5876 5.1406 28.5835 5.1406C30.5625 5.1406 31.8521 6.20682 32.3415 8.09662C32.8075 6.27753 34.0473 5.13979 35.9532 5.13979C38.6128 5.13979 40.3226 6.81105 40.3226 9.64414L40.3218 9.64494ZM14.0957 5.11569C11.5365 5.11569 9.86122 6.32092 9.0979 8.49515L11.4538 9.35408C11.8836 8.04199 12.7795 7.29474 14.1455 7.29474C15.6834 7.29474 16.5865 7.97369 16.5865 9.0142C16.5865 10.0796 15.8674 10.3022 14.2435 10.5649C12.4372 10.8566 8.14094 10.9522 8.14094 14.5848C8.14094 16.7124 9.91667 18.3138 12.5835 18.3138C14.5882 18.3138 15.9533 17.4926 16.5849 15.9644H16.6098V17.998H19.3682V10.2974C19.3666 6.92836 17.6752 5.11569 14.0957 5.11569ZM16.6588 12.106C16.6588 14.731 15.362 16.4175 13.2905 16.4175C11.8258 16.4175 10.9476 15.5931 10.9476 14.4056C10.9476 13.292 11.8507 12.5182 13.583 12.2C15.3555 11.8738 16.2482 11.4705 16.658 10.5047V12.1052L16.6588 12.106ZM50.1333 5.13979C48.0233 5.13979 46.6301 6.30244 46.0331 8.04841V5.47887H43.1035V22.8189H46.0082V15.43H46.0323C46.6791 17.3214 48.0249 18.362 50.1333 18.362C53.4759 18.362 55.8687 15.6012 55.8687 11.7011C55.8671 7.82826 53.4759 5.13979 50.1333 5.13979ZM49.4126 16.0375C47.0969 16.0375 45.8129 14.3542 45.8129 11.7388C45.8129 9.12348 47.2496 7.44018 49.4126 7.44018C51.574 7.44018 53.0122 9.20543 53.0122 11.7388C53.0122 14.2738 51.5756 16.0375 49.4126 16.0375ZM84.6387 17.9417V18.0205L73.303 18.0245V17.9425C74.9381 17.0169 76.0662 16.0744 77.081 15.0902H81.7357L84.6387 17.9417ZM81.8297 3.14635L78.9564 0.321289H78.8736C78.8736 0.321289 78.9218 5.58573 74.0976 10.3729C69.3771 15.0588 63.8257 15.0701 63.8257 15.0701V15.152L66.7528 18.0261C66.7528 18.0261 72.2231 18.0799 77.0553 13.3289C81.8706 8.59478 81.8297 3.14635 81.8297 3.14635Z" fill="#F7F8F8"/>
</svg>
