<svg width="73" height="23" viewBox="0 0 73 23" fill="none" xmlns="http://www.w3.org/2000/svg">
<path d="M71.5294 14.2373C71.4282 14.2366 71.328 14.2567 71.235 14.2964C71.142 14.336 71.0581 14.3944 70.9886 14.4679C70.2582 15.2215 69.3029 15.6811 68.19 15.6811C67.5655 15.6822 66.9501 15.5316 66.3966 15.2424C64.9391 14.4815 63.9966 12.8199 64.2585 10.9687C64.5446 8.93667 66.3211 7.42451 68.3122 7.48317C69.3744 7.51531 70.2863 7.96847 70.991 8.69563C71.0604 8.76899 71.1441 8.82726 71.237 8.8668C71.3299 8.90634 71.43 8.92629 71.531 8.92542C71.9761 8.92542 72.3578 8.53171 72.3578 8.10587C72.3578 7.90741 72.2951 7.68002 72.1344 7.5153C71.2268 6.56667 70.0056 5.97992 68.6978 5.86414C65.5538 5.58453 62.7238 8.14604 62.6258 11.3969C62.5278 14.6639 65.0443 17.3219 68.19 17.3219C69.7488 17.3219 71.1164 16.6975 72.1344 15.6498C72.2935 15.4859 72.3578 15.2561 72.3578 15.06C72.3562 14.6318 71.9737 14.2373 71.5294 14.2373ZM57.5212 12.1908C58.5521 11.6002 59.2367 10.5035 59.2037 9.16165C59.1595 7.29354 57.6007 5.83923 55.7888 5.83923H50.7758C50.3371 5.83923 49.9812 6.20643 49.9812 6.65879V16.2066C49.9812 16.6236 50.2688 17.0061 50.669 17.0519C51.1639 17.1081 51.5713 16.7658 51.5713 16.2693V14.1875C51.5713 14.0268 51.6766 13.8886 51.826 13.85L54.6431 13.1309L55.8057 12.8255C55.8827 12.8059 55.9642 12.8143 56.0355 12.8494C56.1068 12.8844 56.1632 12.9438 56.1946 13.0168L57.7687 16.5843C57.8972 16.8775 58.176 17.0503 58.4693 17.0503C58.6568 17.0488 58.8373 16.9791 58.9771 16.8542C59.2423 16.6228 59.2977 16.2211 59.1539 15.8957L57.5212 12.1916V12.1908ZM51.5713 11.8533V7.76117C51.5713 7.56834 51.7223 7.41487 51.9072 7.41487H55.7374C56.8495 7.41487 57.6136 8.20228 57.6136 9.25324C57.6136 10.3034 56.9877 11.0619 55.7093 11.3439L51.9787 12.1924C51.9288 12.2028 51.8772 12.2018 51.8277 12.1895C51.7783 12.1772 51.7322 12.1539 51.6931 12.1213C51.6539 12.0887 51.6226 12.0476 51.6015 12.0012C51.5804 11.9548 51.5701 11.9043 51.5713 11.8533ZM41.7365 6.46354C41.5678 6.09795 41.2102 5.87941 40.7787 5.87941C40.3472 5.87941 39.9889 6.09796 39.8209 6.46193L35.4322 15.8965C35.3752 16.013 35.3439 16.1576 35.3439 16.2886C35.3439 16.7361 35.6829 17.0728 36.1353 17.0728C36.2873 17.0773 36.4371 17.036 36.5653 16.9544C36.6935 16.8727 36.7943 16.7544 36.8544 16.6148L37.6716 14.8696C38.0383 15.0034 38.4154 15.1071 38.7989 15.1798C39.4353 15.3011 40.0765 15.3429 40.7088 15.3356C41.3436 15.33 41.9687 15.2521 42.585 15.1468C42.8927 15.0938 43.1956 15.0158 43.5018 14.9516L43.8762 14.8447L44.699 16.6027C44.7585 16.7451 44.8596 16.8663 44.989 16.9505C45.1184 17.0346 45.2702 17.0778 45.4245 17.0744C45.9372 17.0744 46.2136 16.671 46.2136 16.291C46.2136 16.1576 46.1806 16.0146 46.1292 15.9045L41.7365 6.46354ZM42.3447 13.7271C41.7935 13.8211 41.2359 13.8918 40.6847 13.8958C40.1327 13.9006 39.5839 13.8669 39.0536 13.764C38.7916 13.7149 38.5333 13.6475 38.2806 13.5623L38.9395 12.1522H38.9371L40.4742 8.86998C40.5005 8.81174 40.543 8.76232 40.5966 8.72765C40.6503 8.69298 40.7128 8.67454 40.7767 8.67454C40.8406 8.67454 40.9031 8.69298 40.9568 8.72765C41.0105 8.76232 41.053 8.81174 41.0792 8.86998L42.4942 11.8911L42.5649 12.0421L42.6163 12.1522L43.2567 13.5238L43.1683 13.5487C42.8951 13.6081 42.6219 13.6797 42.3447 13.7271ZM25.7831 7.54021C25.9534 6.69012 25.8184 5.82879 25.407 5.11449C24.9313 4.29252 24.1712 3.73731 23.2633 3.5509C23.0497 3.50695 22.8321 3.48541 22.6141 3.48662C21.0713 3.48662 19.7729 4.60106 19.4555 6.19518C19.2813 7.05162 18.9597 7.87131 18.505 8.61769C18.4968 8.63155 18.485 8.64292 18.4708 8.65056C18.4567 8.65821 18.4407 8.66184 18.4246 8.66108C18.4073 8.66045 18.3906 8.65489 18.3764 8.64507C18.3621 8.63525 18.351 8.62157 18.3443 8.60563L15.3191 2.04115C14.9005 1.13402 14.1548 0.460697 13.2734 0.194743C11.766 -0.262441 10.1221 0.496854 9.44715 1.96L6.31592 8.74866C6.31288 8.75529 6.30802 8.76093 6.3019 8.76491C6.29579 8.76889 6.28867 8.77106 6.28137 8.77115C6.25887 8.77115 6.25485 8.7583 6.25164 8.74866C5.75508 7.48317 4.58037 6.66522 3.2554 6.66522C2.82714 6.66522 2.40851 6.7528 2.00998 6.92394C1.21291 7.26622 0.599037 7.92026 0.276031 8.76553C-0.0433664 9.59841 -0.0341767 10.5216 0.301742 11.3479C0.893919 12.8087 1.88463 14.2188 3.16701 15.4248C3.19835 15.4537 3.20719 15.4971 3.18871 15.5357L2.17791 17.7308C1.41459 19.3884 2.05658 21.3915 3.60813 22.1982C4.0574 22.4344 4.55731 22.5579 5.06487 22.5582C6.30467 22.5582 7.45126 21.8117 7.98398 20.6571L8.85658 18.7641C8.86545 18.744 8.88138 18.7278 8.90137 18.7186C8.92135 18.7095 8.944 18.7079 8.96505 18.7143C10.0166 19.0169 11.1049 19.1731 12.1991 19.1787C13.3706 19.1787 14.563 18.9995 15.7377 18.6484C15.7588 18.6416 15.7816 18.6428 15.8018 18.6518C15.822 18.6609 15.8381 18.6771 15.847 18.6974L16.71 20.572C17.2644 21.7724 18.4166 22.5517 19.6508 22.5598H19.6692C20.1766 22.5606 20.6764 22.4373 21.1252 22.2006C22.6759 21.3931 23.3171 19.3844 22.549 17.7212L21.4586 15.3638C21.4504 15.3454 21.4481 15.3248 21.4522 15.3051C21.4562 15.2854 21.4663 15.2674 21.4811 15.2537C23.6843 13.151 25.2118 10.4119 25.7831 7.54021ZM7.43599 18.2933L6.64857 20.0015C6.51009 20.3071 6.28712 20.5667 6.00596 20.7498C5.7248 20.9329 5.39716 21.0317 5.06166 21.0348C4.79008 21.0348 4.52814 20.9721 4.28227 20.8467C3.43056 20.4105 3.08345 19.3073 3.5077 18.3841L4.34735 16.5618C4.35502 16.5451 4.36722 16.5309 4.38257 16.5208C4.39791 16.5107 4.41577 16.5051 4.43413 16.5047C4.44859 16.5047 4.46707 16.5087 4.48395 16.5216C5.38354 17.1801 6.35702 17.7313 7.38457 18.1639C7.41671 18.1768 7.43278 18.2041 7.4376 18.2185C7.44297 18.2303 7.44562 18.2432 7.44534 18.2561C7.44506 18.269 7.44187 18.2817 7.43599 18.2933ZM15.1214 17.2126C15.1163 17.2244 15.1086 17.235 15.0989 17.2434C15.0891 17.2519 15.0776 17.2581 15.0652 17.2616C14.109 17.5227 13.144 17.6553 12.1959 17.6553C7.8048 17.6553 3.1646 14.5884 1.62992 10.6746C1.26835 9.7506 1.70224 8.69402 2.59894 8.31959C2.80865 8.23121 3.03042 8.18622 3.2554 8.18622C3.97533 8.18622 4.61331 8.62974 4.88248 9.31833C5.88444 11.8758 9.23502 14.0372 12.1959 14.0372C12.6419 14.0372 13.0998 13.993 13.557 13.9054C13.5996 13.8974 13.6422 13.9167 13.6591 13.9569L15.1214 17.1282C15.127 17.1416 15.1299 17.1559 15.1299 17.1704C15.1299 17.1849 15.127 17.1992 15.1214 17.2126ZM11.5314 12.2446L12.1204 10.9663C12.1375 10.9269 12.1659 10.8934 12.2018 10.87C12.2378 10.8466 12.2799 10.8342 12.3229 10.8345C12.3658 10.8348 12.4077 10.8473 12.4438 10.8707C12.4798 10.894 12.5084 10.9272 12.5261 10.9663L13.1015 12.2141C13.1168 12.2469 13.1243 12.2829 13.1234 12.3192C13.1224 12.3555 13.113 12.391 13.0958 12.423C13.0801 12.4545 13.057 12.4817 13.0285 12.5023C12.9999 12.5229 12.9668 12.5362 12.9319 12.5411C12.5283 12.6025 12.1185 12.6133 11.7122 12.5732C11.6764 12.5693 11.6422 12.5567 11.6123 12.5365C11.5825 12.5164 11.5581 12.4893 11.5411 12.4575C11.5228 12.4253 11.5123 12.3893 11.5107 12.3522C11.509 12.3152 11.5161 12.2784 11.5314 12.2446ZM20.4422 20.8467C20.2014 20.9708 19.9344 21.0352 19.6636 21.0348C19.3285 21.0315 19.0013 20.9325 18.7205 20.7494C18.4398 20.5663 18.2173 20.3068 18.0791 20.0015L12.7937 8.53573C12.7571 8.45217 12.697 8.38107 12.6207 8.33115C12.5443 8.28123 12.4551 8.25464 12.3638 8.25464C12.2726 8.25464 12.1834 8.28123 12.107 8.33115C12.0307 8.38107 11.9705 8.45217 11.934 8.53573L10.2948 12.092C10.2858 12.1124 10.2697 12.1289 10.2494 12.1383C10.2292 12.1478 10.2062 12.1496 10.1848 12.1434C9.0912 11.7553 8.06513 11.1029 7.29538 10.3098C7.28281 10.2959 7.2747 10.2784 7.27212 10.2598C7.26955 10.2412 7.27261 10.2222 7.28092 10.2054L10.8227 2.52244C10.9417 2.26533 11.1112 2.05803 11.3121 1.92304C11.7877 1.60165 12.3285 1.50603 12.8379 1.65227C13.0815 1.7239 13.3067 1.84717 13.4983 2.0137C13.69 2.18022 13.8434 2.38608 13.9483 2.61725L21.2176 18.3865C21.6434 19.3073 21.2947 20.4113 20.4422 20.8467ZM20.8648 13.7704C20.8539 13.7817 20.8405 13.7901 20.8257 13.7952C20.8109 13.8002 20.7951 13.8016 20.7797 13.7994C20.765 13.7967 20.7513 13.7903 20.7398 13.7809C20.7283 13.7715 20.7193 13.7593 20.7138 13.7455L19.1638 10.3821C19.1566 10.3662 19.1538 10.3486 19.1557 10.3312C19.1577 10.3138 19.1644 10.2972 19.1751 10.2833C20.0509 9.12388 20.6511 7.80376 20.9106 6.46274C21.0754 5.61908 21.7969 5.00682 22.6285 5.00682H22.6301C22.7723 5.00682 22.9162 5.0261 23.0584 5.06226C23.9776 5.29768 24.5368 6.27231 24.3311 7.27988C23.8386 9.69114 22.6414 11.9345 20.8648 13.7704Z" fill="#F7F8F8"/>
</svg>
