<svg width="105" height="22" viewBox="0 0 105 22" fill="none" xmlns="http://www.w3.org/2000/svg">
<path d="M28.8009 5.47993H31.679L31.9491 6.97746C32.5117 5.79262 33.7245 5.21225 35.0049 5.21225C35.6334 5.21225 36.2643 5.3682 36.6919 5.54825L36.016 9.01195C35.5051 8.71131 34.9217 8.5562 34.3289 8.56342C33.1611 8.56342 32.2151 9.34795 32.2151 11.0899V16.6548H28.8009V5.47993ZM37.875 12.4941V5.40919H41.3407V11.8455C41.3407 13.142 42.0914 13.8349 43.1861 13.8349C44.3033 13.8349 45.2597 12.9861 45.2597 11.1083V5.40919H48.7246V16.584H45.8312L45.443 15.1106C44.8964 16.0029 43.5285 16.8525 41.8422 16.8525C39.5821 16.8525 37.875 15.4201 37.875 12.4941ZM53.3621 5.47993L53.7455 6.95335C54.2856 6.0611 55.6126 5.21225 57.2819 5.21225C59.4874 5.21225 61.1527 6.62056 61.1527 9.5473V16.6548H57.7296V10.2635C57.7296 8.94523 57.0529 8.22983 55.9276 8.22983C54.8908 8.22983 53.9231 9.07867 53.9231 10.9998V16.6548H50.5V5.47993H53.3621ZM61.942 5.40919H65.3659L67.3881 13.0343L69.1884 8.01842L68.3003 5.40919H71.7001L73.9023 13.0343L75.857 5.40919H79.301L75.6553 16.6548H72.1429L70.6335 12.1798L69.0767 16.6548H65.5853L61.942 5.40919ZM79.4987 11.032C79.4987 7.18967 82.2716 5.21225 84.8234 5.21225C86.3899 5.21225 87.5087 5.83281 88.0657 6.47748L88.3783 5.47832H91.5322V16.5864H88.5351L88.0657 15.4997C87.5963 16.0535 86.5909 16.8533 84.6643 16.8533C81.9147 16.8533 79.4987 14.5865 79.4987 11.0336V11.032ZM88.2015 11.032C88.2015 9.23381 87.0385 8.12372 85.5605 8.12372C84.0623 8.12372 82.921 9.25712 82.921 11.032C82.921 12.8068 84.0623 13.9434 85.5605 13.9434C87.0385 13.941 88.2015 12.8309 88.2015 11.032ZM95.1144 21.1924L97.0104 16.0752L92.5176 5.40919H96.1979L98.7047 12.376L100.962 5.40919H104.552L98.6147 21.1924H95.1144ZM15.9709 21.1803C13.509 21.4054 11.4515 18.5196 9.87295 17.0567C9.07565 22.8065 0.388908 22.2615 0.394534 16.4297C0.397749 13.9796 0.394534 7.9935 0.394534 5.6206C0.394534 4.76774 0.62842 3.90844 1.06806 3.18017C1.90153 1.76704 3.51141 0.854695 5.15102 0.873183C7.6225 0.875594 13.5717 0.869163 15.9709 0.873183C21.8076 0.873183 22.3622 9.55695 16.5938 10.3391L19.3313 13.0729C22.3388 15.9024 20.0812 21.3041 15.9709 21.1803ZM14.6447 17.7592C16.3422 19.5067 19.0492 16.7994 17.3027 15.105L12.5574 10.3656H9.90269V13.0198L14.0049 17.1162L14.6447 17.7592ZM3.26868 16.4321C3.2301 18.8613 7.06471 18.8701 7.02613 16.4321V5.6206C7.05828 4.40923 5.77794 3.44624 4.62056 3.82002C4.22593 3.93722 3.88032 4.17999 3.63619 4.51149C3.39206 4.84298 3.26274 5.24509 3.26788 5.65677L3.26868 16.4321ZM15.9709 7.49513C18.4086 7.53291 18.4062 3.70346 15.9709 3.74124H9.52654C10.016 4.77256 9.89144 6.3778 9.90028 7.49513H15.9709Z" fill="#F7F8F8"/>
</svg>
