<svg width="115" height="22" viewBox="0 0 115 22" fill="none" xmlns="http://www.w3.org/2000/svg">
<path d="M13.8335 18.3035C13.9274 17.7505 13.8782 17.1827 13.6906 16.6542C13.503 16.1256 13.1832 15.6539 12.7616 15.284C12.1396 14.7138 11.3267 14.3973 10.4829 14.3969C9.98553 14.3969 9.50664 14.2844 9.06633 14.057C8.49679 13.7534 8.03052 13.2872 7.7269 12.7176C7.89885 12.2837 7.97598 11.8113 7.97598 11.3019C7.97598 12.6799 9.08561 13.7927 10.4644 13.7927H10.5215C11.1751 13.7821 11.7984 13.5151 12.2568 13.0491C12.7153 12.5831 12.9722 11.9556 12.9721 11.3019C12.9721 10.8118 13.0677 10.3393 13.2212 9.88695C13.5216 9.10033 14.0627 8.42867 14.7674 7.96782C15.4722 7.50696 16.3044 7.28045 17.1455 7.32061C16.4894 6.21764 15.568 5.29622 14.465 4.64019V4.829C14.4621 5.69358 14.1803 6.53414 13.6615 7.2258C13.5078 7.09544 13.3408 6.98153 13.1634 6.88593C13.623 6.30099 13.8528 5.58428 13.8528 4.84829C13.8528 4.4144 13.7756 3.98052 13.6037 3.56432C13.3539 2.95776 12.9333 2.43686 12.3929 2.06498C11.8526 1.69309 11.2158 1.48626 10.56 1.46963H10.3688C9.52593 1.46963 8.70315 1.58292 7.89885 1.8095C6.23313 2.25577 4.71412 3.13238 3.49431 4.35132C2.2745 5.57026 1.39683 7.08864 0.9494 8.75403C0.375703 9.45306 0.0310027 10.3015 0.0117188 11.2079C0.0695705 5.52723 4.66397 0.923258 10.3688 0.866211H10.6364C16.3026 0.960219 20.8785 5.52723 20.9356 11.2071V11.4345C20.9178 12.3365 20.5862 13.2042 19.9979 13.8883C19.4554 14.5388 18.7164 14.9956 17.8919 15.19C17.585 15.2648 17.2702 15.3028 16.9543 15.3032C16.0923 15.3014 15.2535 15.0238 14.5606 14.511C14.3116 14.8509 14.0062 15.1337 13.68 15.3981C14.2402 16.1395 14.5184 17.056 14.465 17.9837C15.568 17.3276 16.4894 16.4062 17.1455 15.3032C17.3946 15.2848 17.6437 15.2462 17.8919 15.19C17.1836 16.5411 16.1186 17.6732 14.8125 18.4616C13.5064 19.2501 12.0093 19.6656 10.4837 19.663C9.88911 19.663 9.3347 19.3801 8.99 18.927C8.74246 18.594 8.60839 18.1904 8.60753 17.7756C8.60753 17.2099 8.8751 16.6812 9.27765 16.3413C9.66011 16.4362 10.0811 16.4924 10.5022 16.4924C10.1576 16.4945 9.82774 16.6323 9.58409 16.876C9.34044 17.1196 9.20262 17.4495 9.20051 17.7941C9.20051 18.5116 9.77501 19.0965 10.5022 19.0965H10.5215C10.866 19.0944 11.1959 18.9566 11.4395 18.7129C11.6832 18.4693 11.821 18.1394 11.8231 17.7949C11.8231 17.0773 11.2486 16.4924 10.5215 16.4924C9.56968 16.4903 8.63642 16.2292 7.82171 15.7371C7.64976 15.6246 7.47781 15.5113 7.32435 15.3981C6.99227 15.1368 6.69043 14.8393 6.42443 14.511C6.5779 14.3977 6.73137 14.2659 6.88403 14.1149C7.31126 14.6737 7.86184 15.1262 8.4928 15.4372C9.12376 15.7481 9.81804 15.9091 10.5215 15.9075C11.0223 15.9091 11.5022 16.1083 11.8571 16.4616C12.2119 16.815 12.4131 17.2941 12.4169 17.7949C12.4169 18.2095 12.2827 18.6064 12.0336 18.9454C12.666 18.8137 13.2783 18.6249 13.8528 18.342L13.8335 18.3035ZM18.1025 9.81062C17.9853 9.17478 17.7792 8.55861 17.4902 7.98028C17.0383 7.90788 16.5765 7.92743 16.1323 8.03774C15.6882 8.14805 15.2708 8.34686 14.9053 8.62226C14.4895 8.9388 14.1522 9.34698 13.9198 9.81507C13.6873 10.2832 13.566 10.7985 13.5651 11.3212C13.5651 11.8306 13.4502 12.3014 13.2212 12.7361C12.9249 13.3049 12.4647 13.7718 11.9003 14.0763C12.4169 14.2651 12.8765 14.5665 13.2783 14.9441C13.7552 14.5821 14.1525 14.1259 14.4457 13.6039C14.8475 12.9056 15.0588 12.1327 15.0588 11.3212C15.0588 10.8487 15.2308 10.4341 15.5184 10.0942C15.8335 9.72899 16.2753 9.49672 16.7548 9.44423C17.2343 9.39175 17.7158 9.52216 18.1025 9.81062ZM18.2366 11.2649C18.2174 10.5852 17.6429 10.038 16.935 10.0187C16.5923 10.0166 16.2628 10.1505 16.0187 10.3911C15.7747 10.6316 15.6361 10.9592 15.6333 11.3019V11.3397C15.6518 12.0387 16.2263 12.5851 16.935 12.5851C17.2777 12.5872 17.6072 12.4533 17.8512 12.2127C18.0953 11.9721 18.2339 11.6446 18.2366 11.3019V11.2649ZM15.5184 12.5473C15.3842 13.0567 15.193 13.5669 14.9053 14.0193C15.2686 14.2988 15.6858 14.5001 16.1306 14.6105C16.5755 14.721 17.0384 14.7383 17.4902 14.6613C17.7393 14.6235 17.9876 14.548 18.2366 14.4532C18.8441 14.2053 19.3664 13.7863 19.7401 13.2471C20.1138 12.7079 20.3229 12.0718 20.3418 11.416V11.2456C20.3418 10.4148 20.2277 9.58484 19.9979 8.77332C19.098 5.41474 16.4368 2.7536 13.0677 1.82879C13.7091 2.37449 14.1642 3.10677 14.3694 3.92348V3.94195C16.1218 4.86215 17.4918 6.37305 18.2366 8.20686C18.6384 9.16943 18.8489 10.226 18.8489 11.3405C18.8489 11.9431 18.5621 12.491 18.1025 12.8309C17.7724 13.0839 17.3692 13.2229 16.9535 13.227C16.6805 13.218 16.4122 13.153 16.1654 13.0361C15.9185 12.9192 15.6983 12.7528 15.5184 12.5473ZM10.3302 21.7568C4.66397 21.662 0.0880511 17.0765 0.0310028 11.416V11.1886C0.048995 10.2868 0.38055 9.41942 0.968684 8.73555C1.51651 8.09122 2.25335 7.63579 3.07465 7.43391C3.38078 7.35757 3.7062 7.31981 4.01313 7.31981C4.87448 7.31981 5.71655 7.60344 6.40595 8.11285C6.65503 7.77298 6.96036 7.49015 7.28658 7.2258C6.72908 6.48209 6.44502 5.56891 6.48228 4.64019C5.37941 5.29602 4.45799 6.21715 3.80181 7.31981C3.55273 7.33909 3.30445 7.37605 3.05537 7.4331C3.76369 6.08192 4.82873 4.95066 6.1348 4.16222C7.44086 3.37378 8.93801 2.95829 10.4636 2.9609C11.0582 2.9609 11.6126 3.24373 11.9573 3.69689C12.2064 4.01829 12.3406 4.4136 12.3406 4.84829C12.3404 5.12178 12.2804 5.39193 12.1646 5.63971C12.0488 5.8875 11.8801 6.10691 11.6705 6.28251C11.2687 6.1877 10.8662 6.13145 10.4451 6.13145C10.7897 6.12935 11.1196 5.99153 11.3632 5.74788C11.6069 5.50423 11.7447 5.17438 11.7468 4.82981C11.7468 4.11229 11.1723 3.52655 10.4451 3.52655H10.4258C10.0811 3.52866 9.75115 3.66659 9.50748 3.91041C9.2638 4.15423 9.12608 4.4843 9.12418 4.829C9.12418 5.54652 9.69868 6.13065 10.4258 6.13065C11.3828 6.13065 12.302 6.3958 13.1256 6.88593C13.2975 6.99922 13.4695 7.11251 13.623 7.2258C13.9484 7.49015 14.2545 7.79226 14.5229 8.11285C14.3694 8.22534 14.2159 8.35791 14.0633 8.50897C13.6361 7.95016 13.0855 7.49762 12.4545 7.18667C11.8235 6.87572 11.1293 6.71478 10.4258 6.71639C9.9776 6.70987 9.54513 6.54993 9.20051 6.26323C8.99208 6.08656 8.82429 5.86693 8.70863 5.61939C8.59297 5.37185 8.53217 5.10223 8.5304 4.829C8.5304 4.39512 8.68306 3.999 8.91366 3.67761C8.28212 3.81018 7.64976 4.01748 7.07607 4.28183C6.98214 4.83477 7.03133 5.40255 7.21895 5.9311C7.40658 6.45965 7.72639 6.93137 8.14793 7.30133C8.7697 7.87129 9.58237 8.18776 10.4258 8.18838C10.924 8.18838 11.4021 8.30087 11.8424 8.52825C12.4122 8.83174 12.8788 9.29802 13.1826 9.86766C13.0043 10.3178 12.9196 10.7995 12.9336 11.2834C12.9336 9.90543 11.8231 8.7926 10.4451 8.7926H10.4258C9.77222 8.80314 9.14894 9.07021 8.69047 9.53619C8.232 10.0022 7.97509 10.6297 7.97518 11.2834C7.97518 11.7735 7.87956 12.246 7.7261 12.6983C7.42562 13.4849 6.88445 14.1565 6.17976 14.6173C5.47507 15.0782 4.64286 15.3047 3.80181 15.2647C4.45799 16.3673 5.37941 17.2885 6.48228 17.9443C6.43831 17.0237 6.71583 16.1164 7.2673 15.378C7.41996 15.5105 7.59271 15.6238 7.76547 15.7178C7.31307 16.3005 7.07021 17.0186 7.07607 17.7563C7.07607 18.1902 7.1524 18.6241 7.32515 19.0395C7.5749 19.646 7.99554 20.1669 8.5359 20.5388C9.07625 20.9107 9.71304 21.1175 10.3688 21.1341H10.5407C11.3828 21.1341 12.2064 21.0209 13.0099 20.7943C14.6758 20.3482 16.195 19.4717 17.415 18.2527C18.635 17.0337 19.5127 15.5153 19.9601 13.8497C20.5338 13.1507 20.8785 12.3022 20.897 11.3967C20.84 17.0773 16.2448 21.6813 10.5407 21.7376H10.3109C10.3688 21.7568 10.3302 21.7568 10.3302 21.7568ZM7.89885 20.8128C7.25752 20.267 6.80248 19.5347 6.59718 18.7181V18.6996C4.84478 17.7794 3.47476 16.2685 2.72995 14.4347C2.32703 13.4393 2.11917 12.3757 2.11769 11.3019C2.11769 10.6985 2.40453 10.1505 2.86413 9.81142C3.19247 9.55526 3.5967 9.41562 4.01313 9.4145C4.58683 9.4145 5.10428 9.67965 5.44818 10.0758C5.58237 9.54707 5.7736 9.05614 6.06125 8.60378C5.698 8.32421 5.28085 8.12279 4.83602 8.01217C4.39119 7.90155 3.92829 7.88413 3.4764 7.96099C2.69722 8.08498 1.98581 8.47718 1.46502 9.06984C0.944227 9.66251 0.646757 10.4184 0.623983 11.2071V11.3967C0.623983 12.2267 0.738883 13.0567 0.969487 13.8682C1.88788 17.2461 4.52898 19.9072 7.89885 20.8128ZM3.4764 14.6613C3.92828 14.7337 4.39014 14.7142 4.83429 14.6039C5.27845 14.4936 5.69577 14.2947 6.06125 14.0193C6.47701 13.7028 6.81421 13.2948 7.04665 12.8268C7.27909 12.3589 7.40051 11.8437 7.40148 11.3212C7.40148 10.8118 7.51638 10.3393 7.74538 9.90543C8.04172 9.33661 8.50186 8.86976 9.06633 8.56521H9.04785C8.53413 8.37251 8.06501 8.07726 7.66905 7.69745C7.1922 8.05951 6.79483 8.51568 6.50157 9.03766C6.0991 9.73132 5.88757 10.5192 5.8885 11.3212C5.8885 11.7928 5.71655 12.2082 5.4297 12.5473C5.2515 12.7536 5.03113 12.9194 4.78343 13.0333C4.53574 13.1472 4.26649 13.2067 3.99385 13.2078C3.57752 13.2068 3.17332 13.0675 2.84485 12.8116C2.99751 13.4536 3.20883 14.0763 3.4764 14.6613ZM2.72995 11.3774C2.76852 12.0572 3.32373 12.6228 4.03162 12.6228C4.37429 12.625 4.70382 12.491 4.94786 12.2505C5.19191 12.0099 5.33052 11.6823 5.33328 11.3397V11.3019C5.32237 10.9653 5.17997 10.6464 4.93663 10.4135C4.69328 10.1807 4.36838 10.0525 4.03162 10.0565C3.30445 10.0565 2.72995 10.6414 2.72995 11.3581V11.3774ZM29.3394 5.84782H32.2111L34.8915 13.0567H34.9301L37.5712 5.84782H40.4429V16.0007H38.6246V7.8485H38.6053L35.4845 16.0007H34.2021L31.1199 7.8485H31.1006V16.0007H29.3586L29.3394 5.84782ZM45.4583 5.84782H52.2736V7.4331H47.2975V10.0187H52.0261V11.5285H47.2774V14.3969H52.5235V16.0007H45.4406L45.4583 5.84782ZM60.3905 10.2268C60.6589 10.2268 60.908 10.2075 61.1755 10.1698C61.4246 10.132 61.6544 10.0565 61.8842 9.96247C62.0947 9.84918 62.2667 9.69733 62.4009 9.50931C62.5351 9.32049 62.6114 9.05614 62.6114 8.75403C62.6114 8.47121 62.5543 8.24462 62.4201 8.07509C62.286 7.90475 62.1325 7.75369 61.9413 7.65969C61.7355 7.5429 61.5069 7.47217 61.2711 7.45239C61.0307 7.41418 60.7875 7.39537 60.544 7.39614H58.8783V10.2453C58.8976 10.226 60.3905 10.2268 60.3905 10.2268ZM57.06 5.84782H60.6396C61.1185 5.84782 61.5966 5.90407 62.0562 5.99888C62.484 6.09135 62.8924 6.25776 63.263 6.49061C63.6077 6.7172 63.9138 7.03779 64.1051 7.39614C64.3164 7.77378 64.4305 8.22695 64.4305 8.75484C64.4305 9.49083 64.22 10.0951 63.799 10.5482C63.3779 11.0199 62.8034 11.322 62.0762 11.4915L64.8138 15.983H62.6122L60.2387 11.6803H58.8984V15.983H57.06V5.84782ZM76.3753 8.22614C76.1097 7.86437 75.7437 7.5886 75.3227 7.4331C74.9159 7.26674 74.4799 7.18342 74.0403 7.18804C73.5422 7.18804 73.0448 7.28205 72.5852 7.47087C72.1609 7.65969 71.7772 7.92901 71.4555 8.26391C71.1327 8.59775 70.8848 8.99658 70.7283 9.43378C70.5564 9.90543 70.4599 10.3964 70.4792 10.8865C70.4792 11.4337 70.5564 11.9439 70.7283 12.397C70.9003 12.8494 71.1301 13.2455 71.437 13.5862C71.7431 13.906 72.1063 14.1703 72.5281 14.3592C72.9492 14.548 73.4273 14.6235 73.9632 14.6235C74.5184 14.6235 74.9973 14.5102 75.4376 14.3021C75.8394 14.0948 76.2033 13.812 76.4717 13.4536L77.9453 14.4724C77.502 15.0331 76.9309 15.4795 76.2797 15.7741C75.6288 16.0762 74.8438 16.2465 73.9632 16.2465C73.1597 16.2465 72.4132 16.114 71.7431 15.8496C71.0955 15.6042 70.5033 15.2322 70.0011 14.7553C69.5077 14.2762 69.1225 13.697 68.8714 13.0567C68.6031 12.3962 68.4697 11.6795 68.4697 10.8873C68.4697 10.0758 68.6031 9.33897 68.8907 8.67931C69.156 8.04826 69.5542 7.48179 70.0582 7.0185C70.5673 6.54991 71.1666 6.19011 71.8195 5.96112C72.8548 5.58592 73.9704 5.48841 75.0551 5.67829C75.4183 5.73453 75.763 5.82934 76.0884 5.96112C76.4139 6.09369 76.72 6.24475 77.0269 6.43276C77.3138 6.62158 77.5629 6.84816 77.7734 7.11251C77.7734 7.15028 76.3753 8.22614 76.3753 8.22614ZM90.0058 12.2645C90.0107 12.8344 89.9 13.3993 89.6804 13.9253C89.4859 14.4022 89.1846 14.8283 88.7998 15.1707C88.4173 15.5105 87.977 15.7934 87.4981 15.9629C86.9698 16.1516 86.4128 16.2476 85.8517 16.2465C85.2908 16.246 84.7341 16.1501 84.2054 15.9629C83.7189 15.7847 83.2707 15.5159 82.8844 15.1707C82.5099 14.8192 82.2103 14.3956 82.0038 13.9253C81.7933 13.4351 81.6977 12.8872 81.6977 12.2645V5.84782H83.5352V12.1889C83.5352 12.491 83.5738 12.7739 83.6502 13.076C83.7268 13.3562 83.8569 13.619 84.0334 13.8497C84.2054 14.0763 84.4545 14.2651 84.7413 14.4154C85.029 14.5665 85.4114 14.6235 85.8325 14.6235C86.2728 14.6235 86.6367 14.548 86.9236 14.4154C87.2113 14.2836 87.441 14.0948 87.6323 13.8497C87.8042 13.6232 87.9384 13.3596 88.0147 13.076C88.0919 12.7932 88.1296 12.491 88.1296 12.1889V5.84782H89.968C90.0058 5.84782 90.0058 12.2645 90.0058 12.2645ZM98.2569 10.226C98.5245 10.226 98.7736 10.2075 99.0419 10.1698C99.3095 10.132 99.5393 10.0565 99.7498 9.96247C99.9603 9.84918 100.133 9.69733 100.267 9.50931C100.401 9.32049 100.478 9.05614 100.478 8.75403C100.478 8.47121 100.42 8.24462 100.286 8.07509C100.164 7.89841 99.9996 7.75548 99.8077 7.65969C99.602 7.54288 99.3733 7.47215 99.1376 7.45239C98.8971 7.41418 98.6539 7.39537 98.4104 7.39614H96.7447V10.2453C96.764 10.226 98.2569 10.226 98.2569 10.226ZM94.9256 5.84782H98.506C98.9841 5.84782 99.463 5.90407 99.9226 5.99888C100.35 6.09124 100.758 6.25737 101.129 6.48981C101.473 6.71639 101.76 7.0185 101.971 7.39534C102.181 7.77298 102.296 8.22614 102.296 8.75403C102.296 9.49003 102.086 10.0942 101.665 10.5474C101.244 11.0191 100.669 11.3212 99.9419 11.4907L102.679 15.9822H100.478L98.1035 11.6795H96.764V15.9822H94.9256V5.84782ZM109.207 11.604L105.34 5.86711H107.58L110.164 10.132L112.787 5.86711H114.912L111.045 11.604V16.0007H109.207V11.604Z" fill="#F7F8F8"/>
</svg>
