<svg width="91" height="20" viewBox="0 0 91 20" fill="none" xmlns="http://www.w3.org/2000/svg">
<path d="M0.759766 2.44323C0.759766 2.211 0.805502 1.98104 0.894363 1.76648C0.983224 1.55193 1.11347 1.35698 1.27766 1.19276C1.44186 1.02855 1.63678 0.89829 1.85131 0.809418C2.06584 0.720546 2.29577 0.674805 2.52798 0.674805H9.44008C9.67228 0.674805 9.90222 0.720546 10.1167 0.809418C10.3313 0.89829 10.5262 1.02855 10.6904 1.19276C10.8546 1.35698 10.9848 1.55193 11.0737 1.76648C11.1626 1.98104 11.2083 2.211 11.2083 2.44323V3.80974C11.2083 4.04425 11.1151 4.26915 10.9493 4.43497C10.7835 4.60079 10.5587 4.69395 10.3242 4.69395H1.64387C1.52777 4.69395 1.4128 4.67108 1.30554 4.62664C1.19827 4.58221 1.10081 4.51708 1.01871 4.43497C0.936617 4.35286 0.871495 4.25539 0.827064 4.14811C0.782634 4.04083 0.759766 3.92585 0.759766 3.80974V2.44323ZM0.759766 7.98965C0.759766 7.87353 0.782634 7.75855 0.827064 7.65128C0.871495 7.544 0.936617 7.44652 1.01871 7.36442C1.10081 7.28231 1.19827 7.21718 1.30554 7.17274C1.4128 7.12831 1.52777 7.10544 1.64387 7.10544H18.2811C18.7501 7.10544 19.1999 7.29175 19.5315 7.6234C19.8631 7.95504 20.0494 8.40485 20.0494 8.87386V13.4557C20.0494 13.5718 20.0265 13.6868 19.9821 13.7941C19.9376 13.9013 19.8725 13.9988 19.7904 14.0809C19.7083 14.163 19.6108 14.2282 19.5036 14.2726C19.3963 14.317 19.2813 14.3399 19.1652 14.3399H2.52798C2.29577 14.3399 2.06584 14.2942 1.85131 14.2053C1.63678 14.1164 1.44186 13.9862 1.27766 13.8219C1.11347 13.6577 0.983224 13.4628 0.894363 13.2482C0.805502 13.0337 0.759766 12.8037 0.759766 12.5715V7.98965ZM9.60083 17.6356C9.60083 17.4011 9.69397 17.1762 9.85977 17.0104C10.0256 16.8445 10.2505 16.7514 10.4849 16.7514H19.1652C19.3997 16.7514 19.6246 16.8445 19.7904 17.0104C19.9562 17.1762 20.0494 17.4011 20.0494 17.6356V18.1983C20.0494 18.4305 20.0036 18.6605 19.9148 18.875C19.8259 19.0896 19.6957 19.2845 19.5315 19.4487C19.3673 19.613 19.1723 19.7432 18.9578 19.8321C18.7433 19.921 18.5133 19.9667 18.2811 19.9667H11.369C11.1368 19.9667 10.9069 19.921 10.6924 19.8321C10.4778 19.7432 10.2829 19.613 10.1187 19.4487C9.95453 19.2845 9.82428 19.0896 9.73542 18.875C9.64656 18.6605 9.60083 18.4305 9.60083 18.1983V17.6356ZM30.9769 12.524H32.8343L36.2848 18.1645H40.5092L36.6834 12.1262C38.8061 11.3955 40.0446 9.75888 40.0446 7.3916C40.0446 4.0742 37.7218 2.28246 33.9845 2.28246H27.2829V18.1645H30.9769V12.524ZM30.9769 9.51612V5.40132H33.7851C35.5325 5.40132 36.4174 6.15371 36.4174 7.45912C36.4174 8.74123 35.5333 9.51532 33.7851 9.51532H30.9769V9.51612ZM46.8643 18.4073C49.1871 18.4073 51.3097 17.2353 52.1729 15.0015L49.2088 14.0505C48.8768 15.0682 48.0144 15.5987 46.9085 15.5987C45.5598 15.5987 44.6082 14.692 44.3655 13.0988H52.2614V12.1704C52.2614 8.87467 50.3364 6.26383 46.7984 6.26383C43.4364 6.26383 40.9593 8.87386 40.9593 12.3247C40.9593 15.9524 43.348 18.4073 46.8643 18.4073ZM46.7534 9.0073C48.0586 9.0073 48.7442 9.89151 48.7667 10.9317H44.4748C44.8284 9.64875 45.6699 9.0073 46.7534 9.0073ZM54.2667 15.0457C54.2667 17.4346 55.5277 18.2754 58.049 18.2754C58.8897 18.2754 59.5528 18.2087 60.1725 18.1203V15.2225C59.7738 15.2667 59.5753 15.2892 59.155 15.2892C58.2701 15.2892 57.7613 15.1124 57.7613 14.1389V9.4269H60.0391V6.50739H57.7613V3.2776H54.2667V6.50739H52.7846V9.4269H54.2667V15.0457ZM72.8321 12.3464C72.8321 8.71953 70.4209 6.26383 66.993 6.26383C63.5425 6.26383 61.1539 8.71953 61.1539 12.3472C61.1539 15.9749 63.5425 18.4081 66.993 18.4081C70.4209 18.4081 72.8321 15.9741 72.8321 12.3464ZM64.671 12.3464C64.671 10.3127 65.5776 9.16163 66.993 9.16163C68.4083 9.16163 69.3158 10.3119 69.3158 12.3472C69.3158 14.3825 68.4083 15.532 66.993 15.532C65.5776 15.532 64.671 14.3817 64.671 12.3464ZM85.5753 12.3464C85.5753 8.71953 83.1649 6.26383 79.7361 6.26383C76.2857 6.26383 73.897 8.71953 73.897 12.3472C73.897 15.9749 76.2857 18.4081 79.7361 18.4081C83.1649 18.4081 85.5753 15.9741 85.5753 12.3464ZM77.4142 12.3464C77.4142 10.3127 78.3208 9.16163 79.7361 9.16163C81.1523 9.16163 82.0589 10.3119 82.0589 12.3472C82.0589 14.3825 81.1523 15.532 79.7361 15.532C78.3208 15.532 77.4142 14.3817 77.4142 12.3464ZM90.7778 2.28246H87.239V18.1645H90.7778V2.28246Z" fill="#F7F8F8"/>
</svg>
