<svg width="22" height="23" viewBox="0 0 22 23" fill="none" xmlns="http://www.w3.org/2000/svg">
<g clip-path="url(#clip0_358_2108)">
<path d="M10.94 7.65533C12.9499 7.65533 14.5793 9.28469 14.5793 11.2946C14.5793 13.3045 12.9499 14.9339 10.94 14.9339C8.93007 14.9339 7.30071 13.3045 7.30071 11.2946C7.30071 10.6317 7.47794 10.0102 7.78759 9.47497M16.3989 5.83569C16.3989 6.08693 16.1952 6.2906 15.944 6.2906C15.6928 6.2906 15.4891 6.08693 15.4891 5.83569M16.3989 5.83569C16.3989 5.58445 16.1952 5.38078 15.944 5.38078C15.6928 5.38078 15.4891 5.58445 15.4891 5.83569M16.3989 5.83569H15.4891M9.12035 20.3928H12.7596C15.3074 20.3928 16.5812 20.3928 17.5544 19.897C18.4103 19.4609 19.1063 18.765 19.5423 17.909C20.0382 16.9359 20.0382 15.662 20.0382 13.1142V9.47497C20.0382 6.92724 20.0382 5.65337 19.5423 4.68026C19.1063 3.8243 18.4103 3.12837 17.5544 2.69224C16.5812 2.19641 15.3074 2.19641 12.7596 2.19641H9.12035C6.57262 2.19641 5.29876 2.19641 4.32565 2.69224C3.46968 3.12837 2.77375 3.8243 2.33762 4.68026C1.8418 5.65337 1.8418 6.92724 1.8418 9.47497V13.1142C1.8418 15.662 1.8418 16.9359 2.33762 17.909C2.77375 18.765 3.46968 19.4609 4.32565 19.897C5.29876 20.3928 6.57262 20.3928 9.12035 20.3928Z" stroke="white" stroke-width="1.36473" stroke-linecap="round" stroke-linejoin="round"/>
</g>
<defs>
<clipPath id="clip0_358_2108">
<rect width="21.8357" height="21.8357" fill="white" transform="translate(0.0214844 0.37677)"/>
</clipPath>
</defs>
</svg>
