<svg width="47" height="47" viewBox="0 0 47 47" fill="none" xmlns="http://www.w3.org/2000/svg">
<rect y="12.606" width="36" height="36" rx="18" transform="rotate(-20 0 12.606)" fill="url(#paint0_linear_287_5662)" fill-opacity="0.1"/>
<rect x="0.320428" y="12.7554" width="35.5" height="35.5" rx="17.75" transform="rotate(-20 0.320428 12.7554)" stroke="url(#paint1_linear_287_5662)" stroke-opacity="0.1" stroke-width="0.5"/>
<g clip-path="url(#clip0_287_5662)">
<path d="M24.5223 12.8844L15.1254 16.3046C13.1792 17.0129 12.1758 19.1648 12.8841 21.111L16.3043 30.5079C17.0127 32.4541 19.1646 33.4576 21.1108 32.7492L30.5077 29.329C32.4539 28.6207 33.4573 26.4687 32.749 24.5226L29.3288 15.1257C28.6204 13.1795 26.4685 12.176 24.5223 12.8844Z" fill="url(#paint2_radial_287_5662)"/>
<path d="M24.5223 12.8844L15.1254 16.3046C13.1792 17.0129 12.1758 19.1648 12.8841 21.111L16.3043 30.5079C17.0127 32.4541 19.1646 33.4576 21.1108 32.7492L30.5077 29.329C32.4539 28.6207 33.4573 26.4687 32.749 24.5226L29.3288 15.1257C28.6204 13.1795 26.4685 12.176 24.5223 12.8844Z" fill="url(#paint3_radial_287_5662)"/>
<path d="M24.2215 12.8756L15.0164 16.226C13.1099 16.9199 12.127 19.0279 12.8209 20.9344L16.1713 30.1395C16.8651 32.046 18.9731 33.0289 20.8796 32.335L30.0847 28.9846C31.9912 28.2907 32.9742 26.1828 32.2803 24.2763L28.9299 15.0712C28.236 13.1647 26.128 12.1817 24.2215 12.8756Z" fill="url(#paint4_radial_287_5662)"/>
<path d="M25.7544 18.0898C25.9315 18.5763 25.6807 19.1143 25.1941 19.2914C24.7076 19.4685 24.1696 19.2176 23.9925 18.7311C23.8154 18.2445 24.0663 17.7065 24.5528 17.5295C25.0394 17.3524 25.5774 17.6032 25.7544 18.0898Z" fill="white"/>
<path fill-rule="evenodd" clip-rule="evenodd" d="M23.8867 25.7537C25.5085 25.1634 26.3447 23.3702 25.7544 21.7484C25.1641 20.1266 23.3708 19.2904 21.749 19.8806C20.1272 20.4709 19.291 22.2642 19.8813 23.886C20.4716 25.5078 22.2649 26.344 23.8867 25.7537ZM23.4591 24.5791C24.4323 24.2249 24.934 23.149 24.5798 22.1759C24.2256 21.2028 23.1497 20.7011 22.1766 21.0553C21.2035 21.4094 20.7017 22.4854 21.0559 23.4585C21.4101 24.4316 22.486 24.9333 23.4591 24.5791Z" fill="white"/>
<path fill-rule="evenodd" clip-rule="evenodd" d="M16.8607 24.7195C16.1424 22.7459 15.7832 21.7591 15.893 20.8656C15.9895 20.0795 16.3323 19.3443 16.8724 18.7651C17.4864 18.1066 18.4732 17.7475 20.4467 17.0292L20.9166 16.8582C22.8901 16.1399 23.8769 15.7807 24.7705 15.8904C25.5565 15.9869 26.2918 16.3298 26.871 16.8699C27.5294 17.4839 27.8886 18.4707 28.6069 20.4442L28.7779 20.914C29.4962 22.8876 29.8554 23.8744 29.7456 24.7679C29.6491 25.554 29.3062 26.2893 28.7661 26.8684C28.1522 27.5269 27.1654 27.886 25.1918 28.6043L24.722 28.7753C22.7485 29.4936 21.7617 29.8528 20.8681 29.7431C20.0821 29.6466 19.3468 29.3037 18.7676 28.7636C18.1092 28.1496 17.75 27.1628 17.0317 25.1893L16.8607 24.7195ZM20.8743 18.2038L21.3441 18.0328C22.3503 17.6666 23.0345 17.4186 23.579 17.2693C24.1093 17.1239 24.4004 17.1044 24.6182 17.1311C25.1422 17.1954 25.6323 17.424 26.0185 17.7841C26.1789 17.9337 26.3511 18.1693 26.5806 18.669C26.8162 19.182 27.066 19.8656 27.4323 20.8717L27.6033 21.3416C27.9695 22.3477 28.2175 23.032 28.3667 23.5764C28.5121 24.1067 28.5317 24.3978 28.5049 24.6156C28.4406 25.1396 28.212 25.6298 27.852 26.0159C27.7023 26.1764 27.4668 26.3485 26.9671 26.578C26.4541 26.8136 25.7705 27.0635 24.7643 27.4297L24.2945 27.6007C23.2883 27.9669 22.604 28.2149 22.0596 28.3642C21.5293 28.5096 21.2382 28.5291 21.0204 28.5024C20.4964 28.438 20.0062 28.2095 19.6201 27.8494C19.4597 27.6998 19.2875 27.4642 19.058 26.9645C18.8224 26.4515 18.5726 25.768 18.2063 24.7618L18.0353 24.2919C17.6691 23.2858 17.4211 22.6015 17.2719 22.0571C17.1265 21.5268 17.1069 21.2357 17.1336 21.0179C17.198 20.4939 17.4266 20.0037 17.7866 19.6176C17.9362 19.4571 18.1718 19.285 18.6715 19.0555C19.1845 18.8199 19.8681 18.57 20.8743 18.2038Z" fill="white"/>
</g>
<defs>
<linearGradient id="paint0_linear_287_5662" x1="18" y1="12.606" x2="18" y2="48.606" gradientUnits="userSpaceOnUse">
<stop stop-color="white" stop-opacity="0.5"/>
<stop offset="1" stop-color="white" stop-opacity="0.1"/>
</linearGradient>
<linearGradient id="paint1_linear_287_5662" x1="18" y1="12.606" x2="18" y2="48.606" gradientUnits="userSpaceOnUse">
<stop stop-color="white"/>
<stop offset="1" stop-color="white" stop-opacity="0.4"/>
</linearGradient>
<radialGradient id="paint2_radial_287_5662" cx="0" cy="0" r="1" gradientUnits="userSpaceOnUse" gradientTransform="translate(21.9637 27.783) rotate(-75.3758) scale(15.9498)">
<stop stop-color="#B13589"/>
<stop offset="0.79309" stop-color="#C62F94"/>
<stop offset="1" stop-color="#8A3AC8"/>
</radialGradient>
<radialGradient id="paint3_radial_287_5662" cx="0" cy="0" r="1" gradientUnits="userSpaceOnUse" gradientTransform="translate(23.0865 32.6952) rotate(-85.1363) scale(14.1214)">
<stop stop-color="#E0E8B7"/>
<stop offset="0.444662" stop-color="#FB8A2E"/>
<stop offset="0.71474" stop-color="#E2425C"/>
<stop offset="1" stop-color="#E2425C" stop-opacity="0"/>
</radialGradient>
<radialGradient id="paint4_radial_287_5662" cx="0" cy="0" r="1" gradientUnits="userSpaceOnUse" gradientTransform="translate(10.9109 18.3718) rotate(-28.1301) scale(23.8108 5.09287)">
<stop offset="0.156701" stop-color="#406ADC"/>
<stop offset="0.467799" stop-color="#6A45BE"/>
<stop offset="1" stop-color="#6A45BE" stop-opacity="0"/>
</radialGradient>
<clipPath id="clip0_287_5662">
<rect width="20" height="20" fill="white" transform="translate(10 16.8403) rotate(-20)"/>
</clipPath>
</defs>
</svg>
