<svg width="26" height="26" viewBox="0 0 26 26" fill="none" xmlns="http://www.w3.org/2000/svg">
<g clip-path="url(#clip0_287_5664)">
<path d="M14.5223 2.88438L5.12541 6.30458C3.17924 7.01293 2.17579 9.16484 2.88414 11.111L6.30434 20.5079C7.01269 22.4541 9.1646 23.4576 11.1108 22.7492L20.5077 19.329C22.4539 18.6207 23.4573 16.4687 22.749 14.5226L19.3288 5.12565C18.6204 3.17949 16.4685 2.17603 14.5223 2.88438Z" fill="url(#paint0_radial_287_5664)"/>
<path d="M14.5223 2.88438L5.12541 6.30458C3.17924 7.01293 2.17579 9.16484 2.88414 11.111L6.30434 20.5079C7.01269 22.4541 9.1646 23.4576 11.1108 22.7492L20.5077 19.329C22.4539 18.6207 23.4573 16.4687 22.749 14.5226L19.3288 5.12565C18.6204 3.17949 16.4685 2.17603 14.5223 2.88438Z" fill="url(#paint1_radial_287_5664)"/>
<path d="M14.2215 2.87562L5.01639 6.22602C3.10994 6.91991 2.12696 9.0279 2.82085 10.9344L6.17126 20.1395C6.86515 22.046 8.97314 23.0289 10.8796 22.335L20.0847 18.9846C21.9912 18.2907 22.9742 16.1828 22.2803 14.2763L18.9299 5.07115C18.236 3.1647 16.128 2.18173 14.2215 2.87562Z" fill="url(#paint2_radial_287_5664)"/>
<path d="M15.7544 8.08977C15.9315 8.5763 15.6807 9.1143 15.1941 9.29138C14.7076 9.46846 14.1696 9.21759 13.9925 8.73106C13.8154 8.24452 14.0663 7.70653 14.5528 7.52945C15.0394 7.35237 15.5774 7.60323 15.7544 8.08977Z" fill="white"/>
<path fill-rule="evenodd" clip-rule="evenodd" d="M13.8867 15.7537C15.5085 15.1634 16.3447 13.3702 15.7544 11.7484C15.1641 10.1266 13.3708 9.29037 11.749 9.88065C10.1272 10.4709 9.29103 12.2642 9.88131 13.886C10.4716 15.5078 12.2649 16.344 13.8867 15.7537ZM13.4591 14.5791C14.4323 14.2249 14.934 13.149 14.5798 12.1759C14.2256 11.2028 13.1497 10.7011 12.1766 11.0553C11.2035 11.4094 10.7017 12.4854 11.0559 13.4585C11.4101 14.4316 12.486 14.9333 13.4591 14.5791Z" fill="white"/>
<path fill-rule="evenodd" clip-rule="evenodd" d="M6.86071 14.7195C6.14241 12.7459 5.78324 11.7591 5.89297 10.8656C5.98948 10.0795 6.33235 9.34425 6.87244 8.76508C7.48642 8.10665 8.47322 7.74748 10.4467 7.02918L10.9166 6.85817C12.8901 6.13986 13.8769 5.7807 14.7705 5.89043C15.5565 5.98694 16.2918 6.3298 16.871 6.8699C17.5294 7.48388 17.8886 8.47067 18.6069 10.4442L18.7779 10.914C19.4962 12.8876 19.8554 13.8744 19.7456 14.7679C19.6491 15.554 19.3062 16.2893 18.7661 16.8684C18.1522 17.5269 17.1654 17.886 15.1918 18.6043L14.722 18.7753C12.7485 19.4936 11.7617 19.8528 10.8681 19.7431C10.0821 19.6466 9.34679 19.3037 8.76761 18.7636C8.10919 18.1496 7.75003 17.1628 7.03172 15.1893L6.86071 14.7195ZM10.8743 8.20379L11.3441 8.03278C12.3503 7.66657 13.0345 7.41856 13.579 7.26932C14.1093 7.12394 14.4004 7.10435 14.6182 7.13109C15.1422 7.19545 15.6323 7.42403 16.0185 7.78407C16.1789 7.93371 16.3511 8.16929 16.5806 8.66899C16.8162 9.18197 17.066 9.86555 17.4323 10.8717L17.6033 11.3416C17.9695 12.3477 18.2175 13.032 18.3667 13.5764C18.5121 14.1067 18.5317 14.3978 18.5049 14.6156C18.4406 15.1396 18.212 15.6298 17.852 16.0159C17.7023 16.1764 17.4668 16.3485 16.9671 16.578C16.4541 16.8136 15.7705 17.0635 14.7643 17.4297L14.2945 17.6007C13.2883 17.9669 12.604 18.2149 12.0596 18.3642C11.5293 18.5096 11.2382 18.5291 11.0204 18.5024C10.4964 18.438 10.0062 18.2095 9.62013 17.8494C9.45966 17.6998 9.28754 17.4642 9.05802 16.9645C8.8224 16.4515 8.57256 15.768 8.20634 14.7618L8.03533 14.2919C7.66911 13.2858 7.4211 12.6015 7.27186 12.0571C7.12649 11.5268 7.1069 11.2357 7.13364 11.0179C7.19799 10.4939 7.42657 10.0037 7.78661 9.61758C7.93625 9.45711 8.17184 9.285 8.67154 9.05547C9.18451 8.81985 9.8681 8.57001 10.8743 8.20379Z" fill="white"/>
</g>
<defs>
<radialGradient id="paint0_radial_287_5664" cx="0" cy="0" r="1" gradientUnits="userSpaceOnUse" gradientTransform="translate(11.9637 17.783) rotate(-75.3758) scale(15.9498)">
<stop stop-color="#B13589"/>
<stop offset="0.79309" stop-color="#C62F94"/>
<stop offset="1" stop-color="#8A3AC8"/>
</radialGradient>
<radialGradient id="paint1_radial_287_5664" cx="0" cy="0" r="1" gradientUnits="userSpaceOnUse" gradientTransform="translate(13.0865 22.6952) rotate(-85.1363) scale(14.1214)">
<stop stop-color="#E0E8B7"/>
<stop offset="0.444662" stop-color="#FB8A2E"/>
<stop offset="0.71474" stop-color="#E2425C"/>
<stop offset="1" stop-color="#E2425C" stop-opacity="0"/>
</radialGradient>
<radialGradient id="paint2_radial_287_5664" cx="0" cy="0" r="1" gradientUnits="userSpaceOnUse" gradientTransform="translate(0.91087 8.37184) rotate(-28.1301) scale(23.8108 5.09287)">
<stop offset="0.156701" stop-color="#406ADC"/>
<stop offset="0.467799" stop-color="#6A45BE"/>
<stop offset="1" stop-color="#6A45BE" stop-opacity="0"/>
</radialGradient>
<clipPath id="clip0_287_5664">
<rect width="20" height="20" fill="white" transform="translate(0 6.84033) rotate(-20)"/>
</clipPath>
</defs>
</svg>
