<svg width="15" height="15" viewBox="0 0 15 15" fill="none" xmlns="http://www.w3.org/2000/svg">
<path fill-rule="evenodd" clip-rule="evenodd" d="M1.86071 9.71945C1.14241 7.74592 0.783244 6.75913 0.892969 5.86556C0.989478 5.07954 1.33235 4.34425 1.87244 3.76508C2.48642 3.10665 3.47322 2.74748 5.44675 2.02918L5.91659 1.85817C7.89013 1.13986 8.87692 0.780698 9.77046 0.890431C10.5565 0.986936 11.2918 1.3298 11.871 1.8699C12.5294 2.48388 12.8886 3.47067 13.6069 5.4442L13.7779 5.91405C14.4962 7.88758 14.8554 8.87437 14.7456 9.76793C14.6491 10.554 14.3062 11.2893 13.7661 11.8684C13.1522 12.5269 12.1654 12.886 10.1918 13.6043L9.722 13.7753C7.74847 14.4936 6.76168 14.8528 5.8681 14.7431C5.08209 14.6466 4.34679 14.3037 3.76761 13.7636C3.10919 13.1496 2.75003 12.1628 2.03172 10.1893L1.86071 9.71945ZM5.87427 3.20379L6.34412 3.03278C7.3503 2.66657 8.03455 2.41856 8.57896 2.26932C9.10929 2.12394 9.40039 2.10435 9.61817 2.13109C10.1422 2.19545 10.6323 2.42403 11.0185 2.78407C11.1789 2.93371 11.3511 3.16929 11.5806 3.66899C11.8162 4.18197 12.066 4.86555 12.4323 5.87173L12.6033 6.34157C12.9695 7.34775 13.2175 8.03201 13.3667 8.57642C13.5121 9.10673 13.5317 9.39785 13.5049 9.61563C13.4406 10.1396 13.212 10.6298 12.852 11.0159C12.7023 11.1764 12.4668 11.3485 11.9671 11.578C11.4541 11.8136 10.7705 12.0635 9.76432 12.4297L9.29448 12.6007C8.2883 12.9669 7.60404 13.2149 7.05963 13.3642C6.52932 13.5096 6.2382 13.5291 6.02042 13.5024C5.49642 13.438 5.00624 13.2095 4.62013 12.8494C4.45966 12.6998 4.28754 12.4642 4.05802 11.9645C3.8224 11.4515 3.57256 10.768 3.20634 9.76177L3.03533 9.29193C2.66911 8.28575 2.4211 7.6015 2.27186 7.05708C2.12649 6.52676 2.1069 6.23565 2.13364 6.01788C2.19799 5.49388 2.42657 5.00369 2.78661 4.61758C2.93625 4.45711 3.17184 4.285 3.67154 4.05547C4.18451 3.81985 4.8681 3.57001 5.87427 3.20379Z" fill="white"/>
</svg>
