<svg width="23" height="23" viewBox="0 0 23 23" fill="none" xmlns="http://www.w3.org/2000/svg">
<g clip-path="url(#clip0_358_2116)">
<path d="M20.3292 9.02009V8.56518C20.3292 7.71995 20.3292 7.29734 20.2732 6.94373C19.9649 4.9972 18.4382 3.47057 16.4918 3.16227C16.1381 3.10626 15.7155 3.10626 14.8703 3.10626H9.41137C6.86364 3.10626 5.58977 3.10626 4.61667 3.60209C3.7607 4.03822 3.06477 4.73415 2.62864 5.59012C2.13281 6.56322 2.13281 7.83709 2.13281 10.3848V12.2045C2.13281 14.7522 2.13281 16.0261 2.62864 16.9992C3.06477 17.8552 3.7607 18.5511 4.61667 18.9872C5.58977 19.483 6.86364 19.483 9.41137 19.483H14.8703C15.7155 19.483 16.1381 19.483 16.4918 19.427C18.4382 19.1187 19.9649 17.592 20.2732 15.6456C20.3292 15.2919 20.3292 14.8693 20.3292 14.0241V13.5692M16.6899 7.65536L15.7801 8.26191L15.2684 8.60303C13.8093 9.57581 13.0797 10.0622 12.2911 10.2512C11.5942 10.4181 10.8678 10.4181 10.1709 10.2512C9.38233 10.0622 8.65274 9.57581 7.19359 8.60303L6.68191 8.26191L5.77209 7.65536" stroke="white" stroke-width="1.36473" stroke-linecap="round"/>
</g>
<defs>
<clipPath id="clip0_358_2116">
<rect width="21.8357" height="21.8357" fill="white" transform="translate(0.3125 0.37677)"/>
</clipPath>
</defs>
</svg>
