<svg width="155" height="55" viewBox="0 0 155 55" fill="none" xmlns="http://www.w3.org/2000/svg">
<rect y="18.4092" width="151.058" height="36" rx="18" transform="rotate(-7 0 18.4092)" fill="url(#paint0_linear_287_5615)" fill-opacity="0.1"/>
<rect x="0.559639" y="18.8464" width="150.053" height="34.9956" rx="17.4978" transform="rotate(-7 0.559639 18.8464)" stroke="url(#paint1_linear_287_5615)" stroke-opacity="0.1" stroke-width="1.00436"/>
<g clip-path="url(#clip0_287_5615)">
<path d="M27.8292 28.7435C27.9476 28.8321 28.056 29.0098 28.1449 29.3054C28.3042 29.3224 28.4285 29.3545 28.5223 29.3983C28.7293 29.4947 29.1383 29.6672 29.1683 29.9117C29.1976 30.1503 28.9798 30.3798 28.3249 30.5291C28.3385 31.2006 28.1722 31.467 27.9332 31.4964C27.8473 31.5069 27.3914 31.28 27.2885 31.2077C27.1662 31.1211 27.0536 30.9424 26.9627 30.6399C26.8114 30.6239 26.6918 30.5934 26.5999 30.5528C26.3891 30.4591 25.9687 30.276 25.9386 30.0307C25.9097 29.7954 26.1278 29.5659 26.7824 29.4167C26.7688 28.7451 26.9387 28.4783 27.1773 28.449C27.2618 28.4386 27.7299 28.6696 27.8292 28.7435Z" fill="#00034A" stroke="#00034A" stroke-width="0.376636" stroke-miterlimit="10" stroke-linecap="round"/>
<path d="M24.6723 26.4763C24.4833 26.4995 24.3395 26.7127 24.3571 27.239C23.8327 27.3576 23.6705 27.5403 23.6937 27.7293C23.7218 27.9583 24.2961 28.2184 24.5126 28.2539C24.5733 28.442 24.6442 28.563 24.7216 28.6329C24.8091 28.7117 25.2771 28.9453 25.356 28.9356C25.5487 28.9119 25.6887 28.6954 25.6716 28.1729C26.1753 28.0606 26.3587 27.8752 26.335 27.6826C26.3068 27.4528 25.7332 27.1923 25.5157 27.1577C25.4367 26.9127 25.3383 26.7815 25.2329 26.7291C25.1048 26.6658 24.7831 26.4627 24.6727 26.4763L24.6723 26.4763Z" fill="#00034A" stroke="#00034A" stroke-width="0.376636" stroke-miterlimit="10" stroke-linecap="round"/>
<path d="M27.6438 26.3863C27.6151 26.1519 27.7817 25.9391 28.0157 25.9104C28.2823 25.8776 28.7106 26.1369 28.744 26.4087C28.7727 26.643 28.6061 26.8559 28.3721 26.8846C28.1055 26.9174 27.6772 26.658 27.6438 26.3863Z" fill="#00034A" stroke="#00034A" stroke-width="0.376636" stroke-miterlimit="10" stroke-linecap="round"/>
<path d="M22.8948 29.2604C22.4385 29.2874 20.8096 30.1972 19.4977 31.0672C18.1859 31.9376 16.7261 33.076 16.5372 33.4828C16.1884 34.177 16.777 35.4362 17.3936 36.3594C17.9301 37.1632 19.0937 38.6537 20.2348 38.5896C20.6915 38.5662 22.3168 37.6573 23.6323 36.7865C24.9475 35.9156 26.4106 34.7735 26.6098 34.3616C26.945 33.6729 26.3526 32.4175 25.7397 31.4904C25.2017 30.6775 24.0413 29.2001 22.8948 29.2604Z" fill="#00034A" stroke="#00034A" stroke-width="0.376636" stroke-miterlimit="10"/>
<path d="M26.0775 34.0483C26.4126 33.3595 25.8203 32.1041 25.2073 31.1767C24.5941 30.2497 23.6677 29.22 22.8948 29.2604C22.4385 29.2874 20.8096 30.1972 19.4977 31.0672C18.1859 31.9376 16.7261 33.076 16.5372 33.4828C16.1884 34.1771 16.777 35.4362 17.3936 36.3594C18.0098 37.2823 18.9405 38.319 19.7025 38.2762C20.1592 38.2528 21.7844 37.3436 23.1 36.4731C24.4152 35.6022 25.8783 34.4601 26.0771 34.0483L26.0775 34.0483Z" fill="#9BFF00" stroke="#00034A" stroke-width="0.376636" stroke-miterlimit="10"/>
<path d="M22.0752 30.9934C22.4175 31.4472 23.042 31.579 23.5386 31.3023C23.9316 31.7008 24.2449 32.1708 24.4616 32.687C24.0042 33.0373 23.8805 33.674 24.1735 34.17C23.0234 35.064 21.8038 35.8647 20.5263 36.5646C20.1811 36.0997 19.5419 35.9679 19.041 36.2584C18.6465 35.8654 18.3416 35.3918 18.1469 34.8701C18.6029 34.5189 18.7251 33.8826 18.4316 33.3875C19.5802 32.4934 20.7986 31.6928 22.0752 30.9934Z" fill="white" stroke="#00034A" stroke-width="0.376636" stroke-linecap="round" stroke-linejoin="round"/>
<path d="M21.442 34.9431C22.3469 34.8483 22.8098 33.8094 22.2752 33.0732C22.0183 32.7194 21.587 32.5363 21.154 32.5973C20.2531 32.7242 19.8274 33.7788 20.3877 34.4956C20.6386 34.8164 21.037 34.9855 21.442 34.9431Z" fill="#9BFF00" stroke="#00034A" stroke-width="0.376636" stroke-miterlimit="10"/>
<path d="M27.4685 32.4189C25.6626 32.6406 25.12 33.4933 25.0516 33.601C25.0487 33.6051 25.0469 33.6087 25.0452 33.6104C24.8637 33.8968 24.9282 35.0435 25.0481 36.0202C25.1681 36.9973 25.3829 38.1252 25.6286 38.3591L25.6325 38.3627C26.4228 39.1446 27.629 39.3351 28.6899 39.2048C30.4969 38.9829 31.0394 38.1325 31.1072 38.026C31.1092 38.0229 31.1114 38.0199 31.1136 38.0169C31.2954 37.7302 31.2306 36.5839 31.1107 35.6072C30.9907 34.6301 30.7776 33.5129 30.5301 33.2679L30.5263 33.2643C29.7366 32.4812 28.5301 32.2885 27.4685 32.4189Z" fill="#00034A" stroke="#00034A" stroke-width="0.376636" stroke-miterlimit="10"/>
<path d="M30.1081 32.9888C30.071 32.9535 29.3512 32.1877 27.4685 32.4189C25.5863 32.65 25.0764 33.5667 25.0456 33.6104C24.8638 33.8967 24.9282 35.0435 25.0481 36.0202C25.1681 36.9973 25.383 38.1252 25.6287 38.359C25.6657 38.3944 26.3852 39.1564 28.2674 38.9253C30.1497 38.6942 30.6604 37.7811 30.6911 37.7374C30.873 37.4511 30.8086 36.3047 30.6886 35.3276C30.5687 34.3509 30.3551 33.2334 30.1081 32.9888Z" fill="white" stroke="#00034A" stroke-width="0.376636" stroke-miterlimit="10"/>
<path d="M29.9329 33.879C29.5797 34.3349 28.861 34.6691 27.7627 34.804C26.6649 34.9388 25.8863 34.7884 25.4336 34.4318" stroke="#00034A" stroke-width="0.376636" stroke-miterlimit="10" stroke-linecap="round"/>
<path d="M30.1204 35.3978C29.7672 35.8537 29.0485 36.1879 27.9502 36.3228C26.8524 36.4576 26.072 36.2931 25.6211 35.9506" stroke="#00034A" stroke-width="0.376636" stroke-miterlimit="10" stroke-linecap="round"/>
<path d="M30.2766 36.699C29.9234 37.155 29.2047 37.4892 28.1065 37.6241C27.0086 37.7589 26.23 37.6085 25.7773 37.2515" stroke="#00034A" stroke-width="0.376636" stroke-miterlimit="10" stroke-linecap="round"/>
<path d="M27.6668 33.9944C28.3008 33.9166 28.7912 33.6589 28.7617 33.4184C28.7322 33.1783 28.194 33.0466 27.56 33.1244C26.9264 33.2022 26.436 33.4603 26.4655 33.7004C26.495 33.9409 27.0328 34.0723 27.6668 33.9944Z" fill="white" stroke="#00034A" stroke-width="0.376636" stroke-miterlimit="10"/>
<path d="M28.7586 29.6844C28.7297 29.4492 28.4629 29.2792 27.7913 29.2928C27.6421 28.6379 27.4163 28.4196 27.1777 28.4489C26.9387 28.4783 26.7688 28.7452 26.7824 29.4167C26.1275 29.5659 25.9097 29.7954 25.9386 30.0307C25.9674 30.2659 26.2351 30.4392 26.9063 30.4257C27.0555 31.0806 27.285 31.2984 27.5236 31.2691C27.7626 31.2397 27.9289 30.9733 27.9152 30.3018C28.5701 30.1525 28.7879 29.9231 28.7586 29.6844Z" fill="#9BFF00" stroke="#00034A" stroke-width="0.376636" stroke-miterlimit="10"/>
<path d="M25.9254 27.4553C25.9022 27.2663 25.6889 27.1225 25.163 27.1401C25.0444 26.6153 24.8616 26.453 24.6727 26.4763C24.4837 26.4995 24.3395 26.7127 24.3571 27.239C23.8327 27.3576 23.6705 27.5403 23.6937 27.7293C23.7169 27.9183 23.9338 28.0616 24.456 28.0445C24.575 28.5693 24.7541 28.732 24.9467 28.7083C25.1394 28.6847 25.2791 28.4681 25.2619 27.9456C25.7657 27.8333 25.949 27.648 25.9254 27.4553Z" fill="#9BFF00" stroke="#00034A" stroke-width="0.376636" stroke-miterlimit="10"/>
<path d="M28.1204 26.7581C28.4468 26.718 28.6073 26.3397 28.4095 26.0771C28.3176 25.9553 28.1678 25.8917 28.0163 25.9103C27.69 25.9503 27.5294 26.3286 27.7273 26.5912C27.8191 26.7131 27.969 26.7767 28.1204 26.7581Z" fill="#9BFF00" stroke="#00034A" stroke-width="0.376636" stroke-miterlimit="10" stroke-linecap="round"/>
</g>
<path d="M40.6627 36.0855L39.5055 26.6605L42.865 26.248C43.5983 26.158 44.2221 26.2169 44.7366 26.4246C45.251 26.6324 45.6563 26.9532 45.9525 27.3871C46.2484 27.818 46.4317 28.3218 46.5025 28.8986C46.5737 29.4784 46.5165 30.0149 46.331 30.5079C46.1482 30.9975 45.831 31.407 45.3794 31.7365C44.9305 32.0626 44.341 32.2705 43.6108 32.3601L41.3006 32.6438L41.1525 31.438L43.3339 31.1702C43.7972 31.1133 44.1632 30.9874 44.432 30.7925C44.7004 30.5944 44.885 30.3475 44.9857 30.0518C45.0864 29.756 45.1149 29.4302 45.0712 29.0743C45.0275 28.7184 44.9213 28.4107 44.7524 28.1511C44.5835 27.8916 44.3437 27.7015 44.033 27.5808C43.7254 27.4597 43.3353 27.4282 42.8629 27.4862L41.0773 27.7055L42.0848 35.9109L40.6627 36.0855ZM50.8548 34.9929C50.4069 35.0479 49.9917 35.0148 49.6093 34.8936C49.2266 34.7693 48.9098 34.5606 48.6589 34.2675C48.4111 33.9741 48.2588 33.5957 48.2019 33.1324C48.1529 32.7336 48.1893 32.3959 48.3111 32.1193C48.4328 31.8428 48.6149 31.6133 48.8572 31.431C49.0995 31.2486 49.377 31.0993 49.6898 30.9831C50.0025 30.8668 50.3236 30.7682 50.6531 30.6873C51.0705 30.5862 51.4092 30.5041 51.6693 30.441C51.929 30.3749 52.1142 30.2977 52.2248 30.2093C52.3354 30.121 52.3805 29.994 52.3602 29.8283L52.3562 29.7961C52.3069 29.3942 52.1551 29.0967 51.901 28.9037C51.6499 28.7103 51.3019 28.6409 50.857 28.6956C50.3938 28.7524 50.0413 28.9 49.7996 29.1384C49.5606 29.3733 49.4058 29.6212 49.335 29.8821L48.0057 29.7464C48.1063 29.298 48.2877 28.9238 48.5499 28.6238C48.8147 28.3203 49.1331 28.0851 49.5049 27.9179C49.8764 27.7478 50.2754 27.6365 50.7019 27.5841C50.9841 27.5495 51.2874 27.5465 51.6117 27.5752C51.9387 27.6004 52.251 27.6835 52.5486 27.8245C52.8493 27.9651 53.1085 28.1871 53.3264 28.4905C53.5439 28.7907 53.6843 29.1986 53.7476 29.714L54.324 34.4081L52.9802 34.5731L52.8615 33.6067L52.8063 33.6135C52.7391 33.8024 52.6272 33.9936 52.4703 34.1873C52.3134 34.3809 52.1024 34.5517 51.8371 34.6995C51.5719 34.8473 51.2444 34.9451 50.8548 34.9929ZM51.0183 33.8517C51.3988 33.805 51.7147 33.6899 51.9663 33.5064C52.2209 33.3226 52.4039 33.1008 52.5152 32.8411C52.6293 32.5779 52.6692 32.3067 52.6349 32.0276L52.523 31.1163C52.4799 31.1715 52.3905 31.2292 52.2546 31.2894C52.1215 31.3463 51.9678 31.401 51.7936 31.4535C51.6191 31.503 51.4489 31.5503 51.2832 31.5956C51.1171 31.6378 50.9782 31.6735 50.8666 31.7028C50.6038 31.7693 50.3669 31.856 50.1558 31.9629C49.9477 32.0694 49.787 32.2059 49.6735 32.3725C49.5627 32.5356 49.5224 32.7398 49.5525 32.9853C49.5944 33.3258 49.7518 33.5681 50.0248 33.7121C50.2975 33.853 50.6287 33.8995 51.0183 33.8517ZM56.1567 34.1831L55.2888 27.1143L56.6648 26.9454L57.5327 34.0142L56.1567 34.1831ZM55.8498 25.9383C55.6105 25.9677 55.3951 25.9132 55.2037 25.7747C55.015 25.6329 54.9069 25.4499 54.8794 25.226C54.8515 24.9989 54.9122 24.7953 55.0613 24.615C55.2132 24.4313 55.4087 24.3248 55.6481 24.2954C55.8874 24.266 56.1014 24.3223 56.2901 24.4641C56.4815 24.6026 56.5911 24.7853 56.619 25.0124C56.6465 25.2363 56.5843 25.4402 56.4325 25.6239C56.2833 25.8041 56.0891 25.9089 55.8498 25.9383ZM62.0471 33.6C61.4764 33.6701 60.9492 33.5869 60.4655 33.3504C59.9845 33.1105 59.5833 32.7347 59.262 32.2229C58.9433 31.7077 58.7371 31.0681 58.6433 30.3041C58.5495 29.5402 58.5966 28.8711 58.7846 28.2968C58.9756 27.7221 59.2774 27.263 59.6899 26.9196C60.1024 26.5762 60.5925 26.3697 61.1601 26.3C61.5988 26.2461 61.9607 26.2765 62.2457 26.3909C62.5334 26.502 62.7627 26.6451 62.9337 26.8203C63.1078 26.9952 63.2453 27.1511 63.3462 27.2882L63.429 27.278L62.999 23.7759L64.375 23.6069L65.5323 33.0319L64.1885 33.1969L64.0534 32.097L63.9384 32.1112C63.874 32.2717 63.7754 32.4582 63.6427 32.6707C63.513 32.8828 63.3221 33.0775 63.0698 33.2549C62.8175 33.4322 62.4766 33.5473 62.0471 33.6ZM62.2067 32.3892C62.6025 32.3406 62.9241 32.1952 63.1715 31.9531C63.4217 31.7075 63.5943 31.3889 63.6895 30.9972C63.7877 30.6052 63.8063 30.1607 63.7453 29.6637C63.685 29.1728 63.5617 28.7519 63.3754 28.4011C63.1891 28.0503 62.9467 27.7888 62.6484 27.6168C62.3501 27.4448 62 27.3834 61.5981 27.4328C61.1839 27.4836 60.852 27.6334 60.6022 27.8821C60.3525 28.1307 60.1798 28.4493 60.0843 28.8379C59.9918 29.2261 59.9742 29.6533 60.0314 30.1197C60.0894 30.5922 60.2122 31.0084 60.3997 31.3685C60.5871 31.7285 60.8325 32.002 61.1357 32.189C61.4417 32.3726 61.7987 32.4393 62.2067 32.3892ZM71.8325 32.2584L70.323 32.4437L72.5575 22.6022L74.2004 22.4005L78.7494 31.4091L77.2399 31.5944L73.6283 24.2085L73.5546 24.2176L71.8325 32.2584ZM71.6324 28.5364L76.529 27.9352L76.6759 29.1317L71.7793 29.733L71.6324 28.5364ZM82.5492 31.0827C81.9786 31.1527 81.4514 31.0695 80.9677 30.8331C80.4866 30.5932 80.0855 30.2173 79.7641 29.7055C79.4455 29.1903 79.2393 28.5507 79.1455 27.7868C79.0517 27.0228 79.0988 26.3537 79.2867 25.7794C79.4778 25.2047 79.7796 24.7457 80.1921 24.4023C80.6046 24.0589 81.0947 23.8523 81.6623 23.7827C82.101 23.7288 82.4629 23.7591 82.7479 23.8736C83.0355 23.9846 83.2649 24.1278 83.4359 24.303C83.61 24.4778 83.7474 24.6338 83.8484 24.7709L83.9312 24.7607L83.5012 21.2585L84.8772 21.0896L86.0345 30.5146L84.6907 30.6796L84.5556 29.5797L84.4406 29.5938C84.3762 29.7543 84.2776 29.9408 84.1449 30.1533C84.0152 30.3654 83.8242 30.5602 83.572 30.7375C83.3197 30.9149 82.9788 31.0299 82.5492 31.0827ZM82.7089 29.8718C83.1047 29.8232 83.4263 29.6779 83.6737 29.4357C83.9238 29.1901 84.0965 28.8715 84.1917 28.4799C84.2899 28.0879 84.3085 27.6434 84.2475 27.1463C84.1872 26.6554 84.0639 26.2346 83.8776 25.8837C83.6912 25.5329 83.4489 25.2715 83.1506 25.0994C82.8523 24.9274 82.5022 24.8661 82.1003 24.9154C81.6861 24.9663 81.3542 25.116 81.1044 25.3647C80.8546 25.6134 80.682 25.932 80.5865 26.3205C80.494 26.7087 80.4764 27.136 80.5336 27.6023C80.5916 28.0748 80.7144 28.4911 80.9018 28.8511C81.0893 29.2112 81.3347 29.4847 81.6379 29.6717C81.9438 29.8552 82.3008 29.9219 82.7089 29.8718ZM93.1776 22.4622L91.4821 29.8457L90.0095 30.0265L86.5736 23.273L88.0509 23.0917L90.509 28.3115L90.5826 28.3025L91.7003 22.6436L93.1776 22.4622ZM98.1623 29.1703C97.4659 29.2558 96.8478 29.1806 96.3081 28.9448C95.7711 28.7056 95.3327 28.3312 94.993 27.8217C94.6559 27.3087 94.4424 26.6856 94.3524 25.9523C94.2635 25.2283 94.3201 24.5735 94.5223 23.9881C94.7275 23.4024 95.055 22.9246 95.5048 22.5548C95.9576 22.1847 96.5123 21.9593 97.1689 21.8787C97.5677 21.8297 97.9624 21.8482 98.3529 21.9342C98.7434 22.0201 99.1048 22.186 99.4371 22.4317C99.7693 22.6774 100.049 23.0152 100.276 23.4451C100.503 23.872 100.656 24.406 100.735 25.0472L100.794 25.535L95.1753 26.225L95.0487 25.1941L99.3194 24.6698C99.275 24.3077 99.162 23.9962 98.9805 23.735C98.7985 23.4709 98.5641 23.2739 98.2772 23.144C97.9934 23.0138 97.6736 22.9706 97.3177 23.0143C96.9311 23.0617 96.6053 23.1983 96.3403 23.4239C96.0779 23.6461 95.8871 23.9187 95.768 24.2416C95.6515 24.5611 95.6149 24.8973 95.6582 25.2501L95.7571 26.0555C95.8151 26.5279 95.9473 26.9197 96.1537 27.2307C96.3631 27.5413 96.6289 27.7656 96.951 27.9036C97.2728 28.0385 97.6346 28.0812 98.0365 28.0319C98.2973 27.9999 98.5306 27.9339 98.7363 27.8338C98.9416 27.7308 99.1133 27.5945 99.2513 27.4249C99.3893 27.2554 99.4862 27.0551 99.5419 26.824L100.873 26.8988C100.816 27.2951 100.67 27.654 100.435 27.9756C100.204 28.2937 99.8949 28.5574 99.5095 28.7666C99.1268 28.9724 98.6777 29.107 98.1623 29.1703ZM102.704 28.4678L101.836 21.399L103.166 21.2357L103.304 22.3586L103.378 22.3496C103.46 21.9533 103.65 21.6263 103.949 21.3685C104.25 21.1073 104.608 20.9513 105.022 20.9005C105.108 20.8899 105.209 20.8805 105.327 20.8724C105.447 20.8638 105.542 20.86 105.61 20.8609L105.772 22.1771C105.715 22.1685 105.614 22.1637 105.471 22.1626C105.327 22.1585 105.185 22.1651 105.044 22.1824C104.718 22.2223 104.437 22.327 104.199 22.4963C103.964 22.6622 103.788 22.8754 103.671 23.1358C103.553 23.3932 103.513 23.6753 103.55 23.9821L104.08 28.2988L102.704 28.4678ZM110.527 20.3319L110.663 21.4364L106.802 21.9105L106.666 20.806L110.527 20.3319ZM107.494 18.9853L108.87 18.8163L109.691 25.5031C109.724 25.7701 109.788 25.9661 109.884 26.0913C109.98 26.2134 110.094 26.2913 110.226 26.325C110.361 26.3552 110.503 26.361 110.653 26.3426C110.764 26.329 110.86 26.3095 110.94 26.284C111.021 26.2585 111.084 26.2383 111.129 26.2234L111.517 27.3296C111.441 27.3701 111.332 27.4147 111.188 27.4635C111.045 27.5153 110.863 27.5563 110.643 27.5865C110.281 27.6371 109.936 27.6141 109.606 27.5175C109.277 27.421 108.998 27.2434 108.77 26.9849C108.542 26.7264 108.402 26.3839 108.35 25.9574L107.494 18.9853ZM112.917 27.2138L112.049 20.145L113.425 19.9761L114.293 27.0448L112.917 27.2138ZM112.61 18.969C112.371 18.9984 112.156 18.9438 111.964 18.8054C111.776 18.6635 111.668 18.4806 111.64 18.2566C111.612 18.0296 111.673 17.8259 111.822 17.6457C111.974 17.462 112.169 17.3554 112.409 17.3261C112.648 17.2967 112.862 17.3529 113.051 17.4948C113.242 17.6333 113.352 17.816 113.38 18.043C113.407 18.267 113.345 18.4708 113.193 18.6545C113.044 18.8348 112.85 18.9396 112.61 18.969ZM120.786 20.8241L119.565 21.1982C119.494 21.045 119.392 20.9033 119.261 20.7731C119.133 20.6424 118.968 20.5428 118.767 20.4741C118.565 20.4054 118.322 20.3886 118.036 20.4236C117.647 20.4715 117.332 20.5988 117.093 20.8057C116.853 21.0096 116.75 21.248 116.784 21.5211C116.813 21.7573 116.923 21.9368 117.116 22.0595C117.309 22.1822 117.605 22.2657 118.006 22.3099L119.161 22.4297C119.83 22.5002 120.343 22.6723 120.7 22.9461C121.058 23.2199 121.267 23.6068 121.329 24.1069C121.381 24.5303 121.304 24.9227 121.1 25.2842C120.898 25.6422 120.59 25.9416 120.177 26.1822C119.768 26.4225 119.278 26.5776 118.707 26.6477C117.915 26.7449 117.249 26.6555 116.707 26.3794C116.166 26.1002 115.799 25.6547 115.609 25.0427L116.914 24.6769C117.04 25.0135 117.242 25.2549 117.522 25.4012C117.801 25.5444 118.147 25.5906 118.562 25.5397C119.013 25.4844 119.362 25.3465 119.609 25.1262C119.855 24.9029 119.962 24.6546 119.928 24.3816C119.901 24.1607 119.796 23.9852 119.611 23.8553C119.43 23.7249 119.166 23.6421 118.82 23.6068L117.591 23.4914C116.913 23.4221 116.395 23.2427 116.039 22.9532C115.686 22.6633 115.478 22.2668 115.417 21.7637C115.365 21.3464 115.437 20.967 115.632 20.6254C115.827 20.2838 116.119 20.0004 116.508 19.775C116.898 19.5466 117.358 19.3998 117.889 19.3346C118.652 19.2408 119.274 19.3327 119.754 19.6101C120.233 19.8846 120.577 20.2892 120.786 20.8241ZM123.093 25.9644L122.225 18.8957L123.601 18.7267L124.469 25.7955L123.093 25.9644ZM122.786 17.7196C122.546 17.749 122.331 17.6945 122.14 17.5561C121.951 17.4142 121.843 17.2312 121.815 17.0073C121.787 16.7802 121.848 16.5766 121.997 16.3963C122.149 16.2126 122.345 16.1061 122.584 16.0767C122.823 16.0473 123.037 16.1036 123.226 16.2455C123.417 16.3839 123.527 16.5666 123.555 16.7937C123.582 17.0176 123.52 17.2215 123.368 17.4052C123.219 17.5854 123.025 17.6903 122.786 17.7196ZM127.18 21.2021L127.696 25.3992L126.32 25.5682L125.452 18.4994L126.773 18.3372L126.914 19.4877L127.001 19.477C127.118 19.0827 127.336 18.7508 127.655 18.4812C127.976 18.2112 128.403 18.0437 128.933 17.9785C129.415 17.9193 129.849 17.9688 130.236 18.1268C130.623 18.2818 130.94 18.5449 131.188 18.9162C131.436 19.2875 131.596 19.7646 131.668 20.3475L132.22 24.8438L130.844 25.0127L130.312 20.6822C130.249 20.1698 130.066 19.7858 129.764 19.5302C129.461 19.2715 129.077 19.1708 128.61 19.2281C128.291 19.2672 128.016 19.3711 127.784 19.5397C127.556 19.7079 127.386 19.9343 127.275 20.2189C127.166 20.5001 127.134 20.8278 127.18 21.2021ZM137.372 27.0513C136.811 27.1203 136.319 27.106 135.896 27.0084C135.476 26.9105 135.123 26.756 134.839 26.5449C134.555 26.3338 134.332 26.0917 134.171 25.8188L135.293 25.1858C135.393 25.3106 135.521 25.4397 135.677 25.5731C135.837 25.7091 136.043 25.8162 136.296 25.8942C136.551 25.9718 136.869 25.9872 137.25 25.9405C137.771 25.8765 138.187 25.6962 138.496 25.3998C138.806 25.1064 138.927 24.6836 138.859 24.1313L138.688 22.7415L138.601 22.7522C138.537 22.9127 138.437 23.0946 138.304 23.2979C138.173 23.5008 137.981 23.6864 137.727 23.8545C137.474 24.0227 137.131 24.1333 136.698 24.1864C136.14 24.255 135.621 24.1864 135.141 23.9806C134.663 23.7714 134.263 23.4266 133.939 22.9462C133.618 22.4624 133.412 21.8447 133.319 21.093C133.227 20.3414 133.275 19.6814 133.464 19.1133C133.656 18.5447 133.958 18.0903 134.371 17.75C134.784 17.4066 135.274 17.2 135.841 17.1303C136.28 17.0765 136.643 17.1066 136.931 17.2207C137.219 17.3317 137.45 17.4747 137.624 17.6495C137.801 17.824 137.94 17.9797 138.041 18.1168L138.142 18.1044L138.002 16.9585L139.35 16.7929L140.237 24.0182C140.312 24.6256 140.232 25.1415 139.997 25.5658C139.763 25.9901 139.416 26.3254 138.958 26.5717C138.502 26.8176 137.974 26.9775 137.372 27.0513ZM136.862 23.0078C137.258 22.9592 137.581 22.8261 137.831 22.6085C138.084 22.3874 138.26 22.0949 138.359 21.7309C138.46 21.3634 138.481 20.9358 138.421 20.448C138.362 19.9724 138.24 19.5623 138.055 19.2176C137.869 18.8729 137.627 18.6161 137.33 18.4471C137.031 18.2751 136.681 18.2137 136.279 18.2631C135.865 18.3139 135.533 18.4637 135.283 18.7124C135.033 18.958 134.86 19.272 134.764 19.6544C134.67 20.0365 134.652 20.453 134.707 20.904C134.764 21.3673 134.884 21.7651 135.068 22.0975C135.252 22.43 135.495 22.6774 135.795 22.8399C136.098 23.0019 136.454 23.0579 136.862 23.0078Z" fill="#E5E5E7"/>
<defs>
<linearGradient id="paint0_linear_287_5615" x1="75.5288" y1="18.4092" x2="75.5288" y2="54.4092" gradientUnits="userSpaceOnUse">
<stop stop-color="white" stop-opacity="0.5"/>
<stop offset="1" stop-color="white" stop-opacity="0.1"/>
</linearGradient>
<linearGradient id="paint1_linear_287_5615" x1="75.5288" y1="18.4092" x2="75.5288" y2="54.4092" gradientUnits="userSpaceOnUse">
<stop stop-color="white"/>
<stop offset="1" stop-color="white" stop-opacity="0.4"/>
</linearGradient>
<clipPath id="clip0_287_5615">
<rect width="15.0655" height="15.0655" fill="white" transform="translate(15.168 26.5872) rotate(-7)"/>
</clipPath>
</defs>
</svg>
