<svg width="183" height="10" viewBox="0 0 183 10" fill="none" xmlns="http://www.w3.org/2000/svg">
<path d="M6.32783 2.69078C6.32783 3.66675 5.52557 4.4579 4.53599 4.4579C3.54641 4.4579 2.74414 3.66675 2.74414 2.69078C2.74414 1.71473 3.54641 0.923584 4.53599 0.923584C5.52557 0.923584 6.32783 1.71473 6.32783 2.69078Z" fill="#6F7988" stroke="#6F7988" stroke-width="0.97874" stroke-linecap="round" stroke-linejoin="round"/>
<path d="M1.69572 8.8073H7.37718C8.00677 8.8073 8.49171 8.27339 8.19772 7.7244C7.7652 6.9167 6.77926 5.95264 4.53645 5.95264C2.29364 5.95264 1.3077 6.9167 0.875178 7.7244C0.581181 8.27339 1.06613 8.8073 1.69572 8.8073Z" fill="#6F7988" stroke="#6F7988" stroke-width="0.97874" stroke-linecap="round" stroke-linejoin="round"/>
<path d="M55.3333 2.41846H17.2915C15.9213 2.41846 14.8105 3.51395 14.8105 4.86531C14.8105 6.21667 15.9213 7.31216 17.2915 7.31216H55.3333C56.7035 7.31216 57.8143 6.21667 57.8143 4.86531C57.8143 3.51395 56.7035 2.41846 55.3333 2.41846Z" fill="white" fill-opacity="0.5"/>
<path d="M149.621 5.30353L153.545 0.92334V4.42748H156.095L151.891 8.80767V5.30353H149.621Z" fill="url(#paint0_linear_358_2631)"/>
<path d="M180.219 2.4187H164.506C163.136 2.4187 162.025 3.51419 162.025 4.86555C162.025 6.21691 163.136 7.3124 164.506 7.3124H180.219C181.589 7.3124 182.7 6.21691 182.7 4.86555C182.7 3.51419 181.589 2.4187 180.219 2.4187Z" fill="url(#paint1_linear_358_2631)"/>
<defs>
<linearGradient id="paint0_linear_358_2631" x1="163.318" y1="-0.132202" x2="135.818" y2="18.3678" gradientUnits="userSpaceOnUse">
<stop stop-color="#488CD1"/>
<stop offset="1" stop-color="#25486B"/>
</linearGradient>
<linearGradient id="paint1_linear_358_2631" x1="177.818" y1="0.867859" x2="155.318" y2="17.3679" gradientUnits="userSpaceOnUse">
<stop stop-color="#488CD1"/>
<stop offset="1" stop-color="#25486B"/>
</linearGradient>
</defs>
</svg>
