<svg width="17" height="19" viewBox="0 0 17 19" fill="none" xmlns="http://www.w3.org/2000/svg">
<path d="M7.47933 6.94814C6.4719 6.64283 5.39518 6.65293 4.39356 6.977C3.39199 7.30109 2.51345 7.9237 1.87578 8.76133C1.2381 9.59897 0.871764 10.6115 0.825916 11.6633C0.780064 12.715 1.05688 13.7557 1.61924 14.6456C2.18163 15.5355 3.00267 16.2322 3.97221 16.6422C4.9418 17.0522 6.01354 17.1559 7.04376 16.9394C8.07394 16.7229 9.01334 16.1966 9.73592 15.431C10.4585 14.6654 10.9297 13.6972 11.0864 12.6562L11.9698 7.07868C12.9611 8.05556 14.2352 8.695 15.6108 8.90605L16.0456 6.16089C15.0287 5.99982 14.1174 5.44138 13.5123 4.60835C12.9071 3.77535 12.6576 2.73605 12.8187 1.71907L10.0301 1.27741L8.29091 12.2581C8.21439 12.7564 7.98171 13.2176 7.62642 13.5754C7.27114 13.9331 6.81149 14.1688 6.31369 14.2488C5.81589 14.3286 5.30556 14.2485 4.85621 14.0199C4.40683 13.7913 4.04158 13.426 3.81301 12.9766C3.58444 12.5272 3.5043 12.0169 3.58422 11.519C3.66409 11.0212 3.89988 10.5616 4.2576 10.2063C4.61527 9.85094 5.07652 9.61829 5.57482 9.54177C6.07315 9.46526 6.58294 9.54882 7.03073 9.78045" fill="#00EEEE"/>
</svg>
