<svg width="23" height="23" viewBox="0 0 23 23" fill="none" xmlns="http://www.w3.org/2000/svg">
<g clip-path="url(#clip0_358_2104)">
<g clip-path="url(#clip1_358_2104)">
<path d="M11.4361 8.19687C11.3555 7.88117 11.3152 7.56547 11.3152 7.24978C11.3152 4.96098 13.2081 3.10626 15.544 3.10626C16.7522 3.10626 17.8396 3.57981 18.6451 4.40851C19.5714 4.2112 20.4977 3.85604 21.3031 3.38249C21.3031 5.99628 19.8089 6.95961 19.8089 6.95961C19.8089 6.95961 19.8089 7.26498 19.8089 7.72332C19.8089 13.2085 15.544 19.483 7.77117 19.483C5.35475 19.483 3.1397 18.8122 1.28711 17.6283C3.51014 17.9006 5.75632 17.2828 7.52954 15.9314C5.67694 15.892 4.10627 14.7081 3.58271 13.0507C4.23756 13.1424 4.82845 13.1303 5.47557 12.9718C3.50096 12.5687 2.09258 10.8344 2.09258 8.86772C2.65642 9.18342 3.34107 9.34127 4.02572 9.38073C2.20092 8.20927 1.56821 5.69894 2.69669 3.85604C4.19862 5.63902 6.23913 6.99576 8.56567 7.69336" stroke="white" stroke-width="1.36473" stroke-linecap="round" stroke-linejoin="round"/>
</g>
</g>
<defs>
<clipPath id="clip0_358_2104">
<rect width="21.8357" height="21.8357" fill="white" transform="translate(0.376953 0.37677)"/>
</clipPath>
<clipPath id="clip1_358_2104">
<rect width="21.8357" height="21.8357" fill="white" transform="translate(0.376953 0.37677)"/>
</clipPath>
</defs>
</svg>
