<svg width="27" height="27" viewBox="0 0 27 27" fill="none" xmlns="http://www.w3.org/2000/svg">
<g clip-path="url(#clip0_287_5674)">
<path d="M6.67822 6.26679C7.2354 5.15975 8.52938 4.65609 9.69277 5.0833C11.3774 5.70192 13.7776 6.60436 15.5544 7.35859C17.3313 8.11283 19.6477 9.21244 21.263 9.99455C22.3785 10.5347 22.915 11.8154 22.5057 12.9852C22.1136 14.1059 21.6137 15.4776 21.1668 16.5306C20.7198 17.5836 20.0803 18.8961 19.5465 19.9567C18.9893 21.0638 17.6953 21.5674 16.5319 21.1402C14.8473 20.5216 12.4471 19.6191 10.6703 18.8649C8.89342 18.1107 6.57699 17.011 4.96171 16.229C3.84627 15.6888 3.30968 14.4082 3.71898 13.2383C4.11109 12.1176 4.61096 10.7459 5.05793 9.69285C5.5049 8.63985 6.14441 7.32739 6.67822 6.26679Z" fill="#FC0D1B"/>
<path d="M12.3633 10.0779L10.4096 14.6804L15.989 14.3328L12.3633 10.0779Z" fill="white"/>
</g>
<defs>
<clipPath id="clip0_287_5674">
<rect width="20" height="20" fill="white" transform="translate(7.81445 -0.000488281) rotate(23)"/>
</clipPath>
</defs>
</svg>
